<svg width="800" height="800" viewBox="0 0 800 800" fill="none" xmlns="http://www.w3.org/2000/svg">
<path d="M550 333.333C545.775 333.333 540.733 333.992 535.933 334.867C518.483 275.1 463.858 233.333 400 233.333C336.133 233.333 281.517 275.1 264.067 334.867C259.267 333.992 254.225 333.333 250 333.333C199.458 333.333 158.333 374.458 158.333 425C158.333 475.542 199.458 516.667 250 516.667H550C600.542 516.667 641.667 475.542 641.667 425C641.667 374.458 600.542 333.333 550 333.333ZM550 483.333H250C217.833 483.333 191.667 457.158 191.667 425C191.667 392.842 217.833 366.667 250 366.667C252.308 366.667 256.025 367.233 259.95 368.017V383.333C259.95 392.533 267.417 400 276.617 400C285.817 400 293.283 392.533 293.283 383.333V356.45C302.25 304.367 346.933 266.667 400 266.667C453.092 266.667 497.792 304.408 506.733 356.533V383.333C506.733 392.533 514.2 400 523.4 400C532.608 400 540.067 392.533 540.067 383.333V368.025C543.983 367.242 547.717 366.667 550 366.667C582.158 366.667 608.333 392.842 608.333 425C608.333 457.158 582.158 483.333 550 483.333Z" fill="black"/>
<path fill-rule="evenodd" clip-rule="evenodd" d="M656.667 286C652.442 286 647.4 286.658 642.6 287.533C625.15 227.767 570.525 186 506.667 186C471.653 186 439.874 198.199 415.063 219.356C413.716 220.505 414.475 222.681 416.24 222.821C430.82 223.979 441.143 226.508 455.654 232.168C456.189 232.377 456.792 232.349 457.305 232.091C472.038 224.659 489.136 219.333 506.667 219.333C559.701 219.333 604.362 256.994 613.371 309.031C613.39 309.143 613.4 309.257 613.4 309.37V336C613.4 345.2 620.867 352.667 630.067 352.667C639.275 352.667 646.733 345.2 646.733 336V320.692C650.65 319.908 654.383 319.333 656.667 319.333C688.825 319.333 715 345.508 715 377.667C715 409.144 687.325 436.982 656.035 436.567C654.918 436.552 653.97 437.42 653.907 438.536C653.254 450.138 650.714 456.527 646.62 466.58C646.085 467.894 647.049 469.331 648.467 469.286C698.067 467.721 748.333 427.22 748.333 377.667C748.333 327.125 707.208 286 656.667 286Z" fill="black"/>
</svg>
