<svg width="518" height="614" viewBox="0 0 518 614" fill="none" xmlns="http://www.w3.org/2000/svg">
<path d="M291.699 275.849L293.397 278.82C293.465 278.939 293.556 279.042 293.665 279.124L295.327 280.371C295.441 280.456 295.572 280.516 295.71 280.547L299.831 281.462C299.943 281.487 300.058 281.493 300.172 281.479L304 281L306.013 280.664C306.558 280.574 306.926 280.058 306.835 279.514L306.525 277.653C306.508 277.551 306.507 277.448 306.522 277.347L306.99 274.07C306.997 274.023 307 273.976 307 273.929V273.207C307 272.817 306.683 272.5 306.293 272.5C306.105 272.5 305.925 272.425 305.793 272.293L304.57 271.07C304.523 271.023 304.472 270.982 304.417 270.945L303.635 270.424C303.26 270.174 303.099 269.703 303.241 269.275L303.316 269.051C303.43 268.71 303.717 268.457 304.069 268.386L305.703 268.059C305.897 268.021 306.074 267.925 306.214 267.786L307.207 266.793C307.395 266.605 307.5 266.351 307.5 266.086V265.721C307.5 265.29 307.224 264.908 306.816 264.772L306 264.5L304.269 264.067C304.093 264.023 303.932 263.932 303.804 263.804L302.793 262.793C302.605 262.605 302.5 262.351 302.5 262.086V260.618C302.5 260.239 302.714 259.893 303.053 259.724L303.39 259.555C303.463 259.518 303.54 259.491 303.62 259.473L307.852 258.533C307.95 258.511 308.044 258.475 308.131 258.425L311.384 256.566C311.461 256.522 311.532 256.468 311.595 256.405L312.913 255.087C312.971 255.029 313.021 254.965 313.063 254.894L314.413 252.645C314.47 252.549 314.544 252.463 314.63 252.392L317.5 250L320.885 246.615C320.961 246.539 321.024 246.451 321.072 246.355L322.44 243.62C322.48 243.54 322.509 243.456 322.526 243.369L322.813 241.935C322.918 241.412 322.593 240.898 322.075 240.769L321.168 240.542C321.057 240.514 320.951 240.467 320.856 240.404L318.832 239.055C318.372 238.748 317.752 238.873 317.445 239.332L317.074 239.889C317.025 239.963 316.986 240.043 316.958 240.127L316.06 242.821C316.02 242.939 315.959 243.049 315.879 243.145L313.608 245.87C313.537 245.956 313.451 246.029 313.355 246.087L311.669 247.098C311.276 247.334 310.772 247.272 310.448 246.948L310.145 246.645C310.049 246.549 309.935 246.474 309.809 246.424L307.679 245.572C307.561 245.524 307.435 245.5 307.307 245.5H303.736C303.581 245.5 303.428 245.464 303.289 245.394L301.711 244.606C301.572 244.536 301.419 244.5 301.264 244.5H299.281C298.822 244.5 298.422 244.188 298.311 243.743L298 242.5L297.798 241.895C297.631 241.392 297.884 240.846 298.375 240.65L299.9 240.04C299.966 240.013 300.036 239.994 300.107 239.982L302.813 239.531C302.936 239.511 303.055 239.467 303.163 239.402L305.394 238.063C305.464 238.021 305.529 237.971 305.587 237.913L307.833 235.667C307.943 235.557 308.025 235.423 308.075 235.276L308.383 234.351C308.458 234.124 308.612 233.932 308.817 233.81L310.807 232.616C310.934 232.54 311.042 232.436 311.125 232.313L311.545 231.682C311.81 231.285 311.757 230.757 311.42 230.42L311.167 230.167C311.057 230.057 310.923 229.974 310.776 229.925L309.567 229.522C309.522 229.508 309.479 229.489 309.436 229.468L307.5 228.5L305.19 227.576C305.065 227.526 304.951 227.451 304.855 227.355L304.315 226.815C303.885 226.385 303.935 225.673 304.422 225.308L305.338 224.621C305.445 224.541 305.566 224.483 305.696 224.451L309.5 223.5L312.179 223.053C312.388 223.019 312.602 223.051 312.791 223.145L313.981 223.74C314.302 223.901 314.684 223.877 314.983 223.678L315.443 223.371C315.78 223.147 315.948 222.741 315.869 222.343L315.575 220.875C315.527 220.633 315.391 220.418 315.194 220.271L313.9 219.3C313.648 219.111 313.5 218.815 313.5 218.5V217.414C313.5 217.149 313.605 216.895 313.793 216.707L314.333 216.167C314.443 216.057 314.577 215.974 314.724 215.925L317.248 215.084C317.413 215.029 317.59 215.018 317.76 215.052L319.594 215.419C319.854 215.471 320.124 215.417 320.345 215.27L322.555 213.797C322.833 213.611 323 213.299 323 212.965V210.662C323 210.555 322.983 210.448 322.949 210.346L322.093 207.78C322.032 207.597 321.92 207.436 321.769 207.316L319.67 205.636C319.558 205.547 319.428 205.482 319.288 205.447L317.875 205.094C317.634 205.033 317.423 204.885 317.285 204.678L316.95 204.175C316.688 203.782 316.186 203.626 315.747 203.801L314.097 204.461C314.032 204.487 313.971 204.519 313.913 204.558L311.221 206.353C311.076 206.449 310.959 206.582 310.881 206.738L308.537 211.426C308.513 211.475 308.477 211.517 308.434 211.549L305.054 214.085C305.005 214.121 304.946 214.054 304.989 214.011C304.996 214.004 305.001 213.995 305.003 213.985L305.448 211.76C305.482 211.59 305.471 211.413 305.416 211.248L305.228 210.684C305.092 210.275 304.71 210 304.279 210H303.651C302.945 210 302.524 209.213 302.916 208.626C302.971 208.543 303.041 208.469 303.121 208.409L304.694 207.229C304.891 207.082 305.027 206.867 305.075 206.625L305.456 204.721C305.485 204.575 305.481 204.425 305.445 204.282L305.123 202.993C305.046 202.683 305.121 202.355 305.325 202.11L307.391 199.63C307.463 199.544 307.52 199.446 307.559 199.341L308.876 195.831C308.956 195.617 308.96 195.381 308.888 195.164L308 192.5L307.172 190.431C307.063 190.158 306.839 189.946 306.56 189.853L306.028 189.676C305.7 189.567 305.338 189.635 305.072 189.857L302.5 192L298.743 194.348C298.584 194.447 298.4 194.5 298.213 194.5H296.599C296.533 194.5 296.467 194.493 296.403 194.481L294.26 194.052C294.09 194.018 293.913 194.029 293.748 194.084L291 195L288.917 195.833C288.652 195.939 288.354 195.927 288.098 195.799L288.053 195.776C287.714 195.607 287.5 195.261 287.5 194.882V192.803C287.5 192.605 287.558 192.412 287.668 192.248L289.445 189.582C289.481 189.528 289.523 189.477 289.57 189.43L292.707 186.293C292.895 186.105 293 185.851 293 185.586V184.162C293 184.055 293.017 183.948 293.051 183.846L293.908 181.276C293.968 181.096 293.975 180.902 293.929 180.717L293.567 179.269C293.523 179.093 293.432 178.932 293.304 178.804L292.966 178.466C292.683 178.183 292.259 178.096 291.888 178.245L290.19 178.924C290.065 178.974 289.951 179.049 289.855 179.145L287.587 181.413C287.529 181.471 287.464 181.521 287.394 181.563L285 183L282.553 184.224C282.214 184.393 282 184.739 282 185.118V186.223C282 186.404 282.049 186.582 282.142 186.738L283.459 188.931C283.486 188.977 283.51 189.025 283.53 189.074L284.407 191.267C284.468 191.42 284.49 191.586 284.472 191.749L284 196L283.552 198.24C283.518 198.41 283.529 198.587 283.584 198.752L284.449 201.346C284.483 201.448 284.5 201.555 284.5 201.662V206.219C284.5 206.678 284.812 207.078 285.257 207.189L286.786 207.572C287.541 207.76 287.801 208.699 287.251 209.249L287 209.5L284.646 212.324C284.55 212.44 284.481 212.576 284.444 212.722L284.156 213.877C284.061 214.257 284.196 214.657 284.501 214.901L286.319 216.355C286.438 216.45 286.577 216.517 286.726 216.55L290.044 217.288C290.575 217.406 290.915 217.927 290.808 218.46L290.589 219.554C290.532 219.837 290.356 220.082 290.105 220.226L287.068 221.961C287.023 221.987 286.98 222.016 286.939 222.049L285.935 222.852C285.316 223.347 285.492 224.331 286.244 224.581L288.051 225.184C288.575 225.358 288.858 225.925 288.684 226.449L288.575 226.776C288.525 226.923 288.443 227.057 288.333 227.167L287.293 228.207C287.105 228.395 287 228.649 287 228.914V230.882C287 231.261 286.786 231.607 286.447 231.776L285.298 232.351C285.105 232.448 284.948 232.605 284.851 232.798L284.105 234.289C284.036 234.428 284 234.581 284 234.736V239.307C284 239.435 284.024 239.561 284.071 239.679L285 242L285.226 242.677C285.383 243.149 285.169 243.665 284.724 243.888L282.84 244.83C282.621 244.939 282.45 245.126 282.359 245.353L281.593 247.267C281.532 247.42 281.509 247.586 281.528 247.749L281.988 251.895C281.996 251.965 282.011 252.034 282.033 252.101L282.833 254.5C282.937 254.813 283.19 255.054 283.507 255.145L285.496 255.713C286.043 255.869 286.35 256.451 286.17 256.991L285.605 258.684C285.537 258.889 285.537 259.111 285.605 259.316L286.425 261.776C286.474 261.923 286.557 262.057 286.667 262.167L287.707 263.207C287.895 263.395 288.149 263.5 288.414 263.5H289.28C289.911 263.5 290.384 264.077 290.261 264.696L290.047 265.762C290.016 265.918 290.023 266.08 290.066 266.233L290.921 269.225C290.973 269.405 290.973 269.595 290.921 269.775L290.284 272.006C290.129 272.549 290.454 273.114 291.003 273.251L291.03 273.257C291.566 273.391 291.891 273.934 291.757 274.47L291.597 275.11C291.535 275.36 291.571 275.625 291.699 275.849Z" fill="#C8B38D"/>
<path d="M319.5 224L318.709 224.198C318.089 224.353 317.771 225.043 318.057 225.615L318.351 226.202C318.448 226.395 318.605 226.552 318.798 226.649L320.38 227.44C320.46 227.48 320.544 227.509 320.631 227.526L323 228L325.414 228.805C325.773 228.924 326.169 228.831 326.437 228.563L326.6 228.4C326.848 228.152 326.948 227.791 326.863 227.451L326.567 226.269C326.523 226.093 326.432 225.932 326.304 225.804L325.087 224.587C325.029 224.529 324.964 224.479 324.894 224.437L322.894 223.237C322.644 223.086 322.34 223.053 322.064 223.145L319.5 224Z" fill="#C8B38D"/>
<path d="M358.737 234.357L359.143 234.114C359.874 233.675 360.784 234.295 360.644 235.136L360.513 235.918C360.504 235.973 360.5 236.028 360.5 236.083V236.882C360.5 237.261 360.714 237.607 361.053 237.776L362.25 238.375C362.412 238.456 362.544 238.588 362.625 238.75C362.832 239.164 362.664 239.668 362.25 239.875L361.331 240.335C361.117 240.441 360.873 240.468 360.641 240.41L359.196 240.049C359.066 240.017 358.945 239.959 358.838 239.879L357.4 238.8C357.148 238.611 357 238.315 357 238V235.5C357 234.948 357.448 234.5 358 234.5H358.223C358.404 234.5 358.582 234.451 358.737 234.357Z" fill="#C8B38D"/>
<path d="M381.044 265.781L381.236 264.817C381.349 264.254 382.044 264.044 382.45 264.45C382.483 264.483 382.52 264.513 382.559 264.539L383.593 265.229C383.85 265.4 384.171 265.443 384.464 265.345L384.914 265.195C385.273 265.076 385.669 265.169 385.937 265.437L386.121 265.622C386.358 265.858 386.46 266.197 386.395 266.525L386 268.5L385.653 269.886C385.56 270.261 385.258 270.548 384.879 270.624L383.935 270.813C383.411 270.918 382.898 270.593 382.769 270.075L382.542 269.168C382.514 269.057 382.467 268.951 382.404 268.856L381.653 267.73C381.554 267.581 381.408 267.469 381.237 267.413L381.13 267.377C380.611 267.204 380.455 266.545 380.842 266.158C380.945 266.055 381.015 265.924 381.044 265.781Z" fill="#C8B38D"/>
<path d="M364.597 284.645L366.296 287.195C366.425 287.387 366.457 287.628 366.384 287.848C366.207 288.377 365.536 288.536 365.141 288.141L364.293 287.293C364.105 287.105 364 286.851 364 286.586V284.826C364 284.646 364.146 284.5 364.326 284.5C364.434 284.5 364.536 284.554 364.597 284.645Z" fill="#C8B38D"/>
<path d="M361.034 299.795L361.103 299.38C361.239 298.565 362.316 298.36 362.741 299.069C362.902 299.336 363.191 299.5 363.503 299.5H365.338C365.445 299.5 365.552 299.483 365.654 299.449L366.449 299.184C366.79 299.07 367.043 298.783 367.114 298.431L367.48 296.597C367.493 296.533 367.5 296.467 367.5 296.401V294.099C367.5 294.033 367.506 293.967 367.519 293.903L367.794 292.528C367.906 291.969 368.463 291.616 369.017 291.754L371.242 292.311C371.688 292.422 372 292.822 372 293.281V295C372 295.335 372.234 296.397 372.408 297.125C372.466 297.367 372.615 297.576 372.822 297.714L373.87 298.413C373.956 298.471 374.051 298.514 374.15 298.543L376.993 299.355C377.31 299.446 377.562 299.687 377.667 300L377.921 300.764C377.973 300.919 377.986 301.084 377.959 301.245L377.62 303.278C377.549 303.708 377.207 304.042 376.775 304.104L374.33 304.453C374.116 304.483 373.917 304.583 373.764 304.736L372.736 305.764C372.583 305.917 372.483 306.115 372.453 306.329C372.278 307.573 372 309.635 372 310C372 310.33 371.547 310.002 371.201 309.691C371.066 309.569 370.907 309.477 370.731 309.433L369.938 309.235C369.415 309.104 368.882 309.411 368.734 309.93L368.121 312.077C368.044 312.347 367.857 312.571 367.606 312.697L365.447 313.776C365.166 313.917 364.834 313.917 364.553 313.776L364.196 313.598C364.067 313.534 363.953 313.441 363.863 313.328L362.219 311.274C362.077 311.097 362 310.876 362 310.649V304.123C362 304.041 361.99 303.96 361.97 303.881L361.05 300.202C361.017 300.069 361.012 299.93 361.034 299.795Z" fill="#C8B38D"/>
<path d="M349.637 307.897L350.688 307.109C351.129 306.778 351.757 306.886 352.063 307.345C352.317 307.726 352.261 308.229 351.978 308.589C351.725 308.912 351.5 309.268 351.5 309.5C351.5 310 350.5 311.5 350.5 312C350.5 312.305 350.693 312.822 350.859 313.198C350.946 313.396 351.104 313.552 351.298 313.649L352.447 314.224C352.786 314.393 353 314.739 353 315.118V316.5C353 316.83 352.547 317.861 352.201 318.587C352.076 318.85 351.837 319.041 351.554 319.112L350.636 319.341C350.25 319.438 349.958 319.754 349.892 320.147L349.553 322.184C349.518 322.389 349.421 322.579 349.273 322.727L347.07 324.93C347.023 324.977 346.972 325.018 346.917 325.055L346.086 325.609C345.735 325.844 345.568 326.274 345.671 326.684L345.788 327.153C345.909 327.638 345.654 328.138 345.189 328.324L344.253 328.699C343.814 328.874 343.312 328.718 343.05 328.325L342.626 327.689C342.543 327.564 342.489 327.423 342.468 327.275L342.01 324.07C342.003 324.023 342 323.976 342 323.929V319.571C342 319.524 342.003 319.477 342.01 319.43L342.487 316.089C342.496 316.03 342.509 315.971 342.528 315.914L343.425 313.224C343.474 313.077 343.557 312.943 343.667 312.833L344.333 312.167C344.443 312.057 344.577 311.974 344.724 311.925L347.174 311.108C347.385 311.038 347.567 310.9 347.69 310.715L349.405 308.143C349.468 308.048 349.546 307.965 349.637 307.897Z" fill="#C8B38D"/>
<path d="M298 293L295.684 293.772C295.275 293.908 294.826 293.768 294.567 293.423L293.554 292.072C293.518 292.024 293.486 291.973 293.46 291.919L292.759 290.519C292.599 290.198 292.623 289.816 292.822 289.517L294.375 287.187C294.457 287.064 294.566 286.96 294.693 286.884L296.762 285.642C296.918 285.549 297.096 285.5 297.277 285.5H299.382C299.761 285.5 300.107 285.714 300.276 286.053L300.781 287.063C300.919 287.339 301.177 287.535 301.479 287.596L302.696 287.839C303.163 287.933 303.5 288.343 303.5 288.82V290.382C303.5 290.761 303.286 291.107 302.947 291.276L301.583 291.958C301.528 291.986 301.47 292.009 301.411 292.026L298 293Z" fill="#C8B38D"/>
<path d="M308.41 284.105L306.039 286.871C305.726 287.236 305.717 287.772 306.017 288.147L307.5 290L308.404 291.356C308.467 291.451 308.514 291.557 308.542 291.668L308.97 293.381C308.99 293.46 309 293.541 309 293.623V296.586C309 296.851 308.895 297.105 308.707 297.293L307.293 298.707C307.105 298.895 307 299.149 307 299.414V301.901C307 301.967 306.993 302.033 306.98 302.097L306.31 305.45C306.166 306.17 306.821 306.795 307.533 306.617L307.88 306.53C307.96 306.51 308.041 306.5 308.123 306.5H308.5C308.815 306.5 309.111 306.648 309.3 306.9L310.37 308.327C310.456 308.441 310.516 308.572 310.547 308.711L311.5 313L311.933 316.033C311.975 316.327 311.876 316.624 311.667 316.833L311.5 317C311.224 317.276 311.224 317.724 311.5 318L311.646 318.146C311.842 318.342 312.158 318.342 312.353 318.146C312.447 318.053 312.5 317.926 312.5 317.793V316.662C312.5 316.555 312.483 316.448 312.449 316.346L312.131 315.393C312.047 315.141 312.067 314.867 312.185 314.63L312.334 314.331C312.441 314.117 312.468 313.873 312.41 313.641L312 312L311.51 308.57C311.503 308.523 311.5 308.476 311.5 308.429V305.599C311.5 305.533 311.506 305.467 311.519 305.403L311.984 303.079C311.995 303.027 312.009 302.975 312.028 302.924L313.5 299L314.457 295.65C314.485 295.551 314.529 295.456 314.586 295.37L315.389 294.166C315.462 294.057 315.556 293.962 315.666 293.889L316.748 293.168C316.912 293.058 317.105 293 317.303 293H319.086C319.351 293 319.605 293.105 319.793 293.293L320.913 294.413C320.971 294.471 321.021 294.535 321.063 294.606L322.396 296.827C322.465 296.941 322.51 297.068 322.528 297.2L323 300.5L323.961 303.865C323.987 303.955 324 304.047 324 304.14V306.264C324 306.419 324.036 306.572 324.105 306.711L325.433 309.366C325.477 309.455 325.508 309.55 325.525 309.648L325.987 312.423C325.996 312.474 326.008 312.525 326.025 312.574L326.891 315.174C326.962 315.385 327.1 315.567 327.285 315.69L328.049 316.2C328.328 316.385 328.685 316.408 328.984 316.258C329.3 316.1 329.5 315.777 329.5 315.423V313.583C329.5 313.528 329.504 313.473 329.513 313.418L329.986 310.582C329.995 310.527 330 310.472 330 310.417V309.177C330 308.768 330.249 308.4 330.628 308.249L334.903 306.539C334.967 306.513 335.029 306.481 335.087 306.442L336.139 305.74C336.369 305.587 336.526 305.345 336.571 305.073L336.859 303.344C336.929 302.925 337.385 302.693 337.766 302.883C337.916 302.958 338.03 303.089 338.083 303.248L338.272 303.816C338.408 304.225 338.79 304.5 339.221 304.5H340.764C340.919 304.5 341.072 304.464 341.211 304.394L342.829 303.585C342.94 303.53 343.03 303.44 343.085 303.329C343.276 302.948 342.999 302.5 342.573 302.5H342.549C342.516 302.5 342.484 302.497 342.452 302.492L339.648 302.025C339.55 302.008 339.455 301.977 339.365 301.933L336.5 300.5L334.105 299.063C334.035 299.021 333.971 298.971 333.913 298.913L332.587 297.587C332.529 297.529 332.479 297.465 332.437 297.394L331.041 295.069C331.014 295.023 330.99 294.975 330.97 294.926L330.12 292.8C330.042 292.605 330.027 292.39 330.078 292.186L330.466 290.634C330.489 290.545 330.523 290.46 330.568 290.38L331.645 288.496C332.026 287.829 331.545 287 330.777 287H330.303C330.105 287 329.912 287.058 329.748 287.168L328.5 288L326.019 289.24C325.698 289.401 325.316 289.377 325.017 289.178L324.322 288.714C324.115 288.576 323.966 288.366 323.906 288.125L323.59 286.859C323.532 286.627 323.559 286.383 323.665 286.169L324.425 284.649C324.474 284.551 324.5 284.443 324.5 284.333C324.5 283.897 324.108 283.565 323.678 283.637L321.577 283.987C321.526 283.996 321.475 284.008 321.425 284.025L318.997 284.834C318.686 284.938 318.343 284.883 318.081 284.686L316.806 283.729C316.609 283.582 316.473 283.367 316.425 283.125L316.091 281.457C316.033 281.167 316.106 280.867 316.291 280.636L317.843 278.696C317.946 278.567 318.079 278.466 318.23 278.401L321.5 277L327.886 274.544C327.962 274.515 328.034 274.476 328.1 274.43L332.671 271.23C332.882 271.082 333.028 270.859 333.078 270.607L333.304 269.481C333.412 268.939 333.061 268.412 332.519 268.304L331.222 268.044C331.076 268.015 330.938 267.953 330.818 267.864L329.668 267.001C329.281 266.711 329.157 266.186 329.373 265.754L329.851 264.798C329.948 264.605 330.105 264.448 330.298 264.351L333 263L336.148 261.651C336.37 261.556 336.534 261.363 336.593 261.128C336.753 260.489 336.088 259.956 335.498 260.251L335 260.5L331.677 261.924C331.56 261.974 331.454 262.046 331.364 262.136L329.714 263.786C329.574 263.925 329.397 264.021 329.203 264.059L327.102 264.48C327.034 264.493 326.968 264.514 326.904 264.541L323.584 265.964C323.528 265.988 323.474 266.017 323.423 266.051L320.687 267.875C320.564 267.957 320.46 268.066 320.384 268.193L314.55 277.917C314.517 277.972 314.478 278.024 314.435 278.072L310.084 282.907C310.028 282.969 309.965 283.023 309.895 283.07L308.615 283.923C308.538 283.974 308.47 284.035 308.41 284.105Z" fill="#C8B38D"/>
<path d="M310.632 321.235L310.79 320.919C310.906 320.688 311.187 320.594 311.419 320.709C311.705 320.852 311.766 321.233 311.54 321.459L311.29 321.709C311.13 321.87 310.87 321.87 310.709 321.709C310.584 321.584 310.553 321.393 310.632 321.235Z" fill="#C8B38D"/>
<path d="M203.328 129.345L198.964 125.418C198.68 125.162 198.566 124.767 198.671 124.4L199.111 122.86C199.286 122.25 200.051 122.051 200.5 122.5L202.261 124.701C202.415 124.894 202.634 125.022 202.877 125.063L205.381 125.48C205.46 125.493 205.537 125.516 205.611 125.547L208.574 126.817C208.844 126.933 209.152 126.924 209.415 126.793L210.177 126.411C210.642 126.179 210.851 125.629 210.658 125.146L210.03 123.574C210.01 123.525 209.986 123.477 209.959 123.431L208.642 121.238C208.549 121.082 208.5 120.904 208.5 120.723V118.777C208.5 118.596 208.549 118.418 208.642 118.262L209.762 116.396C209.913 116.145 210.166 115.972 210.455 115.924L211.85 115.692C212.331 115.611 212.521 115.021 212.176 114.676C212.063 114.563 212 114.411 212 114.252V106.303C212 106.105 212.058 105.912 212.168 105.748L212.905 104.643C212.968 104.548 213.046 104.465 213.137 104.397L214.474 103.394C214.793 103.155 215.224 103.128 215.57 103.326L217.295 104.312C217.888 104.65 218.638 104.309 218.772 103.64L218.876 103.121C218.952 102.742 219.239 102.44 219.614 102.347L220.641 102.09C220.873 102.032 221.117 102.059 221.331 102.165L221.855 102.427C221.951 102.475 222.039 102.539 222.115 102.615L223.621 104.122C223.858 104.358 223.96 104.697 223.895 105.025L223.5 107L222.274 110.677C222.117 111.149 222.331 111.665 222.776 111.888L222.902 111.951C222.967 111.984 223.036 112.009 223.106 112.027L224.625 112.406C224.866 112.467 225.076 112.615 225.214 112.822L225.755 113.632C225.911 113.866 225.961 114.156 225.893 114.429L225.567 115.731C225.523 115.907 225.432 116.068 225.304 116.196L223.793 117.707C223.605 117.895 223.5 118.149 223.5 118.414V119.09C223.5 119.593 223.907 120 224.41 120C224.47 120 224.529 120.006 224.588 120.018L226.703 120.441C226.897 120.479 227.074 120.574 227.214 120.714L228.793 122.293C229.183 122.683 229.816 122.683 230.207 122.293C230.395 122.105 230.649 122 230.914 122H232.697C232.895 122 233.088 122.058 233.252 122.168L234.055 122.703C234.333 122.889 234.5 123.201 234.5 123.535V126.697C234.5 126.895 234.441 127.088 234.332 127.252L233.905 127.893C233.664 128.254 233.216 128.419 232.798 128.299L230.961 127.775C230.43 127.623 229.877 127.93 229.725 128.462L229.217 130.24C229.108 130.621 229.394 131 229.791 131C229.926 131 230.057 131.046 230.163 131.131L232.5 133L234.1 134.6C234.348 134.848 234.708 134.948 235.049 134.863L236.5 134.5L238.511 133.695C238.817 133.573 239.164 133.609 239.438 133.792L240.5 134.5L244.044 136.272C244.331 136.415 244.531 136.687 244.584 137.002L244.972 139.336C244.991 139.444 244.991 139.556 244.972 139.664L244.513 142.423C244.504 142.474 244.492 142.525 244.475 142.574L244.228 143.316C244.092 143.725 243.71 144 243.279 144H241.61C241.537 144 241.464 143.992 241.393 143.976L237.361 143.08C237.128 143.028 236.921 142.895 236.778 142.704L236.192 141.922C235.827 141.436 235.115 141.385 234.685 141.815L234.57 141.93C234.523 141.977 234.472 142.018 234.417 142.055L233.252 142.832C233.088 142.942 232.895 143 232.697 143H230.914C230.649 143 230.395 142.895 230.207 142.707L227.9 140.4C227.652 140.152 227.291 140.052 226.951 140.137L225.619 140.47C225.54 140.49 225.459 140.5 225.377 140.5H222.5C222.112 140.5 221.38 139.248 221.032 138.563C221.01 138.521 220.992 138.477 220.977 138.433L220.556 137.169C220.519 137.057 220.462 136.953 220.388 136.861L218.5 134.5L217.168 132.724C217.058 132.578 216.91 132.464 216.74 132.396L214.988 131.695C214.683 131.573 214.336 131.609 214.062 131.792L213.285 132.31C213.1 132.433 212.962 132.615 212.891 132.826L212.131 135.107C212.047 135.359 211.867 135.567 211.629 135.685L210.447 136.276C210.166 136.417 209.834 136.417 209.553 136.276L208.553 135.776C208.214 135.607 208 135.261 208 134.882V133.193C208 133.065 207.976 132.939 207.928 132.821L207.182 130.955C207.067 130.668 206.826 130.45 206.528 130.365L203.722 129.564C203.576 129.522 203.441 129.447 203.328 129.345Z" fill="#C8B38D"/>
<path d="M233.897 94.7736L232.699 97.9679C232.576 98.2979 232.635 98.6686 232.855 98.9437L233.995 100.369C234.289 100.737 234.801 100.849 235.223 100.638L236.5 100L238.818 98.4547C239.214 98.1903 239.743 98.2426 240.08 98.5797L240.93 99.43C240.976 99.4765 241.018 99.5276 241.055 99.5824L242.945 102.418C242.981 102.472 243.023 102.523 243.07 102.57L244.034 103.534C244.316 103.817 244.741 103.904 245.112 103.755L246.497 103.201C246.811 103.076 247.04 102.8 247.106 102.469L247.448 100.76C247.482 100.59 247.471 100.413 247.416 100.248L247.093 99.2802C247.032 99.0973 246.92 98.9359 246.769 98.8155L244.599 97.0793C244.533 97.0266 244.474 96.9659 244.424 96.8984L243.043 95.0568C243.014 95.019 242.983 94.9832 242.95 94.9497L241.145 93.1451C241.049 93.0494 240.935 92.9741 240.809 92.9238L238.871 92.1486C238.633 92.0532 238.367 92.0532 238.128 92.1486L236.123 92.9509C236.041 92.9835 235.964 93.0267 235.894 93.0794L234.234 94.3247C234.081 94.4392 233.964 94.5949 233.897 94.7736Z" fill="#C8B38D"/>
<path d="M241.417 85.9338L240.008 84.8064C239.497 84.398 239.51 83.6177 240.033 83.2255L240.227 83.0795C240.635 82.7737 240.677 82.1775 240.317 81.817C240.119 81.619 240.033 81.335 240.088 81.0604L240.339 79.8039C240.433 79.3365 240.843 79 241.32 79H241.586C241.851 79 242.105 78.8946 242.293 78.7071L242.95 78.0502C242.983 78.0168 243.014 77.981 243.043 77.9431L244.075 76.566C244.33 76.2268 244.343 75.7641 244.107 75.4113L243.668 74.7519C243.558 74.5877 243.5 74.3946 243.5 74.1972V73.4142C243.5 73.149 243.395 72.8946 243.207 72.7071L242.51 72.0097C242.205 71.7053 242.13 71.2403 242.322 70.8553L242.87 69.7605C242.955 69.5903 243.087 69.448 243.25 69.3502L244.704 68.4776C245.112 68.2325 245.643 68.4287 245.793 68.8807L246.067 69.7008C246.206 70.117 246.794 70.117 246.933 69.7008C246.975 69.5735 247.072 69.4712 247.196 69.4214L248.747 68.8013C249.186 68.6257 249.688 68.7817 249.95 69.1751L251.288 71.1821C251.424 71.3868 251.481 71.6347 251.446 71.8782L251.044 74.6908C251.015 74.8921 251.049 75.0975 251.14 75.2794L252.427 77.8549C252.475 77.951 252.539 78.0387 252.615 78.1147L253.764 79.2643C253.917 79.4173 254.116 79.5165 254.33 79.5471L257.43 79.9899C257.476 79.9966 257.524 80 257.571 80H259.882C260.261 80 260.607 80.214 260.776 80.5528L261.723 82.4472C261.893 82.786 262.239 83 262.618 83H263.417C263.472 83 263.527 83.0045 263.582 83.0136L265.481 83.3302C266.038 83.4231 266.408 83.9588 266.297 84.5127L266.119 85.4021C266.046 85.7693 265.774 86.0646 265.414 86.1675L262.635 86.9615C262.545 86.987 262.453 87 262.36 87H260.968C260.671 87 260.39 87.1318 260.2 87.3598L258.507 89.3915C258.21 89.748 257.707 89.8533 257.291 89.6458L254.211 88.1056C254.072 88.0361 253.951 87.9353 253.858 87.8111L252.865 86.4863C252.641 86.1875 252.269 86.0385 251.9 86.0999L249.5 86.5L244.836 87.4327C244.618 87.4763 244.392 87.446 244.193 87.3465L241.595 86.0474C241.532 86.0159 241.472 85.9778 241.417 85.9338Z" fill="#C8B38D"/>
<path d="M262.55 71.3165L263.684 70.9387C264.331 70.7229 265 71.2049 265 71.8874V73.1667C265 73.383 264.93 73.5936 264.8 73.7667L263.79 75.1136C263.607 75.3568 263.321 75.5 263.017 75.5C262.694 75.5 262.392 75.3386 262.213 75.0698L261.73 74.3446C261.583 74.124 261.529 73.8539 261.581 73.5938L261.886 72.069C261.956 71.7172 262.21 71.43 262.55 71.3165Z" fill="#C8B38D"/>
<path d="M265.799 66.503L265.167 68.083C265.061 68.3483 265.073 68.6462 265.201 68.9016L265.351 69.2019C265.448 69.3954 265.605 69.5523 265.798 69.6491L266.289 69.8944C266.428 69.9639 266.581 70 266.736 70H267.779C268.21 70 268.592 70.2754 268.728 70.6838L268.853 71.06C268.946 71.3391 269.157 71.563 269.431 71.6722L271.16 72.364C271.379 72.4518 271.623 72.459 271.847 72.3842L272.526 72.1581C272.824 72.0586 273.058 71.8243 273.158 71.5257L273.408 70.7763C273.468 70.5958 273.475 70.402 273.429 70.2175L273.042 68.668C273.014 68.5568 272.967 68.4512 272.904 68.3559L272.455 67.6821C272.19 67.2855 272.243 66.7574 272.58 66.4203L273.855 65.1451C273.951 65.0494 274.026 64.9352 274.076 64.8094L274.928 62.6788C274.976 62.5607 275 62.4346 275 62.3074V59.1231C275 59.0413 275.01 58.9599 275.03 58.8806L275.117 58.533C275.295 57.8208 274.67 57.1659 273.95 57.3099L273.297 57.4406C273.103 57.4793 272.925 57.5745 272.786 57.7141L270.667 59.8331C270.557 59.9428 270.474 60.0767 270.425 60.2239L269.5 63L268.701 64.997C268.576 65.3108 268.3 65.54 267.969 65.6062L266.531 65.8938C266.2 65.96 265.924 66.1892 265.799 66.503Z" fill="#C8B38D"/>
<path d="M256.658 74.7723L256.326 74.5505C255.898 74.2657 255.839 73.6613 256.202 73.2982C256.594 72.9055 257.256 73.0129 257.505 73.5097L257.683 73.8672C257.858 74.2167 257.717 74.6416 257.367 74.8164C257.14 74.9299 256.87 74.9131 256.658 74.7723Z" fill="#C8B38D"/>
<path d="M282.333 70.6112L283.148 70.8825C283.358 70.9527 283.5 71.1496 283.5 71.3714C283.5 71.6966 283.202 71.9405 282.883 71.8767L282.042 71.7084C281.596 71.6193 281.43 71.0697 281.751 70.7485C281.904 70.5962 282.129 70.543 282.333 70.6112Z" fill="#C8B38D"/>
<path d="M291.094 73.901L293.347 73.5254C293.448 73.5086 293.552 73.5074 293.653 73.5219L296.67 73.9529C296.884 73.9835 297.083 74.0827 297.236 74.2357L297.99 74.9903C298.295 75.2947 298.37 75.7597 298.178 76.1447L297.63 77.2395C297.545 77.4096 297.413 77.552 297.25 77.6498L295.394 78.7634C295.144 78.9136 294.841 78.9476 294.565 78.8514C293.487 78.4753 291.848 77.8485 291.5 77.5C291.188 77.1882 290.653 76.451 290.275 75.9043C290.099 75.6506 290.057 75.3288 290.155 75.036L290.309 74.5712C290.427 74.2198 290.728 73.9619 291.094 73.901Z" fill="#C8B38D"/>
<path d="M267.623 132.346L269.5 130L270.404 128.644C270.467 128.549 270.514 128.443 270.542 128.332L270.693 127.729C270.849 127.105 270.377 126.5 269.733 126.5C269.58 126.5 269.428 126.464 269.291 126.396L268.711 126.106C268.572 126.036 268.419 126 268.264 126H266.071C265.579 126 265.259 125.482 265.479 125.042C265.493 125.014 265.505 124.985 265.515 124.955L265.804 124.086C265.924 123.727 265.831 123.331 265.563 123.063L264.667 122.167C264.557 122.057 264.423 121.974 264.276 121.925L262.184 121.228C261.775 121.092 261.5 120.71 261.5 120.279V117.736C261.5 117.581 261.536 117.428 261.605 117.289L262.427 115.645C262.475 115.549 262.539 115.461 262.615 115.385L263.521 114.479C263.81 114.19 264.246 114.106 264.622 114.267L267.311 115.419C267.436 115.472 267.57 115.5 267.705 115.5H268.223C268.404 115.5 268.582 115.549 268.737 115.643L270.851 116.911C270.95 116.97 271.057 117.011 271.17 117.034L273.5 117.5L276.5 118L279.376 118.411C279.757 118.465 280.136 118.296 280.349 117.976L280.708 117.438C280.891 117.164 280.927 116.817 280.805 116.512L280.034 114.585C280.011 114.529 279.994 114.47 279.982 114.41L279.544 112.22C279.515 112.075 279.519 111.925 279.554 111.782L280 110L280.864 107.84C280.952 107.62 280.959 107.377 280.884 107.152L280.695 106.586C280.576 106.227 280.669 105.831 280.937 105.563L282.5 104L285.315 101.654C285.437 101.553 285.532 101.424 285.594 101.279L286.749 98.5856C286.869 98.3051 287.235 98.2347 287.45 98.4505C287.483 98.4833 287.51 98.5211 287.531 98.5626L288.294 100.089C288.425 100.35 288.663 100.541 288.946 100.612L290.038 100.885C290.33 100.958 290.64 100.895 290.881 100.714L292.428 99.5541C292.476 99.5181 292.527 99.4865 292.581 99.4597L293.981 98.7595C294.302 98.599 294.684 98.6228 294.983 98.8219L296 99.5L296.81 100.108C297.378 100.534 297.334 101.4 296.725 101.765L295.663 102.402C295.555 102.467 295.436 102.511 295.313 102.531L292.816 102.947C292.61 102.982 292.421 103.079 292.273 103.227L290.9 104.6C290.652 104.848 290.552 105.209 290.637 105.549L290.97 106.881C290.99 106.96 291 107.041 291 107.123V107.779C291 108.21 290.724 108.592 290.316 108.728L288.224 109.425C288.077 109.474 287.943 109.557 287.833 109.667L286.07 111.43C286.023 111.477 285.981 111.528 285.945 111.582L285.351 112.473C285.137 112.795 285.127 113.211 285.325 113.543L287.85 117.75C287.948 117.913 288.09 118.045 288.26 118.13L291.562 119.781C291.838 119.919 292.035 120.177 292.096 120.48L292.461 122.306C292.487 122.434 292.537 122.556 292.61 122.665L293.178 123.517C293.377 123.816 293.401 124.198 293.24 124.519L292.697 125.606C292.576 125.847 292.329 126 292.059 126C292.02 126 291.98 125.997 291.942 125.99L289.427 125.571C289.155 125.526 288.913 125.37 288.76 125.14L288.055 124.082C288.018 124.028 287.976 123.977 287.93 123.93L286.087 122.087C286.029 122.029 285.964 121.979 285.894 121.937L283.737 120.643C283.582 120.549 283.404 120.5 283.223 120.5H282.618C282.239 120.5 281.893 120.714 281.723 121.053L281.605 121.289C281.536 121.428 281.5 121.581 281.5 121.736V123.264C281.5 123.419 281.536 123.572 281.605 123.711L282.453 125.405C282.484 125.468 282.522 125.528 282.566 125.583L283.658 126.948C283.997 127.372 283.696 128 283.153 128C283.052 128 282.953 128.023 282.863 128.068L282.342 128.329C282.132 128.434 282 128.648 282 128.882C282 129.223 282.277 129.5 282.618 129.5H283.901C283.967 129.5 284.032 129.507 284.097 129.519L286.5 130L289.276 130.925C289.423 130.974 289.557 131.057 289.667 131.167L290.773 132.273C290.921 132.421 291.018 132.611 291.053 132.816L291.07 132.922C291.221 133.827 290.176 134.441 289.459 133.867L289.083 133.566C289.028 133.522 288.968 133.484 288.905 133.453L287.402 132.701C287.146 132.573 286.848 132.561 286.583 132.667L284.975 133.31C284.676 133.429 284.454 133.685 284.376 133.996L284.262 134.452C284.121 135.017 283.528 135.343 282.975 135.159L282.024 134.841C281.472 134.657 280.879 134.983 280.738 135.548L280.5 136.5L280.056 137.609C279.821 138.198 279.021 138.281 278.669 137.753C278.56 137.59 278.395 137.474 278.204 137.426L277.049 137.137C276.708 137.052 276.348 137.152 276.1 137.4L274.714 138.786C274.574 138.926 274.479 139.103 274.44 139.297L274.019 141.403C274.006 141.467 274 141.533 274 141.599V142.719C274 143.178 273.688 143.578 273.242 143.689L272.898 143.775C272.391 143.902 271.872 143.617 271.707 143.121L271.5 142.5L271.262 141.548C271.121 140.983 270.528 140.657 269.975 140.841L269.724 140.925C269.577 140.974 269.443 141.057 269.333 141.167L268.5 142L266.106 143.915C266.036 143.971 265.958 144.018 265.875 144.053L262.849 145.35C262.624 145.447 262.372 145.457 262.139 145.38L260.05 144.684C259.71 144.57 259.456 144.283 259.386 143.931L259.033 142.168C259.011 142.057 259.008 141.943 259.024 141.83L259.477 138.661C259.492 138.554 259.524 138.451 259.572 138.355L260.37 136.76C260.455 136.59 260.586 136.448 260.75 136.35L263 135L267.328 132.596C267.441 132.532 267.542 132.448 267.623 132.346Z" fill="#C8B38D"/>
<path d="M145 199.5L146.389 199.222C146.979 199.104 147.332 198.496 147.142 197.925L147.022 197.567C147.007 197.523 146.989 197.479 146.968 197.436L146.649 196.798C146.552 196.605 146.395 196.448 146.202 196.351L144.645 195.573C144.549 195.525 144.461 195.461 144.385 195.385L143.196 194.196C143.068 194.068 142.977 193.907 142.933 193.731L142.73 192.92C142.606 192.424 142.086 192.138 141.6 192.3C141.242 192.419 140.847 192.296 140.62 191.994L139.8 190.9C139.611 190.648 139.315 190.5 139 190.5H138.833C138.617 190.5 138.406 190.57 138.233 190.7L136.767 191.8C136.593 191.93 136.383 192 136.167 192H134.583C134.528 192 134.473 192.005 134.418 192.014L131.757 192.457C131.588 192.485 131.43 192.556 131.296 192.663L129.336 194.231C129.201 194.339 129 194.243 129 194.069C129 194.024 128.985 193.981 128.958 193.945L127.543 192.057C127.514 192.019 127.483 191.983 127.45 191.95L127.156 191.657C126.647 191.148 126.888 190.278 127.587 190.103C127.849 190.038 128.069 189.861 128.19 189.619L128.223 189.553C128.393 189.214 128.739 189 129.118 189H130C130.315 189 130.611 188.852 130.8 188.6L131.499 187.668C131.789 187.281 132.314 187.157 132.746 187.373L133.789 187.894C133.928 187.964 134.081 188 134.236 188H135.697C135.895 188 136.088 187.942 136.252 187.832L137.132 187.245C137.366 187.089 137.656 187.039 137.929 187.107L141.141 187.91C141.373 187.968 141.617 187.941 141.831 187.835L142.817 187.342C143.22 187.14 143.439 186.693 143.35 186.251L143 184.5L142.105 181.816C142.037 181.611 142.037 181.389 142.105 181.184L142.33 180.511C142.431 180.206 142.717 180 143.038 180C143.321 180 143.58 180.16 143.706 180.413L144.968 182.936C144.989 182.979 145.007 183.023 145.022 183.067L146.465 187.396C146.488 187.465 146.519 187.532 146.556 187.594L147.709 189.514C147.889 189.816 148.215 190 148.566 190H150.031C150.328 190 150.61 189.868 150.8 189.64L152.891 187.13C152.963 187.044 153.02 186.946 153.059 186.841L154.368 183.351C154.453 183.125 154.453 182.875 154.368 182.649L153.041 179.11C153.014 179.037 152.995 178.961 152.985 178.883L152.523 175.185C152.508 175.063 152.515 174.939 152.545 174.819L152.84 173.638C152.934 173.263 153.271 173 153.658 173C154.123 173 154.5 173.377 154.5 173.842V175C154.5 175.383 154.805 176.407 154.978 176.933C154.992 176.978 155.01 177.021 155.032 177.064L155.815 178.63C155.933 178.867 156.141 179.047 156.393 179.131L157.107 179.369C157.359 179.453 157.633 179.433 157.87 179.315L158.329 179.086C158.919 178.791 159.627 179.137 159.757 179.784L159.961 180.804C159.987 180.933 159.987 181.067 159.961 181.196L159.663 182.684C159.568 183.157 159.825 183.63 160.272 183.809L160.687 183.975C161.308 184.223 161.473 185.027 161 185.5L158.5 187.5L156.557 188.957C156.519 188.986 156.483 189.017 156.45 189.05L154.587 190.913C154.529 190.971 154.479 191.035 154.437 191.106L153.116 193.307C153.039 193.434 152.936 193.543 152.813 193.625L150 195.5L148.531 196.602C148.209 196.843 148.063 197.254 148.161 197.644L148.421 198.683C148.472 198.889 148.588 199.073 148.751 199.209L151.5 201.5L152.804 202.804C152.932 202.932 153.023 203.093 153.067 203.269L153.311 204.243C153.422 204.688 153.822 205 154.281 205H155.086C155.351 205 155.605 204.895 155.793 204.707L157.286 203.214C157.425 203.074 157.603 202.979 157.797 202.941L159.382 202.624C159.76 202.548 160.147 202.696 160.378 203.004L161.102 203.969C161.343 204.291 161.754 204.437 162.144 204.339L163.332 204.042C163.443 204.014 163.549 203.967 163.644 203.904L166.248 202.168C166.412 202.058 166.605 202 166.803 202H168.697C169.237 202 169.449 202.7 169 203L166.69 204.848C166.565 204.948 166.418 205.016 166.261 205.048L164.131 205.474C164.044 205.491 163.96 205.52 163.88 205.56L162.187 206.406C162.064 206.468 161.954 206.555 161.866 206.661L159.8 209.14C159.61 209.368 159.328 209.5 159.031 209.5H157.071C157.024 209.5 156.976 209.503 156.93 209.51L153.57 209.99C153.523 209.997 153.476 210 153.429 210H150.803C150.605 210 150.412 210.058 150.248 210.168L149.917 210.389C149.481 210.679 149.481 211.321 149.917 211.611C150.243 211.829 150.341 212.264 150.139 212.601L149.063 214.394C149.021 214.465 148.971 214.529 148.913 214.587L147.07 216.43C147.023 216.477 146.972 216.518 146.917 216.555L144.746 218.003C144.37 218.253 143.859 218.078 143.716 217.65C143.597 217.291 143.209 217.097 142.85 217.217L142.474 217.342C142.176 217.441 141.941 217.676 141.842 217.974L141.042 220.373C141.014 220.457 140.975 220.537 140.926 220.611L140.531 221.203C140.238 221.643 139.643 221.762 139.203 221.469C138.801 221.201 138.662 220.676 138.878 220.244L138.927 220.145C138.975 220.049 139.039 219.961 139.115 219.885L140.333 218.667C140.443 218.557 140.525 218.423 140.575 218.276L140.949 217.154C140.983 217.052 141 216.945 141 216.838V213.236C141 213.081 141.036 212.928 141.105 212.789L141.424 212.152C141.688 211.623 141.303 211 140.711 211C140.573 211 140.437 211.036 140.316 211.105L137.81 212.537C137.354 212.798 136.774 212.661 136.482 212.223L136.214 211.822C136.076 211.615 135.866 211.467 135.625 211.406L134.119 211.03C134.04 211.01 133.959 211 133.877 211H132.118C131.739 211 131.393 210.786 131.223 210.447L130.719 209.437C130.581 209.161 130.323 208.965 130.02 208.904L128.375 208.575C128.133 208.527 127.918 208.391 127.771 208.194L126.871 206.994C126.643 206.691 126.607 206.286 126.776 205.947L127.33 204.84C127.439 204.621 127.625 204.45 127.853 204.359L130 203.5L132.674 202.609C132.885 202.538 133.067 202.4 133.19 202.215L133.343 201.986C133.683 201.476 134.404 201.404 134.838 201.838C134.944 201.944 135.074 202.025 135.217 202.073L136.854 202.618C137.326 202.775 137.775 202.326 137.618 201.854C137.546 201.637 137.602 201.398 137.764 201.236L138.286 200.714C138.425 200.574 138.603 200.479 138.797 200.441L141 200L145 199.5Z" fill="#C8B38D"/>
<path d="M177.284 200.428L176.353 200.118C176.132 200.044 175.889 200.083 175.703 200.223C175.157 200.632 175.446 201.5 176.128 201.5H177.11C177.519 201.5 177.785 201.07 177.602 200.704C177.537 200.573 177.422 200.474 177.284 200.428Z" fill="#C8B38D"/>
<path d="M85.4202 247.42L85.1146 247.115C85.0386 247.039 84.9754 246.951 84.9273 246.855L84.8222 246.645C84.6297 246.26 84.7052 245.795 85.0095 245.49L85.304 245.196C85.4322 245.068 85.5928 244.977 85.7686 244.933L86.2573 244.811C86.8885 244.653 87.4999 245.13 87.4999 245.781V246.465C87.4999 246.799 87.3328 247.111 87.0546 247.297L86.682 247.545C86.2854 247.81 85.7573 247.757 85.4202 247.42Z" fill="#C8B38D"/>
<path d="M103.109 252.914L103.049 252.824C102.746 252.369 102.869 251.754 103.324 251.45C103.717 251.189 104.24 251.24 104.574 251.574L104.909 251.909C104.969 251.969 105.019 252.039 105.057 252.115C105.285 252.569 105.033 253.117 104.54 253.24L104.184 253.329C103.774 253.432 103.343 253.265 103.109 252.914Z" fill="#C8B38D"/>
<path d="M116 253.167V251.718C116 251.289 116.274 250.909 116.681 250.773C117.151 250.616 117.664 250.829 117.886 251.272L118.223 251.947C118.393 252.286 118.739 252.5 119.118 252.5H120.417C120.472 252.5 120.527 252.495 120.582 252.486L122.906 252.099C123.271 252.038 123.573 251.78 123.69 251.429L123.778 251.166C123.91 250.768 124.283 250.5 124.702 250.5C125.166 250.5 125.565 250.828 125.656 251.283L125.869 252.343C125.948 252.741 125.78 253.147 125.443 253.371L124.945 253.703C124.667 253.889 124.5 254.201 124.5 254.535V255.667C124.5 255.883 124.57 256.094 124.7 256.267L125.858 257.811C125.951 257.935 126.072 258.036 126.211 258.106L126.598 258.299C126.854 258.427 127.152 258.439 127.417 258.333L129.147 257.641C129.374 257.55 129.56 257.379 129.67 257.16L129.723 257.053C129.893 256.714 130.239 256.5 130.618 256.5H132.877C132.959 256.5 133.04 256.51 133.119 256.53L134.242 256.811C134.688 256.922 135 257.322 135 257.781V258.667C135 258.883 134.93 259.094 134.8 259.267L133.5 261L133.055 261.668C132.748 262.127 132.872 262.748 133.332 263.055L134 263.5L136.296 265.337C136.43 265.444 136.588 265.515 136.757 265.543L138.862 265.894C139.25 265.958 139.64 265.789 139.859 265.462L140.31 264.785C140.433 264.6 140.614 264.462 140.825 264.391L140.975 264.341C141.528 264.157 142.12 264.483 142.262 265.048L142.473 265.893C142.491 265.964 142.516 266.033 142.549 266.098L143.394 267.789C143.464 267.928 143.5 268.081 143.5 268.236V269.764C143.5 269.919 143.464 270.072 143.394 270.211L143.371 270.258C143.156 270.688 142.665 270.904 142.202 270.772L139.589 270.026C139.53 270.009 139.472 269.986 139.417 269.958L136.5 268.5L132.5 267L128.606 266.027C128.536 266.009 128.467 265.984 128.402 265.951L125.5 264.5L122 262.5L119.898 261.659C119.644 261.558 119.442 261.356 119.341 261.102L118.5 259L118 257L117.551 255.654C117.517 255.552 117.467 255.456 117.403 255.37L116.2 253.767C116.07 253.594 116 253.383 116 253.167Z" fill="#C8B38D"/>
<path d="M167.41 267.482L165.326 267.065C165.12 267.024 164.945 266.89 164.851 266.702C164.666 266.332 164.852 265.883 165.245 265.752L165.846 265.551C165.948 265.517 166.055 265.5 166.162 265.5H166.901C166.967 265.5 167.032 265.506 167.097 265.519L169.403 265.981C169.467 265.993 169.533 266 169.599 266H171.382C171.761 266 172.107 266.214 172.276 266.553L172.394 266.789C172.695 267.391 172.328 268.112 171.664 268.223L170.276 268.454C170.095 268.484 169.91 268.464 169.74 268.396L167.585 267.534C167.528 267.511 167.47 267.494 167.41 267.482Z" fill="#C8B38D"/>
<path d="M171 291.5L171.678 292.855C171.87 293.24 171.795 293.705 171.49 294.01L171.01 294.49C170.705 294.795 170.63 295.26 170.822 295.645L171.315 296.63C171.433 296.867 171.453 297.141 171.369 297.393L171.228 297.816C171.092 298.225 170.71 298.5 170.279 298.5H169.123C169.041 298.5 168.96 298.51 168.88 298.53L167.119 298.97C167.04 298.99 166.959 299 166.877 299H165.535C165.201 299 164.888 298.833 164.703 298.555L164.172 297.758C164.06 297.59 163.899 297.46 163.712 297.385L161.575 296.53C161.525 296.51 161.473 296.494 161.421 296.482L157.107 295.524C157.036 295.508 156.963 295.5 156.89 295.5H155.123C155.041 295.5 154.96 295.49 154.88 295.47L153.549 295.137C153.208 295.052 152.848 295.152 152.6 295.4L151.115 296.885C151.039 296.961 150.975 297.049 150.927 297.145L149.723 299.553C149.583 299.834 149.583 300.166 149.723 300.447L151.44 303.88C151.48 303.96 151.509 304.044 151.526 304.131L151.839 305.696C151.933 306.164 152.343 306.5 152.82 306.5H154.167C154.383 306.5 154.593 306.43 154.767 306.3L156.327 305.129C156.441 305.044 156.572 304.984 156.71 304.953L160.88 304.027C160.96 304.009 161.037 303.982 161.11 303.945L164 302.5L164.411 302.226C164.959 301.86 165.705 302.117 165.914 302.742L166 303L166.419 305.094C166.471 305.354 166.624 305.583 166.845 305.73L169.37 307.413C169.456 307.471 169.551 307.514 169.65 307.543L172.926 308.479C172.975 308.493 173.025 308.503 173.076 308.51L176.047 308.881C176.58 308.947 177.07 308.582 177.158 308.053L177.486 306.082C177.495 306.027 177.5 305.972 177.5 305.917V304.781C177.5 304.322 177.812 303.922 178.257 303.811L178.864 303.659C179.25 303.562 179.542 303.246 179.608 302.853L179.987 300.577C179.996 300.526 180.008 300.475 180.025 300.426L180.891 297.826C180.962 297.615 181.1 297.433 181.285 297.31L182.413 296.558C182.471 296.519 182.532 296.487 182.597 296.461L184.569 295.672C184.842 295.563 185.054 295.339 185.147 295.06L185.916 292.752C185.971 292.587 185.982 292.41 185.948 292.24L185.616 290.58C185.548 290.243 185.252 290 184.908 290C184.655 290 184.42 290.133 184.29 290.35L183.063 292.394C183.021 292.465 182.971 292.529 182.913 292.587L181.645 293.855C181.549 293.951 181.435 294.026 181.309 294.076L179.488 294.805C179.183 294.927 178.836 294.891 178.562 294.708L177.721 294.147C177.576 294.051 177.459 293.918 177.381 293.762L176.645 292.291C176.551 292.102 176.519 291.888 176.553 291.679L176.987 289.077C176.996 289.026 177.008 288.975 177.025 288.926L177.925 286.224C177.974 286.077 178.057 285.943 178.167 285.833L181.621 282.378C181.858 282.142 181.961 281.803 181.895 281.475L181.539 279.694C181.513 279.566 181.463 279.444 181.39 279.335L180.748 278.372C180.59 278.135 180.339 277.977 180.057 277.937L177.41 277.559C177.147 277.521 176.881 277.589 176.669 277.749L175.101 278.924C175.034 278.974 174.973 279.033 174.921 279.099L173 281.5L171.793 282.707C171.605 282.895 171.351 283 171.086 283H170.118C169.739 283 169.393 283.214 169.223 283.553L168.56 284.88C168.52 284.96 168.491 285.044 168.474 285.131L168.091 287.043C168.033 287.333 168.106 287.633 168.291 287.864L170 290L171 291.5Z" fill="#C8B38D"/>
<path d="M99.9264 323.701L103.94 320.892C104.278 320.656 104.726 320.65 105.068 320.879L105.639 321.26C105.869 321.413 106.026 321.655 106.071 321.927L106.435 324.11C106.477 324.361 106.421 324.618 106.281 324.829L104.5 327.5L102.88 329.525C102.647 329.817 102.27 329.954 101.903 329.881L100.569 329.614C100.217 329.543 99.9298 329.29 99.8164 328.949L99.5512 328.154C99.5172 328.052 99.4999 327.945 99.4999 327.838V324.521C99.4999 324.194 99.6591 323.889 99.9264 323.701Z" fill="#C8B38D"/>
<path d="M135.049 321.902L135.419 321.162C135.633 320.733 136.259 320.778 136.411 321.233C136.467 321.4 136.437 321.584 136.331 321.726L135.834 322.388C135.567 322.744 135 322.555 135 322.109C135 322.037 135.017 321.966 135.049 321.902Z" fill="#C8B38D"/>
<path d="M132.042 310.867L130.349 312.221C130.127 312.399 129.84 312.473 129.559 312.427L127.502 312.084C127.187 312.031 126.915 311.831 126.772 311.545L126.206 310.411C126.075 310.15 125.837 309.959 125.554 309.888L124.48 309.62C124.178 309.544 123.857 309.614 123.613 309.809L121.5 311.5L120.183 312.487C119.827 312.754 119.317 312.634 119.118 312.236C119.042 312.084 119.023 311.909 119.064 311.744L120.376 306.496C120.454 306.185 120.676 305.929 120.975 305.81L122.371 305.251C122.751 305.1 123 304.732 123 304.323V303.914C123 303.649 122.895 303.395 122.707 303.207L122.437 302.937C122.169 302.669 121.773 302.576 121.414 302.695L120.5 303L118.3 303.88C118.105 303.958 117.89 303.973 117.686 303.922L116.106 303.527C116.036 303.509 115.967 303.484 115.902 303.451L114.645 302.822C114.26 302.63 113.795 302.705 113.49 303.01L112 304.5L110.435 306.456C110.174 306.783 109.736 306.912 109.338 306.779L104.296 305.099C104.103 305.034 103.934 304.913 103.812 304.75L102.5 303L100.797 300.445C100.611 300.167 100.299 300 99.9647 300H98.9141C98.6489 300 98.3945 300.105 98.207 300.293L93.2928 305.207C93.1052 305.395 92.8509 305.5 92.5857 305.5H87.6812C87.5613 305.5 87.4424 305.478 87.3301 305.436L83.649 304.056C83.5502 304.019 83.4579 303.966 83.3755 303.9L80.9999 302L80.516 301.516C80.0492 301.049 80.2368 300.254 80.8632 300.046C80.9537 300.015 81.0483 300 81.1438 300H85.723C85.9042 300 86.082 299.951 86.2374 299.857L88.1447 298.713C88.3721 298.577 88.536 298.355 88.6003 298.098L88.722 297.611C88.869 297.024 89.5009 296.7 90.0636 296.925L91.3211 297.428C91.4392 297.476 91.5652 297.5 91.6925 297.5H92.7638C92.9191 297.5 93.0722 297.464 93.211 297.394L96.6294 295.685C96.8666 295.567 97.047 295.359 97.1309 295.107L97.272 294.684C97.4081 294.275 97.7902 294 98.2206 294H98.6971C98.8945 294 99.0875 294.058 99.2518 294.168L100.413 294.942C100.471 294.981 100.532 295.013 100.597 295.039L103 296L105.629 297.315C105.867 297.433 106.141 297.453 106.393 297.369L108.316 296.728C108.724 296.592 109 296.21 109 295.779V294.599C109 294.533 108.993 294.467 108.98 294.403L108.52 292.102C108.507 292.034 108.486 291.968 108.459 291.904L107.341 289.295C107.179 288.919 107.456 288.5 107.865 288.5C107.954 288.5 108.041 288.52 108.119 288.562C108.491 288.758 109.142 289.142 109.5 289.5C110 290 111 290.5 111.5 290.5C111.879 290.5 112.888 291.099 113.418 291.446C113.473 291.482 113.523 291.523 113.57 291.57L114.074 292.074C114.328 292.329 114.717 292.392 115.038 292.231C115.321 292.089 115.5 291.8 115.5 291.484V290.123C115.5 290.041 115.49 289.96 115.47 289.881L115.03 288.119C115.01 288.04 115 287.959 115 287.877V286.236C115 286.081 115.036 285.928 115.105 285.789L115.229 285.541C115.573 284.854 116.531 284.795 116.999 285.404C117.187 285.649 117.365 285.865 117.5 286C118 286.5 119.5 288 120 288C120.341 288 121.193 288.486 121.746 288.835C121.913 288.941 122.105 289 122.303 289H124.264C124.419 289 124.572 288.964 124.711 288.894L126.262 288.119C126.418 288.041 126.551 287.924 126.647 287.779L127.208 286.938C127.391 286.664 127.427 286.317 127.305 286.012L126.61 284.276C126.538 284.096 126.52 283.899 126.558 283.708L126.839 282.304C126.933 281.836 127.343 281.5 127.82 281.5H131.086C131.351 281.5 131.605 281.605 131.793 281.793L133.273 283.273C133.421 283.421 133.61 283.518 133.816 283.553L136.263 283.961C136.412 283.985 136.563 283.937 136.67 283.83C136.852 283.648 137.148 283.648 137.33 283.83L138.5 285L141 287L143.5 288.5L145.169 289.335C145.383 289.441 145.627 289.468 145.859 289.41L146.864 289.159C147.245 289.064 147.646 289.218 147.864 289.546C148.192 290.038 147.984 290.706 147.435 290.926L146.074 291.47C146.025 291.49 145.977 291.514 145.931 291.541L143.816 292.811C143.612 292.933 143.371 292.979 143.137 292.939L140.5 292.5L137.179 291.551C137.061 291.517 136.937 291.506 136.814 291.517L131.86 291.967C131.627 291.988 131.409 292.091 131.244 292.256L130.145 293.355C130.049 293.451 129.935 293.526 129.809 293.576L127.5 294.5L127.16 294.67C126.768 294.866 126.549 295.295 126.621 295.729L126.947 297.684C126.981 297.889 127.079 298.079 127.226 298.227L128.385 299.385C128.461 299.461 128.549 299.525 128.645 299.573L130.044 300.272C130.331 300.415 130.531 300.687 130.584 301.002L130.972 303.336C130.991 303.444 130.991 303.556 130.972 303.664L130.606 305.862C130.541 306.25 130.71 306.64 131.038 306.859L131.639 307.26C131.869 307.413 132.026 307.655 132.071 307.927L132.403 309.921C132.463 310.279 132.325 310.64 132.042 310.867Z" fill="#C8B38D"/>
<path d="M80.8811 286.262L80.3947 285.29C80.1691 284.839 80.3148 284.29 80.7344 284.01L81.4999 283.5L82.9808 282.76C83.3018 282.599 83.6841 282.623 83.9827 282.822L84.8335 283.389C84.9433 283.462 85.0376 283.557 85.1108 283.666L86.9999 286.5L88.3574 288.762C88.4506 288.918 88.4999 289.095 88.4999 289.277V292C88.4999 292.223 88.6032 292.766 88.7236 293.319C88.8548 293.921 88.4029 294.5 87.7867 294.5C87.5997 294.5 87.4168 294.445 87.2612 294.341L84.687 292.625C84.5638 292.543 84.4604 292.434 84.3842 292.307L83.089 290.149C83.03 290.05 82.9884 289.943 82.9659 289.83L82.5811 287.906C82.5291 287.646 82.3759 287.417 82.1552 287.27L81.2208 286.647C81.076 286.551 80.9589 286.418 80.8811 286.262Z" fill="#C8B38D"/>
<path d="M193.5 237L193.561 236.816C193.777 236.169 194.564 235.923 195.11 236.332L195.423 236.568C195.768 236.826 195.908 237.275 195.772 237.684L194.695 240.914C194.576 241.273 194.669 241.669 194.937 241.937L195.534 242.534C195.816 242.817 195.904 243.241 195.755 243.612L195.209 244.978C195.079 245.302 195.128 245.67 195.337 245.95L196.401 247.368C196.465 247.454 196.5 247.558 196.5 247.665C196.5 247.867 196.377 248.049 196.189 248.124L194.179 248.928C194.061 248.976 193.935 249 193.807 249H193.5C192.948 249 192.5 248.552 192.5 248V247L192.015 242.638C192.005 242.546 192.008 242.454 192.023 242.363L192.482 239.607C192.494 239.536 192.513 239.466 192.54 239.4L193.5 237Z" fill="#C8B38D"/>
<path d="M172.636 242.364L175.382 239.618C175.723 239.277 176.277 239.277 176.618 239.618L176.655 239.655C176.867 239.867 177.179 239.94 177.462 239.846C177.973 239.676 178.5 240.056 178.5 240.594V241.734C178.5 241.908 178.454 242.079 178.368 242.231L176.5 245.5L175.636 247.66C175.548 247.88 175.541 248.123 175.616 248.348L175.906 249.22C175.967 249.403 176.08 249.564 176.23 249.684L178.375 251.4C178.458 251.466 178.55 251.519 178.649 251.556L182.168 252.876C182.383 252.956 182.618 252.96 182.836 252.888L183.846 252.551C183.948 252.517 184.055 252.5 184.162 252.5H184.779C185.21 252.5 185.592 252.775 185.728 253.184L185.916 253.748C185.971 253.913 185.982 254.09 185.948 254.26L185.519 256.403C185.506 256.467 185.5 256.533 185.5 256.599V258.877C185.5 258.959 185.51 259.04 185.53 259.119L185.97 260.881C185.99 260.96 186 261.041 186 261.123V261.78C186 262.411 185.423 262.885 184.804 262.761L183.59 262.518C183.53 262.506 183.471 262.489 183.415 262.466L181.475 261.69C181.176 261.571 180.954 261.315 180.876 261.004L180.5 259.5L179.575 256.724C179.525 256.577 179.443 256.443 179.333 256.333L177.615 254.615C177.539 254.539 177.451 254.475 177.355 254.427L174.645 253.073C174.549 253.025 174.461 252.961 174.385 252.885L173.05 251.55C173.017 251.517 172.986 251.481 172.957 251.443L171.576 249.602C171.525 249.534 171.467 249.473 171.401 249.421L170.008 248.306C169.497 247.898 169.51 247.118 170.033 246.726L170.786 246.16C170.926 246.055 171.036 245.915 171.105 245.754L172.424 242.677C172.474 242.56 172.546 242.454 172.636 242.364Z" fill="#C8B38D"/>
<path d="M166.544 237.389L166.951 236.371C167.214 235.715 166.73 235 166.023 235H164.277C164.096 235 163.918 235.049 163.762 235.143L161.605 236.437C161.535 236.479 161.471 236.529 161.413 236.587L159.595 238.405C159.532 238.468 159.478 238.539 159.433 238.616L157.632 241.769C157.545 241.921 157.5 242.092 157.5 242.266V244.323C157.5 244.732 157.749 245.1 158.128 245.251L159.9 245.96C159.966 245.987 160.036 246.006 160.107 246.018L162.679 246.447C162.888 246.481 163.102 246.449 163.291 246.355L164.762 245.619C164.918 245.541 165.051 245.424 165.147 245.279L165.832 244.252C165.941 244.088 166 243.895 166 243.697V241.071C166 241.024 166.003 240.976 166.01 240.93L166.483 237.619C166.494 237.54 166.515 237.463 166.544 237.389Z" fill="#C8B38D"/>
<path d="M214.118 443.382L214.136 443.364C214.561 442.939 215.277 443.055 215.546 443.592C215.786 444.071 215.545 444.652 215.037 444.821L215.012 444.829C214.698 444.934 214.352 444.852 214.118 444.618C213.777 444.277 213.777 443.723 214.118 443.382Z" fill="#C8B38D"/>
<path d="M219.485 432.617L219.02 436.338C219.007 436.444 218.965 436.544 218.898 436.628C218.498 437.127 219.083 437.81 219.638 437.493L220.331 437.096C220.442 437.033 220.567 437 220.694 437H221.319C221.937 437 222.407 436.445 222.306 435.836L222.03 434.181C222.01 434.061 222.012 433.939 222.036 433.82L222.441 431.797C222.479 431.603 222.574 431.426 222.714 431.286L224.207 429.793C224.395 429.605 224.5 429.351 224.5 429.086V427.14C224.5 427.047 224.487 426.955 224.461 426.865L223.614 423.898C223.541 423.643 223.572 423.37 223.701 423.138L224.904 420.972C224.967 420.858 225.052 420.757 225.154 420.676L225.575 420.339C225.84 420.128 226.194 420.065 226.516 420.172L226.999 420.333C227.313 420.438 227.554 420.69 227.645 421.007L228.5 424L228.894 425.969C228.96 426.3 229.189 426.576 229.503 426.701L231.309 427.424C231.435 427.474 231.549 427.549 231.645 427.645L232.707 428.707C232.895 428.895 233.149 429 233.414 429H234.5C235.052 429 235.5 428.552 235.5 428V427.623C235.5 427.541 235.51 427.46 235.53 427.381L235.98 425.578C235.993 425.526 236.011 425.475 236.032 425.426L236.824 423.583C236.936 423.323 236.932 423.027 236.814 422.77L236.268 421.582C236.104 421.227 235.75 421 235.359 421H234.82C234.343 421 233.933 420.664 233.839 420.196L233.544 418.72C233.515 418.575 233.519 418.425 233.554 418.282L233.921 416.817C233.972 416.611 234.088 416.427 234.251 416.291L236.49 414.425C236.764 414.197 236.782 413.783 236.53 413.53C236.51 413.51 236.491 413.488 236.474 413.466L235.213 411.784C235.075 411.6 234.878 411.47 234.655 411.414L233.269 411.067C233.093 411.023 232.932 410.932 232.804 410.804L232.293 410.293C232.105 410.105 232 409.851 232 409.586V408.236C232 408.081 232.036 407.928 232.105 407.789L233.381 405.238C233.459 405.082 233.576 404.949 233.721 404.853L235.62 403.586C236.098 403.268 236.21 402.614 235.866 402.154L235.2 401.267C235.07 401.094 235 400.883 235 400.667V398.968C235 398.672 235.132 398.39 235.36 398.2L237.426 396.478C237.766 396.194 238.253 396.169 238.621 396.414L239.417 396.945C239.472 396.982 239.523 397.023 239.57 397.07L241.293 398.793C241.683 399.183 242.316 399.183 242.707 398.793L244.448 397.052C244.772 396.728 245.276 396.666 245.669 396.902L247.355 397.913C247.451 397.971 247.537 398.044 247.608 398.13L249.837 400.805C249.944 400.933 250.017 401.086 250.05 401.249L250.189 401.944C250.333 402.666 251.181 402.989 251.769 402.548L252.179 402.24C252.385 402.086 252.523 401.858 252.566 401.605L252.935 399.39C252.977 399.139 252.921 398.882 252.781 398.671L252.067 397.601C252.022 397.534 251.97 397.472 251.91 397.418L250.325 395.967C250.118 395.778 250 395.51 250 395.229V389.754C250 389.308 249.704 388.915 249.275 388.793L246.829 388.094C246.615 388.033 246.388 388.045 246.182 388.127L244.245 388.902C244.084 388.966 243.943 389.071 243.835 389.206L242.227 391.216C242.08 391.399 241.873 391.525 241.643 391.571L239.979 391.904C239.677 391.965 239.419 392.161 239.281 392.437L239.149 392.702C239.052 392.895 238.895 393.052 238.702 393.149L236.291 394.355C236.102 394.449 235.888 394.481 235.679 394.447L233.502 394.084C233.187 394.031 232.915 393.831 232.772 393.545L232.105 392.211C232.036 392.072 232 391.919 232 391.764V389.083C232 389.028 232.004 388.973 232.013 388.918L232.486 386.082C232.495 386.027 232.5 385.972 232.5 385.917V383.374C232.5 382.867 231.887 382.613 231.528 382.971C231.509 382.99 231.489 383.008 231.468 383.024L229.557 384.457C229.519 384.486 229.483 384.517 229.45 384.55L227.055 386.945C227.018 386.981 226.984 387.021 226.954 387.063L223.088 392.378C223.03 392.459 222.959 392.53 222.88 392.59L221.181 393.864C221.062 393.953 220.924 394.015 220.777 394.044L218.67 394.466C218.557 394.488 218.45 394.53 218.351 394.589L216.379 395.772C216.138 395.917 215.968 396.158 215.913 396.434L215 401L214.623 404.39C214.557 404.982 215.021 405.5 215.617 405.5H217.901C217.967 405.5 218.032 405.507 218.097 405.519L220.121 405.924C220.365 405.973 220.618 405.929 220.831 405.801L222.514 404.791C222.816 404.611 223 404.285 223 403.934V403.083C223 403.028 223.004 402.973 223.013 402.918L223.361 400.836C223.441 400.353 223.858 400 224.347 400H224.5L227.969 400.434C228.301 400.475 228.59 400.68 228.739 400.979L229.394 402.289C229.464 402.428 229.5 402.581 229.5 402.736V406.853C229.5 406.951 229.486 407.047 229.458 407.141L228.051 411.83C228.017 411.942 227.964 412.048 227.893 412.142L225.187 415.75C225.065 415.913 224.896 416.034 224.704 416.099L220.669 417.444C220.557 417.481 220.453 417.538 220.361 417.611L218.157 419.374C218.053 419.457 217.967 419.56 217.904 419.677L216.232 422.747C216.086 423.017 216.071 423.339 216.192 423.62L216.946 425.376C216.982 425.458 217.028 425.535 217.084 425.606L218.819 427.774C218.937 427.922 219.011 428.1 219.032 428.288L219.487 432.383C219.495 432.461 219.495 432.539 219.485 432.617Z" fill="#C8B38D"/>
<path d="M230.797 365.559L232.134 365.827C232.629 365.926 233.12 365.641 233.279 365.163L233.449 364.654C233.483 364.552 233.5 364.445 233.5 364.338V362.833C233.5 362.617 233.43 362.406 233.3 362.233L232.142 360.689C232.048 360.565 231.928 360.464 231.789 360.394L230.645 359.822C230.26 359.63 229.795 359.705 229.49 360.01L228.793 360.707C228.605 360.895 228.5 361.149 228.5 361.414V363.086C228.5 363.351 228.605 363.605 228.793 363.793L230.286 365.286C230.425 365.426 230.603 365.521 230.797 365.559Z" fill="#C8B38D"/>
<path d="M225.5 370.681V371C225.5 371.824 224.559 372.294 223.9 371.8L223.63 371.597C223.544 371.533 223.448 371.483 223.346 371.449L220.5 370.5L216.5 369L215.517 368.754C214.963 368.616 214.406 368.969 214.294 369.528L213.661 372.696C213.567 373.164 213.157 373.5 212.68 373.5H210.623C210.541 373.5 210.46 373.49 210.38 373.47L208.914 373.103C208.649 373.037 208.423 372.866 208.288 372.629L206.677 369.809C206.562 369.609 206.521 369.376 206.558 369.149L206.915 367.008C206.968 366.689 206.864 366.364 206.636 366.136L206 365.5L204.111 363.139C204.038 363.047 203.981 362.943 203.943 362.831L203.025 360.074C203.008 360.025 202.996 359.974 202.987 359.923L202.034 354.205C202.012 354.07 202.017 353.931 202.05 353.798L202.473 352.107C202.491 352.036 202.516 351.967 202.549 351.902L204.394 348.211C204.464 348.072 204.5 347.919 204.5 347.764V346.333C204.5 346.117 204.43 345.906 204.3 345.733L203.248 344.331C203.089 344.119 202.852 343.979 202.59 343.941L199.754 343.536C199.587 343.512 199.429 343.447 199.295 343.346L198.163 342.497C197.89 342.292 197.5 342.487 197.5 342.828C197.5 342.938 197.456 343.044 197.379 343.121L195.707 344.793C195.316 345.183 194.683 345.183 194.293 344.793L194.115 344.615C194.039 344.539 193.975 344.451 193.927 344.355L193.072 342.645C193.024 342.549 192.992 342.446 192.977 342.339L192.5 339L192 335V332.799C192 332.607 191.924 332.424 191.789 332.289C191.609 332.11 191.349 332.038 191.104 332.099L189.844 332.414C189.622 332.47 189.425 332.6 189.287 332.784L188.175 334.266C188.061 334.419 187.905 334.536 187.726 334.603L184.492 335.816C184.184 335.931 183.952 336.19 183.873 336.509L183.536 337.856C183.512 337.951 183.474 338.043 183.423 338.128L182.413 339.812C182.171 340.214 181.684 340.395 181.239 340.246L180.997 340.166C180.686 340.062 180.343 340.117 180.081 340.314L179.038 341.097C178.713 341.341 178.272 341.363 177.923 341.154L176.773 340.464C176.334 340.2 175.766 340.312 175.459 340.721L174.654 341.795C174.553 341.93 174.487 342.087 174.464 342.254L174.084 344.914C174.032 345.275 174.181 345.636 174.474 345.855L175.6 346.7C175.852 346.889 176 347.185 176 347.5V348.965C176 349.299 175.833 349.611 175.555 349.797L174.721 350.353C174.576 350.449 174.459 350.582 174.381 350.738L174.105 351.289C174.036 351.428 174 351.581 174 351.736V354.723C174 354.904 173.951 355.082 173.857 355.238L172.727 357.121C172.583 357.362 172.342 357.531 172.066 357.587L170.477 357.905C170.176 357.965 169.864 357.883 169.63 357.683L166.742 355.207C166.584 355.073 166.473 354.892 166.423 354.691L165.549 351.196C165.517 351.067 165.459 350.945 165.379 350.838L162.597 347.13C162.533 347.044 162.483 346.948 162.449 346.846L161 342.5L159.669 338.952C159.562 338.666 159.591 338.348 159.748 338.086L160.749 336.417C160.908 336.154 161.178 335.978 161.483 335.94L164.736 335.533C164.909 335.511 165.073 335.445 165.212 335.341L166.387 334.46C166.749 334.189 166.883 333.708 166.715 333.288L166.115 331.788C166.04 331.601 165.91 331.44 165.741 331.328L163 329.5L161.001 327.901C160.696 327.657 160.561 327.257 160.656 326.877L161.406 323.875C161.466 323.634 161.615 323.424 161.822 323.286L164.311 321.626C164.435 321.543 164.576 321.489 164.724 321.468C165.953 321.294 168.124 321 168.5 321C168.873 321 170.145 321.29 170.856 321.464C170.951 321.488 171.043 321.526 171.127 321.577L173.105 322.763C173.356 322.914 173.659 322.947 173.936 322.855L174.846 322.551C174.948 322.517 175.055 322.5 175.162 322.5H177.779C178.21 322.5 178.592 322.225 178.728 321.816L178.94 321.179C178.98 321.061 179.041 320.951 179.121 320.855L181.5 318L182.946 316.072C182.982 316.024 183.013 315.973 183.04 315.919L183.553 314.894C183.8 314.4 184.4 314.2 184.894 314.447L185.355 314.678C185.74 314.87 186.205 314.795 186.51 314.49L186.6 314.4C186.848 314.152 186.948 313.792 186.863 313.451L186.5 312L186 308.5L185.742 307.47C185.608 306.934 185.934 306.391 186.47 306.257L186.653 306.212C187.138 306.09 187.638 306.346 187.824 306.81L188.5 308.5L189.394 310.289C189.464 310.428 189.5 310.581 189.5 310.736V314.338C189.5 314.445 189.483 314.552 189.449 314.654L189.37 314.89C189.176 315.473 189.548 316.091 190.154 316.192L191.548 316.425C191.835 316.472 192.128 316.393 192.353 316.209C193.428 315.331 195.142 314 195.5 314C195.856 314 197.296 313.207 198.195 312.68C198.393 312.565 198.543 312.382 198.621 312.167L200.381 307.327C200.458 307.115 200.461 306.884 200.39 306.669L200.075 305.724C200.025 305.577 200.011 305.42 200.033 305.266L200.977 298.661C200.992 298.554 201.024 298.451 201.072 298.355L202.965 294.57C202.988 294.523 203.015 294.479 203.045 294.436L204.892 291.85C205.168 291.465 205.755 291.511 205.967 291.935C205.989 291.978 206.016 292.019 206.047 292.056L208.338 294.806C208.444 294.933 208.581 295.032 208.735 295.094L210.247 295.699C210.686 295.874 211.188 295.718 211.45 295.325L211.609 295.086C211.843 294.735 212.274 294.568 212.684 294.671L213.242 294.811C213.688 294.922 214 295.322 214 295.781V299.377C214 299.459 213.99 299.54 213.97 299.619L213.553 301.288C213.518 301.428 213.453 301.558 213.364 301.67L211.5 304L209.69 306.715C209.567 306.9 209.385 307.038 209.174 307.108L207.184 307.772C206.775 307.908 206.5 308.29 206.5 308.721V308.838C206.5 308.945 206.483 309.052 206.449 309.154L205.608 311.674C205.538 311.885 205.399 312.067 205.214 312.19L204 313L201.553 314.224C201.214 314.393 201 314.739 201 315.118V320.338C201 320.445 200.983 320.552 200.949 320.654L200.316 322.551C200.141 323.075 200.425 323.642 200.949 323.816L202.316 324.272C202.724 324.408 203 324.79 203 325.221V325.838C203 325.945 202.983 326.052 202.949 326.154L202.551 327.346C202.517 327.448 202.5 327.555 202.5 327.662V328.68C202.5 329.157 202.836 329.567 203.304 329.661L204.475 329.895C204.803 329.961 205.142 329.858 205.378 329.622L206.804 328.196C206.932 328.068 207.093 327.977 207.269 327.933L210.102 327.225C210.608 327.098 211.13 327.382 211.271 327.885C211.393 328.324 211.5 328.774 211.5 329C211.5 329.364 210.393 329.48 209.692 329.497C209.565 329.501 209.439 329.524 209.321 329.572L207.628 330.249C207.249 330.4 207 330.768 207 331.177V333.838C207 333.945 207.017 334.052 207.051 334.154L207.943 336.831C207.981 336.943 208.038 337.047 208.111 337.139L209.843 339.304C209.946 339.433 210.079 339.534 210.23 339.599L213.044 340.805C213.331 340.928 213.544 341.178 213.62 341.481L213.805 342.222C213.919 342.676 213.702 343.149 213.282 343.359L212.437 343.781C212.161 343.919 211.964 344.177 211.904 344.48L211.547 346.262C211.516 346.418 211.523 346.58 211.566 346.733L212.5 350L213.394 352.684C213.463 352.889 213.463 353.111 213.394 353.316L213.051 354.346C213.017 354.448 213 354.555 213 354.662V355.586C213 355.851 213.105 356.105 213.293 356.293L214.757 357.757C214.915 357.915 215.12 358.015 215.34 358.043L218.659 358.457C218.88 358.485 219.085 358.585 219.242 358.743L221.034 360.534C221.316 360.817 221.404 361.241 221.255 361.612L220.894 362.515C220.68 363.05 220.96 363.653 221.506 363.835L222.979 364.326C223.303 364.435 223.55 364.701 223.633 365.033L224 366.5L225.436 370.33C225.478 370.442 225.5 370.561 225.5 370.681Z" fill="#C8B38D"/>
<path d="M214.512 291.744L215.684 291.158C215.872 291.064 216.101 291.101 216.25 291.25C216.399 291.399 216.436 291.627 216.342 291.816L215.756 292.988C215.599 293.302 215.278 293.5 214.927 293.5C214.415 293.5 214 293.085 214 292.573C214 292.222 214.198 291.901 214.512 291.744Z" fill="#C8B38D"/>
<path d="M230.612 327.336L231.925 331.276C231.974 331.423 232.057 331.557 232.167 331.667L233.304 332.804C233.432 332.932 233.593 333.023 233.769 333.067L235.5 333.5L237.775 334.258C238.203 334.401 238.673 334.24 238.924 333.864L239.267 333.349C239.402 333.146 239.376 332.876 239.203 332.703C238.909 332.409 239.07 331.905 239.481 331.836L241.043 331.576C241.33 331.528 241.577 331.346 241.707 331.086C241.882 330.736 241.813 330.313 241.537 330.037L241.293 329.793C241.105 329.605 241 329.351 241 329.086V328.362C241 328.128 241.082 327.902 241.232 327.722L243.5 325L243.945 324.332C244.252 323.873 244.127 323.252 243.668 322.945L241.785 321.69C241.6 321.567 241.462 321.385 241.391 321.174L241.228 320.684C241.092 320.275 241.232 319.826 241.576 319.568L242.55 318.837C242.829 318.628 243.198 318.579 243.522 318.709L245.5 319.5L248.202 320.272C248.665 320.404 249.156 320.188 249.371 319.758L250 318.5L251.443 316.094C251.481 316.032 251.512 315.965 251.535 315.896L252.304 313.586C252.424 313.227 252.331 312.831 252.063 312.563L251.696 312.196C251.568 312.068 251.477 311.907 251.433 311.731L250.645 308.579C250.57 308.282 250.24 308.13 249.966 308.267C249.715 308.392 249.411 308.277 249.306 308.017L248.5 306L248.111 304.446C248.041 304.163 247.85 303.925 247.589 303.794L246.26 303.13C246.09 303.045 245.948 302.913 245.85 302.75L244.902 301.169C244.665 300.776 244.728 300.272 245.052 299.948L246.355 298.645C246.451 298.549 246.526 298.435 246.576 298.309L247.359 296.353C247.45 296.126 247.621 295.939 247.84 295.83L250.089 294.706C250.35 294.575 250.541 294.337 250.611 294.054L251 292.5L251.33 290.519C251.423 289.961 251.959 289.592 252.513 289.703L253.695 289.939C253.894 289.979 254.099 289.957 254.285 289.878L257.39 288.547C257.463 288.516 257.532 288.476 257.596 288.428L261.1 285.8C261.352 285.611 261.5 285.315 261.5 285V283.618C261.5 283.239 261.286 282.893 260.947 282.724L260.598 282.549C260.533 282.516 260.464 282.491 260.393 282.473L258.696 282.049C258.566 282.017 258.445 281.959 258.338 281.879L256.734 280.675C256.581 280.561 256.464 280.405 256.397 280.226L255.064 276.67C255.021 276.557 255 276.439 255 276.319V273.566C255 273.215 254.816 272.889 254.514 272.709L253.273 271.964C252.834 271.7 252.266 271.812 251.959 272.221L251.043 273.443C251.014 273.481 250.983 273.517 250.95 273.55L249.906 274.594C249.445 275.054 248.676 274.96 248.341 274.402L247.563 273.106C247.521 273.035 247.471 272.971 247.413 272.913L245.315 270.815C244.885 270.385 244.173 270.436 243.808 270.922L243.248 271.669C243.089 271.881 243.021 272.147 243.058 272.41L243.483 275.384C243.494 275.461 243.496 275.539 243.489 275.616L243.019 280.792C243.006 280.929 243.022 281.068 243.066 281.198L243.977 283.933C243.992 283.977 244.004 284.023 244.013 284.07L244.945 289.197C244.981 289.394 244.956 289.598 244.875 289.782L243.086 293.806C243.029 293.934 243 294.072 243 294.212V298.086C243 298.351 242.895 298.605 242.707 298.793L241.206 300.294C241.071 300.429 240.901 300.522 240.716 300.563L236.861 301.42C236.628 301.472 236.421 301.605 236.278 301.796L233.7 305.233C233.57 305.406 233.5 305.617 233.5 305.833V310.877C233.5 310.959 233.49 311.04 233.47 311.119L232.5 315L231.589 317.277C231.53 317.424 231.507 317.582 231.522 317.739L231.979 322.772C231.993 322.922 231.972 323.073 231.92 323.214L230.624 326.669C230.544 326.883 230.539 327.119 230.612 327.336Z" fill="#C8B38D"/>
<path d="M179.781 404.5H180.382C180.761 404.5 181.107 404.714 181.276 405.053L181.553 405.606C181.8 406.1 181.602 406.712 181.076 406.881C180.86 406.951 180.653 407 180.5 407C180.274 407 179.824 406.893 179.385 406.771C178.882 406.63 178.598 406.109 178.724 405.602L178.811 405.257C178.922 404.812 179.322 404.5 179.781 404.5Z" fill="#C8B38D"/>
<path d="M380.435 297.695L379.695 299.914C379.576 300.273 379.669 300.669 379.937 300.937L380.786 301.786C380.925 301.925 381.021 302.103 381.059 302.297L381.5 304.5L382.5 308.5L384 313.5L384.882 317.027C384.951 317.305 385.201 317.5 385.488 317.5C385.785 317.5 386.042 317.71 386.1 318.002L386.48 319.903C386.493 319.967 386.5 320.033 386.5 320.099V327.819C386.5 327.939 386.521 328.058 386.564 328.17L387.737 331.298C387.893 331.714 387.756 332.183 387.4 332.45L386.4 333.2C386.148 333.389 386 333.685 386 334V334.807C386 334.935 386.024 335.061 386.071 335.179L386.839 337.097C386.936 337.341 386.879 337.621 386.693 337.807C386.569 337.931 386.5 338.098 386.5 338.273V339.838C386.5 339.945 386.517 340.052 386.551 340.154L386.684 340.551C386.858 341.075 387.425 341.358 387.949 341.184L388.432 341.022C388.477 341.008 388.521 340.989 388.563 340.968L389.262 340.619C389.418 340.541 389.551 340.424 389.647 340.279L391.414 337.629C391.471 337.544 391.541 337.467 391.621 337.403L394 335.5L394.716 334.784C394.898 334.602 395 334.356 395 334.099C395 333.732 394.793 333.396 394.464 333.232L393.081 332.54C393.027 332.513 392.976 332.482 392.928 332.446L391.137 331.103C391.046 331.035 390.968 330.952 390.905 330.857L390.392 330.089C390.157 329.736 390.17 329.273 390.424 328.934L391.364 327.681C391.453 327.562 391.515 327.424 391.544 327.278L391.919 325.406C391.971 325.146 391.917 324.876 391.77 324.655L391.391 324.086C391.156 323.735 390.726 323.568 390.316 323.671L389.778 323.805C389.323 323.919 388.851 323.702 388.641 323.283L388.245 322.491C388.092 322.185 388.106 321.822 388.282 321.529L389.301 319.832C389.429 319.618 389.473 319.365 389.424 319.121L389.071 317.357C389.025 317.126 388.899 316.919 388.715 316.772L386.875 315.3C386.638 315.11 386.5 314.823 386.5 314.519V313.583C386.5 313.528 386.504 313.473 386.513 313.418L386.986 310.582C386.995 310.527 387 310.472 387 310.417V309.054C387 308.709 387.177 308.389 387.47 308.206L391 306L392.055 305.297C392.333 305.111 392.5 304.799 392.5 304.465V304.118C392.5 303.739 392.714 303.393 393.053 303.224L393.098 303.201C393.354 303.073 393.652 303.061 393.917 303.167L395.463 303.785C395.795 303.918 396.031 304.218 396.082 304.572L396.47 307.289C396.49 307.428 396.48 307.57 396.441 307.705L395.711 310.262C395.586 310.698 395.77 311.162 396.158 311.395L397.227 312.036C397.666 312.3 398.234 312.188 398.541 311.778L399.424 310.602C399.474 310.534 399.533 310.473 399.599 310.421L401.917 308.566C401.972 308.522 402.032 308.484 402.095 308.453L403.355 307.822C403.74 307.63 404.205 307.705 404.51 308.01L406.207 309.707C406.395 309.895 406.5 310.149 406.5 310.414V313.5L406.95 318C406.981 318.315 407.16 318.596 407.43 318.758L409.332 319.899C409.443 319.966 409.54 320.053 409.617 320.157L412.5 324L414.37 327.273C414.455 327.422 414.577 327.546 414.724 327.634L416.934 328.96C416.978 328.987 417.02 329.017 417.059 329.049L422.722 333.768C422.901 333.918 423.128 334 423.362 334H424.779C425.21 334 425.592 333.725 425.728 333.316L425.845 332.964C425.943 332.671 425.9 332.35 425.729 332.093L425.055 331.082C425.018 331.028 424.976 330.977 424.93 330.93L423.4 329.4C423.152 329.152 423.052 328.792 423.137 328.451L423.445 327.218C423.481 327.075 423.485 326.925 423.456 326.78L423.026 324.631C423.009 324.544 422.98 324.46 422.94 324.38L422.119 322.738C422.041 322.582 421.924 322.449 421.779 322.353L420.806 321.704C420.608 321.572 420.464 321.375 420.399 321.147L419.571 318.249C419.524 318.086 419.437 317.937 419.317 317.817L417.57 316.07C417.523 316.023 417.481 315.972 417.445 315.918L416.822 314.983C416.623 314.684 416.599 314.302 416.759 313.981L417.493 312.513C417.762 311.975 418.448 311.79 418.898 312.189C419.228 312.484 419.5 312.792 419.5 313C419.5 313.4 420.5 313.5 421 313.5L424.078 313.885C424.597 313.95 425.079 313.602 425.182 313.089L425.456 311.72C425.485 311.575 425.481 311.425 425.445 311.282L425.094 309.875C425.033 309.634 424.885 309.424 424.678 309.286L423.664 308.61C423.556 308.537 423.434 308.487 423.306 308.461L421.375 308.075C421.133 308.027 420.918 307.891 420.771 307.694L419.543 306.057C419.514 306.019 419.483 305.983 419.45 305.95L418.07 304.57C418.023 304.523 417.972 304.482 417.917 304.445L416.818 303.712C416.613 303.575 416.365 303.519 416.122 303.554L413.2 303.971C413.068 303.99 412.941 304.035 412.827 304.104L410.5 305.5L407.831 306.835C407.617 306.941 407.373 306.968 407.141 306.91L405.5 306.5L403.772 305.809C403.325 305.63 403.068 305.157 403.163 304.684L403.5 303L403.975 301.576C404.213 300.861 403.604 300.147 402.858 300.253C401.941 300.383 400.974 300.5 400.5 300.5C400.218 300.5 400.01 300.458 399.859 300.397C399.534 300.265 399.316 299.889 399.014 299.709L397.396 298.738C397.145 298.587 396.972 298.333 396.924 298.044L396.513 295.582C396.504 295.527 396.5 295.472 396.5 295.417V294.035C396.5 293.701 396.667 293.389 396.945 293.203L397.888 292.574C397.962 292.525 398.043 292.486 398.127 292.458L400.942 291.519C400.981 291.506 401.02 291.498 401.06 291.495L401.496 291.455C402.075 291.402 402.078 290.558 401.5 290.5L399.131 290.026C399.044 290.009 398.96 289.98 398.88 289.94L397.081 289.04C397.027 289.013 396.976 288.982 396.928 288.946L395.486 287.865C395.187 287.641 395.038 287.269 395.1 286.9L395.415 285.008C395.468 284.689 395.364 284.364 395.136 284.136L393.966 282.966C393.683 282.683 393.596 282.259 393.745 281.888L394.248 280.629C394.4 280.249 394.768 280 395.177 280H398L402.5 279.5L407.145 279.036C407.374 279.013 407.589 278.911 407.752 278.748L408.563 277.937C408.831 277.669 408.924 277.273 408.804 276.914L408.439 275.816C408.223 275.169 408.705 274.5 409.387 274.5H410.838C410.945 274.5 411.052 274.483 411.154 274.449L413.121 273.793C413.617 273.628 413.902 273.109 413.775 272.602L413.5 271.5L412.028 267.086C412.009 267.029 411.996 266.97 411.987 266.911L411.571 263.995C411.526 263.683 411.631 263.369 411.853 263.146L413.264 261.736C413.417 261.583 413.616 261.483 413.83 261.453L419.981 260.574C420.306 260.528 420.587 260.325 420.734 260.031L421.394 258.711C421.464 258.572 421.5 258.419 421.5 258.264V254.851C421.5 254.624 421.423 254.403 421.281 254.226L419.8 252.375C419.61 252.138 419.323 252 419.019 252H416.87C416.631 252 416.4 252.085 416.219 252.241L413.093 254.92C413.031 254.973 412.963 255.018 412.89 255.055L411.063 255.968C411.021 255.989 410.977 256.008 410.932 256.022L409.024 256.659C408.472 256.843 407.879 256.517 407.738 255.952L407.519 255.075C407.506 255.025 407.498 254.974 407.493 254.923L407.121 250.834C407.061 250.168 407.658 249.632 408.313 249.763L408.975 249.895C409.303 249.961 409.642 249.858 409.878 249.622L411.941 247.559C411.98 247.52 412.022 247.484 412.067 247.452L415.235 245.189C415.407 245.066 415.536 244.892 415.603 244.691L416.334 242.497C416.438 242.186 416.382 241.843 416.186 241.581L415 240L413.069 237.587C413.023 237.529 412.971 237.477 412.913 237.431L410.875 235.8C410.638 235.61 410.5 235.323 410.5 235.019V230.303C410.5 230.105 410.558 229.912 410.668 229.748L412.428 227.107C412.476 227.036 412.532 226.971 412.596 226.914L416.587 223.367C416.844 223.139 416.966 222.794 416.909 222.455L416.579 220.476C416.529 220.175 416.345 219.914 416.078 219.766L412.294 217.663C412.103 217.557 411.883 217.517 411.667 217.548L408.689 217.973C408.564 217.991 408.444 218.032 408.334 218.095L405.401 219.771C405.147 219.916 404.969 220.166 404.915 220.455L403.557 227.694C403.52 227.893 403.544 228.099 403.626 228.284L405.383 232.237C405.459 232.409 405.486 232.599 405.459 232.785L405.02 235.862C405.007 235.954 404.981 236.043 404.943 236.127L403 240.5L401 247C400.5 249.333 399.5 254.1 399.5 254.5C399.5 254.894 399.177 260.808 399.008 263.855C399.003 263.952 398.983 264.047 398.949 264.139L397.029 269.42C397.01 269.473 396.986 269.525 396.958 269.574L395.235 272.588C395.086 272.849 394.828 273.029 394.532 273.078L392.39 273.435C392.139 273.477 391.882 273.422 391.671 273.281L389.832 272.055C389.372 271.748 388.756 271.878 388.398 272.298C388.078 272.672 387.729 273 387.5 273C387.176 273 386.613 273.872 386.233 274.558C386.081 274.833 386.083 275.166 386.223 275.447L387 277L389.804 281.206C389.931 281.396 389.989 281.624 389.968 281.852L389.5 287L388 295.5L387.302 298.291C387.147 298.911 386.457 299.229 385.885 298.942L385.426 298.713C385.156 298.578 384.962 298.329 384.897 298.035L384 294L383.035 288.212C383.012 288.072 382.959 287.939 382.881 287.821L380.086 283.629C380.029 283.544 379.959 283.467 379.879 283.403L377.838 281.771C377.646 281.617 377.368 281.632 377.194 281.806C377.073 281.926 377.025 282.101 377.066 282.266L378 286L379.954 291.374C379.985 291.458 380.004 291.545 380.011 291.633L380.483 297.295C380.494 297.43 380.478 297.566 380.435 297.695Z" fill="#C8B38D"/>
<path d="M431.3 296.375L432.495 297.869C432.789 298.237 433.301 298.349 433.723 298.138L435 297.5L437.917 295.555C437.972 295.518 438.023 295.477 438.07 295.43L439.1 294.4C439.348 294.152 439.448 293.791 439.363 293.451L439.03 292.119C439.01 292.04 439 291.959 439 291.877V290.414C439 290.149 439.105 289.895 439.293 289.707L440.355 288.645C440.451 288.549 440.565 288.474 440.69 288.424L442.583 287.667C442.848 287.561 443.146 287.573 443.402 287.701L443.66 287.83C443.879 287.939 444.051 288.125 444.139 288.354C444.49 289.256 445 290.65 445 291C445 291.357 443.938 292.006 443.236 292.378C443.082 292.46 442.949 292.576 442.853 292.721L442.256 293.615C442.094 293.859 442.046 294.163 442.127 294.445L442.945 297.307C442.981 297.434 443.043 297.553 443.125 297.657L444.848 299.81C444.948 299.935 445.016 300.082 445.048 300.239L445.319 301.596C445.421 302.107 445.114 302.61 444.613 302.753L442 303.5L439.153 303.975C439.051 303.991 438.948 303.993 438.847 303.978L436.899 303.7C436.216 303.602 435.642 304.209 435.777 304.886L435.919 305.594C435.971 305.854 435.917 306.124 435.77 306.345L435.058 307.413C435.019 307.471 434.987 307.532 434.961 307.597L434.299 309.253C434.124 309.689 433.669 309.945 433.206 309.868L431 309.5L427.807 308.588C427.607 308.531 427.43 308.413 427.301 308.251L425.685 306.231C425.564 306.08 425.49 305.898 425.47 305.706L425.039 301.388C425.014 301.138 425.083 300.889 425.234 300.688L426.5 299L428.7 296.36C428.89 296.132 429.171 296 429.468 296H430.519C430.823 296 431.11 296.138 431.3 296.375Z" fill="#C8B38D"/>
<path d="M442.569 318.446L439.161 318.02C439.054 318.007 438.946 318.011 438.841 318.032L437.304 318.339C436.836 318.433 436.5 318.843 436.5 319.32V320.877C436.5 320.959 436.49 321.04 436.47 321.119L436.078 322.686C436.027 322.89 436.042 323.105 436.12 323.3L436.859 325.147C436.95 325.374 437.121 325.561 437.34 325.67L438.789 326.394C438.928 326.464 439.081 326.5 439.236 326.5H440.086C440.351 326.5 440.605 326.395 440.793 326.207L443 324L446.415 320.097C446.471 320.032 446.519 319.961 446.557 319.885L447.223 318.553C447.393 318.214 447.356 317.809 447.129 317.506L446.631 316.842C446.288 316.384 445.631 316.307 445.191 316.674L443.333 318.222C443.121 318.399 442.844 318.48 442.569 318.446Z" fill="#C8B38D"/>
<path d="M445.368 324.808L444.163 327.619C444.059 327.863 444.055 328.138 444.154 328.385L444.818 330.045C444.933 330.332 445.174 330.55 445.471 330.635L448.5 331.5L449.602 331.775C450.108 331.902 450.627 331.617 450.793 331.121L450.949 330.654C450.983 330.552 451 330.445 451 330.338V328.177C451 327.768 451.249 327.4 451.628 327.249L452.878 326.749C453.253 326.599 453.5 326.235 453.5 325.83C453.5 325.616 453.569 325.407 453.698 325.236L455 323.5L455.102 323.346C455.515 322.728 455.132 321.892 454.394 321.799L452.225 321.528C452.077 321.51 451.926 321.525 451.785 321.572L449.094 322.469C449.031 322.49 448.971 322.516 448.914 322.549L445.791 324.334C445.602 324.442 445.454 324.608 445.368 324.808Z" fill="#C8B38D"/>
<path d="M299.75 276.313L298.4 275.3C298.148 275.111 298 274.815 298 274.5V272.414C298 272.149 297.895 271.895 297.707 271.707L296.55 270.55C296.517 270.517 296.486 270.481 296.457 270.443L295.054 268.572C295.018 268.524 294.986 268.473 294.96 268.419L294.276 267.053C294.107 266.714 294.143 266.309 294.371 266.006L295.421 264.606C295.473 264.536 295.516 264.459 295.549 264.377L296.428 262.179C296.476 262.061 296.5 261.935 296.5 261.807V260.566C296.5 260.215 296.316 259.889 296.014 259.709L291.985 257.291C291.684 257.111 291.5 256.785 291.5 256.434V255.5C291.5 255.185 291.352 254.889 291.1 254.7L289.606 253.579C289.535 253.527 289.459 253.483 289.377 253.451L287.19 252.576C287.065 252.526 286.951 252.451 286.855 252.355L285.378 250.878C285.142 250.642 285.039 250.303 285.105 249.975L285.264 249.179C285.387 248.566 286.036 248.214 286.616 248.446L287.889 248.955C287.963 248.985 288.04 249.006 288.119 249.017L290.722 249.389C291.178 249.454 291.62 249.199 291.792 248.77L292.452 247.12C292.484 247.041 292.531 246.969 292.591 246.909C292.961 246.539 293.594 246.756 293.659 247.275L294 250V250.965C294 251.299 294.167 251.611 294.445 251.797L295.093 252.229C295.35 252.4 295.671 252.443 295.964 252.345L298.23 251.59C298.406 251.531 298.563 251.424 298.682 251.281L301 248.5L301.707 247.793C301.895 247.605 302.149 247.5 302.414 247.5H303.838C303.945 247.5 304.052 247.517 304.154 247.551L304.258 247.586C304.883 247.794 305.139 248.541 304.774 249.089L304.611 249.334C304.538 249.443 304.443 249.538 304.333 249.611L301.587 251.442C301.529 251.481 301.467 251.513 301.403 251.539L299.772 252.191C299.325 252.37 299.068 252.843 299.163 253.316L299.419 254.594C299.471 254.854 299.624 255.083 299.845 255.23L300.645 255.763C300.872 255.915 301.15 255.967 301.416 255.907L305.5 255L308.858 254.58C309.199 254.538 309.5 254.803 309.5 255.147C309.5 255.363 309.378 255.561 309.184 255.658L306.711 256.894C306.572 256.964 306.419 257 306.264 257H302.123C302.041 257 301.96 257.01 301.88 257.03L300.532 257.367C300.201 257.45 299.934 257.696 299.826 258.021L299.145 260.064C299.053 260.341 299.086 260.644 299.237 260.894L300.5 263L301.553 265.106C301.8 265.6 301.599 266.2 301.105 266.447L300.426 266.787C300.156 266.922 299.962 267.171 299.897 267.465L299.024 271.393C299.008 271.464 299 271.537 299 271.61V273C299 273.552 299.448 274 300 274H301.732C302.156 274 302.5 274.344 302.5 274.768C302.5 274.919 302.455 275.067 302.371 275.193L301.763 276.106C301.604 276.344 301.604 276.656 301.763 276.894C302.078 277.367 301.739 278 301.171 278H301.057C300.724 278 300.429 277.787 300.324 277.472L300.099 276.796C300.034 276.603 299.913 276.435 299.75 276.313Z" fill="#806437"/>
<path d="M321.925 270.224L321.576 271.272C321.326 272.02 322.002 272.75 322.767 272.558L322.804 272.549C322.933 272.517 323.055 272.459 323.161 272.379L324.6 271.3C324.852 271.111 325 270.815 325 270.5V269.721C325 269.29 324.724 268.908 324.316 268.772L324.086 268.695C323.727 268.576 323.331 268.669 323.063 268.937L322.167 269.833C322.057 269.943 321.974 270.077 321.925 270.224Z" fill="#806437"/>
<path d="M310.695 286.503L312.548 285.18C313.048 284.823 313.748 284.997 314.023 285.547L314.493 286.487C314.762 287.025 315.442 287.205 315.942 286.872L316.171 286.719C316.382 286.578 316.639 286.523 316.89 286.565L319.352 286.975C319.45 286.992 319.545 287.023 319.634 287.067L320.843 287.672C321.22 287.86 321.401 288.297 321.268 288.697C321.12 289.14 320.64 289.38 320.197 289.232L319.752 289.084C319.587 289.029 319.41 289.018 319.239 289.052L317.09 289.482C317.03 289.494 316.971 289.511 316.915 289.534L314.745 290.402C314.584 290.466 314.443 290.571 314.335 290.706L313.168 292.165C312.856 292.555 312.245 292.49 312.022 292.043C312.007 292.015 311.995 291.985 311.984 291.954L311.022 289.067C311.007 289.023 310.989 288.979 310.968 288.936L310.382 287.764C310.162 287.324 310.295 286.789 310.695 286.503Z" fill="#806437"/>
<path d="M322.867 292.603L322.518 291.553C322.506 291.518 322.5 291.481 322.5 291.444C322.5 291.218 322.712 291.053 322.93 291.108L323.801 291.325C324.212 291.428 324.5 291.797 324.5 292.22V292.338C324.5 292.91 323.94 293.313 323.397 293.132C323.147 293.049 322.951 292.853 322.867 292.603Z" fill="#806437"/>
<path d="M293.669 243.598L294.402 243.159C294.959 242.824 295.054 242.054 294.594 241.594L294.293 241.293C294.105 241.105 294 240.851 294 240.586V239.414C294 239.149 294.105 238.895 294.293 238.707L294.833 238.167C294.943 238.057 295.077 237.974 295.224 237.925L297.73 237.09C297.906 237.031 298.063 236.924 298.182 236.781L300.45 234.059C300.483 234.02 300.513 233.978 300.54 233.934L301.444 232.426C301.744 231.926 301.555 231.278 301.034 231.017L300.063 230.532C300.021 230.511 299.977 230.492 299.932 230.478L297.497 229.666C297.186 229.562 296.843 229.617 296.581 229.814L295.284 230.787C295.1 230.925 294.969 231.122 294.914 231.344L293.645 236.418C293.556 236.776 293.276 237.056 292.918 237.146L291.875 237.406C291.634 237.467 291.423 237.615 291.285 237.822L290.668 238.748C290.558 238.912 290.5 239.105 290.5 239.303V241.086C290.5 241.351 290.605 241.605 290.793 241.793L292.448 243.448C292.772 243.772 293.276 243.834 293.669 243.598Z" fill="#806437"/>
<path d="M298.496 220.288L295.596 221.945C295.532 221.982 295.474 222.026 295.422 222.078L295.374 222.126C295.151 222.349 294.809 222.405 294.527 222.263C294.219 222.109 294.059 221.762 294.143 221.429L294.406 220.375C294.466 220.134 294.615 219.924 294.822 219.786L295.364 219.424C295.74 219.174 295.901 218.703 295.758 218.275L295.605 217.816C295.537 217.611 295.537 217.389 295.605 217.184L295.816 216.551C295.93 216.21 296.217 215.957 296.569 215.886L297.751 215.65C298.193 215.561 298.64 215.78 298.841 216.183L298.894 216.289C298.964 216.428 299 216.581 299 216.736V219.42C299 219.779 298.808 220.11 298.496 220.288Z" fill="#806437"/>
<path d="M294.57 205.07L295.707 206.207C295.895 206.395 296.149 206.5 296.414 206.5H296.649C296.876 206.5 297.096 206.423 297.274 206.281L299.125 204.8C299.362 204.61 299.5 204.323 299.5 204.019V202.914C299.5 202.649 299.395 202.395 299.207 202.207L297.615 200.615C297.539 200.539 297.451 200.475 297.355 200.427L297.019 200.26C296.698 200.099 296.316 200.123 296.017 200.322L295.166 200.889C295.056 200.962 294.962 201.057 294.889 201.166L293.555 203.168C293.248 203.627 293.372 204.248 293.832 204.555L294.417 204.945C294.472 204.982 294.523 205.023 294.57 205.07Z" fill="#806437"/>
<path d="M164.546 341.631L164.971 338.234C164.99 338.08 165.045 337.933 165.131 337.804L165.703 336.945C165.888 336.667 166.201 336.5 166.535 336.5H168.338C168.445 336.5 168.552 336.483 168.654 336.449L169.607 336.131C169.859 336.047 170.067 335.867 170.185 335.63L170.354 335.291C170.449 335.102 170.481 334.888 170.446 334.679L170.041 332.245C170.014 332.084 170.027 331.919 170.078 331.764L170.401 330.796C170.465 330.603 170.587 330.435 170.75 330.313L172.037 329.347C172.324 329.132 172.703 329.087 173.031 329.228L174.996 330.07C175.471 330.273 176 329.925 176 329.408C176 329.155 176.133 328.92 176.35 328.79L178.145 327.713C178.372 327.577 178.644 327.536 178.902 327.6L180.217 327.929C180.402 327.975 180.596 327.968 180.776 327.908L182.816 327.228C183.224 327.092 183.5 326.71 183.5 326.279V325.071C183.5 325.024 183.497 324.976 183.49 324.93L183.038 321.765C183.013 321.591 183.034 321.414 183.099 321.252L183.676 319.81C183.861 319.346 184.362 319.09 184.847 319.212L185.893 319.473C185.964 319.491 186.033 319.516 186.098 319.549L188.702 320.851C188.895 320.948 189.052 321.105 189.149 321.298L189.74 322.481C189.901 322.802 189.877 323.184 189.678 323.483L189 324.5L186.732 327.222C186.582 327.402 186.5 327.628 186.5 327.862V329.401C186.5 329.467 186.493 329.533 186.48 329.597L186.059 331.703C186.021 331.897 185.925 332.074 185.786 332.214L185.214 332.786C185.074 332.925 184.897 333.021 184.703 333.059L183.025 333.395C182.697 333.461 182.358 333.358 182.121 333.122L181.293 332.293C181.105 332.105 180.851 332 180.586 332H179.721C179.29 332 178.908 332.275 178.772 332.684L178.655 333.036C178.557 333.329 178.6 333.65 178.771 333.907L179.672 335.258C180.066 335.85 179.734 336.653 179.036 336.793L178.097 336.981C178.032 336.993 177.967 337 177.901 337H172.721C172.29 337 171.908 337.275 171.772 337.684L171.098 339.707C171.034 339.898 171.03 340.104 171.085 340.297L171.772 342.702C171.904 343.165 171.688 343.656 171.258 343.871L171.145 343.927C171.049 343.975 170.961 344.039 170.885 344.115L170.646 344.354C170.28 344.72 170.253 345.304 170.585 345.702L172.304 347.765C172.43 347.917 172.5 348.108 172.5 348.306C172.5 348.71 172.215 349.057 171.82 349.136L170.749 349.35C170.307 349.439 169.86 349.22 169.658 348.817L169.047 347.595C169.016 347.532 168.978 347.472 168.934 347.417L167 345L165.57 343.57C165.523 343.523 165.481 343.472 165.445 343.418L164.706 342.31C164.573 342.11 164.516 341.869 164.546 341.631Z" fill="#806437"/>
<path d="M195 332.5L195.693 334.925C195.852 335.484 196.48 335.76 197 335.5L198.178 334.714C198.385 334.576 198.533 334.366 198.594 334.125L198.97 332.619C198.99 332.54 199 332.459 199 332.377V330.221C199 329.79 198.724 329.408 198.316 329.272L197.796 329.099C197.603 329.034 197.434 328.913 197.312 328.75L196.174 327.232C196.061 327.081 195.904 326.968 195.724 326.908C195.122 326.707 194.5 327.156 194.5 327.791V328.929C194.5 328.976 194.503 329.023 194.51 329.07L195 332.5Z" fill="#806437"/>
<path d="M202.47 339.633L202.137 335.5V333.872C202.137 333.632 202.223 333.4 202.38 333.218L202.736 332.805C202.904 332.611 203.147 332.5 203.403 332.5C203.764 332.5 204.088 332.719 204.221 333.054L204.955 334.889C204.985 334.963 205.006 335.04 205.017 335.119L205.453 338.17C205.483 338.384 205.583 338.583 205.736 338.736L206 339L207.676 341.095C207.873 341.342 207.909 341.681 207.768 341.964C207.609 342.283 207.26 342.46 206.909 342.402L204.816 342.053C204.61 342.018 204.421 341.921 204.273 341.773L202.76 340.26C202.592 340.092 202.489 339.87 202.47 339.633Z" fill="#806437"/>
<path d="M205.353 355.06L205.274 354.823C205.117 354.351 205.33 353.835 205.776 353.612L205.789 353.606C205.928 353.536 206.081 353.5 206.236 353.5H207.5C207.815 353.5 208.111 353.352 208.3 353.1L208.626 352.666C208.995 352.173 209.766 352.298 209.961 352.882C209.987 352.96 210 353.042 210 353.124V354.586C210 354.851 209.895 355.105 209.707 355.293L209.58 355.42C209.242 355.757 209.19 356.285 209.455 356.682L209.945 357.418C209.981 357.472 210.023 357.523 210.07 357.57L210.574 358.074C210.828 358.329 210.891 358.717 210.731 359.038L210.692 359.116C210.574 359.351 210.333 359.5 210.07 359.5C209.739 359.5 209.453 359.266 209.388 358.941L209.096 357.48C209.035 357.177 208.838 356.919 208.562 356.781L208 356.5L205.931 355.672C205.657 355.563 205.446 355.339 205.353 355.06Z" fill="#806437"/>
<path d="M134.748 208.332L133.015 207.177C132.49 206.827 132.416 206.084 132.862 205.637L133.304 205.196C133.432 205.068 133.593 204.977 133.769 204.933L135.141 204.59C135.373 204.532 135.617 204.559 135.831 204.665L137.289 205.394C137.428 205.464 137.581 205.5 137.736 205.5H139.764C139.919 205.5 140.072 205.464 140.211 205.394L140.969 205.016C141.513 204.743 142.172 205.017 142.364 205.594L142.449 205.846C142.483 205.948 142.5 206.055 142.5 206.162V206.719C142.5 207.37 141.888 207.847 141.257 207.689L140.814 207.578C140.61 207.527 140.395 207.542 140.2 207.62L138.179 208.428C138.061 208.476 137.935 208.5 137.807 208.5H135.303C135.105 208.5 134.912 208.442 134.748 208.332Z" fill="#806437"/>
<path d="M149.5 206.779V206C149.5 205.176 150.441 204.706 151.1 205.2L152.076 205.932C152.7 206.4 152.572 207.371 151.848 207.661L151.34 207.864C151.12 207.952 150.877 207.959 150.652 207.884L150.184 207.728C149.775 207.592 149.5 207.21 149.5 206.779Z" fill="#806437"/>
<path d="M221.424 133.823L220.117 130.773C220.041 130.595 219.914 130.443 219.753 130.335L218.752 129.668C218.588 129.558 218.395 129.5 218.197 129.5H216.736C216.581 129.5 216.428 129.464 216.289 129.394L214.969 128.734C214.675 128.588 214.472 128.306 214.426 127.981L214 125L213.061 121.243C213.021 121.083 213.021 120.917 213.061 120.757L213.414 119.344C213.469 119.122 213.6 118.925 213.784 118.787L215.1 117.8C215.352 117.611 215.5 117.315 215.5 117V115.777C215.5 115.596 215.451 115.418 215.357 115.262L214.309 113.514C214.119 113.198 214.119 112.802 214.309 112.485L215.137 111.104C215.355 110.742 215.777 110.555 216.191 110.638L217.361 110.872C217.749 110.95 218.055 111.249 218.141 111.636L218.949 115.27C218.982 115.421 218.98 115.578 218.943 115.729L218.054 119.282C218.019 119.425 218.015 119.575 218.044 119.72L218.94 124.203C218.979 124.397 219.074 124.574 219.214 124.714L220.707 126.207C220.895 126.395 221 126.649 221 126.914V128.882C221 129.261 221.214 129.607 221.553 129.776L221.803 129.902C221.933 129.966 222.047 130.059 222.137 130.172L223.888 132.361C223.962 132.453 224.019 132.557 224.056 132.669L224.829 134.988C224.934 135.302 224.852 135.648 224.618 135.882C224.277 136.223 223.723 136.223 223.382 135.882L221.636 134.136C221.546 134.046 221.474 133.94 221.424 133.823Z" fill="#806437"/>
<path d="M273.43 132.57C273.476 132.523 273.527 132.482 273.582 132.445L274.779 131.647C274.924 131.551 275.041 131.418 275.119 131.262L275.94 129.62C275.98 129.54 276.009 129.456 276.026 129.369L276.376 127.621C276.452 127.242 276.739 126.94 277.114 126.847L278.176 126.581C278.385 126.529 278.606 126.553 278.799 126.649C279.201 126.851 279.394 127.317 279.252 127.744L278.584 129.748C278.529 129.913 278.518 130.09 278.552 130.26L278.912 132.062C278.968 132.341 278.902 132.63 278.732 132.858L277.8 134.1C277.611 134.352 277.315 134.5 277 134.5H275.862C275.628 134.5 275.401 134.582 275.222 134.732L272.559 136.951C272.52 136.983 272.478 137.013 272.434 137.04L270.34 138.296C270.128 138.423 269.866 138.433 269.645 138.323C269.289 138.145 269.144 137.711 269.323 137.354L269.927 136.145C269.975 136.049 270.039 135.961 270.115 135.885L273.43 132.57Z" fill="#806437"/>
<path d="M392 291.5L392.685 290.129C393.038 289.424 394.031 289.385 394.437 290.062L394.857 290.762C394.951 290.918 395 291.096 395 291.277V293.764C395 293.919 394.964 294.072 394.894 294.211L393.719 296.563C393.581 296.839 393.323 297.035 393.02 297.096L391.866 297.327C391.371 297.426 390.88 297.141 390.721 296.663L390.592 296.276C390.532 296.096 390.524 295.902 390.57 295.717L391 294L392 291.5Z" fill="#806437"/>
<path d="M170.618 301.5H172.586C172.851 301.5 173.105 301.605 173.293 301.793L173.707 302.207C173.895 302.395 174 302.649 174 302.914V303.779C174 304.21 173.724 304.592 173.316 304.728L172.654 304.949C172.552 304.983 172.445 305 172.338 305H170.914C170.649 305 170.395 304.895 170.207 304.707L169.51 304.01C169.205 303.705 169.13 303.24 169.322 302.855L169.723 302.053C169.893 301.714 170.239 301.5 170.618 301.5Z" fill="#806437"/>
<path d="M130.5 288.023V284.5C130.5 284.06 130.98 283.788 131.357 284.014L132.75 284.85C132.913 284.948 133.045 285.09 133.13 285.26L133.723 286.447C133.893 286.786 134.239 287 134.618 287H136.598C136.849 287 137.083 287.125 137.223 287.334C137.555 287.832 137.198 288.5 136.598 288.5H133.192C133.065 288.5 132.939 288.524 132.821 288.572L131.871 288.951C131.214 289.214 130.5 288.73 130.5 288.023Z" fill="#806437"/>
<path d="M120.816 293.553L122.164 293.777C122.828 293.888 123.195 294.609 122.894 295.211L122.776 295.447C122.607 295.786 122.261 296 121.882 296H118.618C117.875 296 117.391 295.218 117.723 294.553L118.379 293.241C118.685 292.63 119.498 292.498 119.981 292.981L120.273 293.273C120.421 293.421 120.61 293.518 120.816 293.553Z" fill="#806437"/>
<path d="M126.073 300.855L126.205 300.59C126.35 300.3 126.737 300.237 126.967 300.467C126.989 300.489 127.009 300.513 127.026 300.539L127.729 301.593C127.9 301.85 127.943 302.171 127.845 302.464L127.79 302.628C127.63 303.11 127.11 303.37 126.628 303.209C126.253 303.084 126 302.733 126 302.338V301.163C126 301.056 126.025 300.95 126.073 300.855Z" fill="#806437"/>
<path d="M125.37 291H127.365C127.454 291 127.541 291.021 127.62 291.06C128.012 291.256 128.046 291.802 127.682 292.045L127.306 292.296C127.111 292.426 126.87 292.468 126.643 292.411L125.24 292.06C125.088 292.022 124.959 291.919 124.889 291.779C124.71 291.421 124.97 291 125.37 291Z" fill="#806437"/>
</svg>
