<svg width="518" height="614" viewBox="0 0 518 614" fill="none" xmlns="http://www.w3.org/2000/svg">
<path d="M299.75 276.313L298.4 275.3C298.148 275.111 298 274.815 298 274.5V272.414C298 272.149 297.895 271.895 297.707 271.707L296.55 270.55C296.517 270.517 296.486 270.481 296.457 270.443L295.054 268.572C295.018 268.524 294.986 268.473 294.96 268.419L294.276 267.053C294.107 266.714 294.143 266.309 294.371 266.006L295.421 264.606C295.473 264.536 295.516 264.459 295.549 264.377L296.428 262.179C296.476 262.061 296.5 261.935 296.5 261.807V260.566C296.5 260.215 296.316 259.889 296.014 259.709L291.985 257.291C291.684 257.111 291.5 256.785 291.5 256.434V255.5C291.5 255.185 291.352 254.889 291.1 254.7L289.606 253.579C289.535 253.527 289.459 253.483 289.377 253.451L287.19 252.576C287.065 252.526 286.951 252.451 286.855 252.355L285.378 250.878C285.142 250.642 285.039 250.303 285.105 249.975L285.264 249.179C285.387 248.566 286.036 248.214 286.616 248.446L287.889 248.955C287.963 248.985 288.04 249.006 288.119 249.017L290.722 249.389C291.178 249.454 291.62 249.199 291.792 248.77L292.452 247.12C292.484 247.041 292.531 246.969 292.591 246.909C292.961 246.539 293.594 246.756 293.659 247.275L294 250V250.965C294 251.299 294.167 251.611 294.445 251.797L295.093 252.229C295.35 252.4 295.671 252.443 295.964 252.345L298.23 251.59C298.406 251.531 298.563 251.424 298.682 251.281L301 248.5L301.707 247.793C301.895 247.605 302.149 247.5 302.414 247.5H303.838C303.945 247.5 304.052 247.517 304.154 247.551L304.258 247.586C304.883 247.794 305.139 248.541 304.774 249.089L304.611 249.334C304.538 249.443 304.443 249.538 304.333 249.611L301.587 251.442C301.529 251.481 301.467 251.513 301.403 251.539L299.772 252.191C299.325 252.37 299.068 252.843 299.163 253.316L299.419 254.594C299.471 254.854 299.624 255.083 299.845 255.23L300.645 255.763C300.872 255.915 301.15 255.967 301.416 255.907L305.5 255L308.858 254.58C309.199 254.538 309.5 254.803 309.5 255.147C309.5 255.363 309.378 255.561 309.184 255.658L306.711 256.894C306.572 256.964 306.419 257 306.264 257H302.123C302.041 257 301.96 257.01 301.88 257.03L300.532 257.367C300.201 257.45 299.934 257.696 299.826 258.021L299.145 260.064C299.053 260.341 299.086 260.644 299.237 260.894L300.5 263L301.553 265.106C301.8 265.6 301.599 266.2 301.105 266.447L300.426 266.787C300.156 266.922 299.962 267.171 299.897 267.465L299.024 271.393C299.008 271.464 299 271.537 299 271.61V273C299 273.552 299.448 274 300 274H301.732C302.156 274 302.5 274.344 302.5 274.768C302.5 274.919 302.455 275.067 302.371 275.193L301.763 276.106C301.604 276.344 301.604 276.656 301.763 276.894C302.078 277.367 301.739 278 301.171 278H301.057C300.724 278 300.429 277.787 300.324 277.472L300.099 276.796C300.034 276.603 299.913 276.435 299.75 276.313Z" fill="#AF9668"/>
<path d="M321.925 270.224L321.576 271.272C321.326 272.02 322.002 272.75 322.767 272.558L322.804 272.549C322.933 272.517 323.055 272.459 323.161 272.379L324.6 271.3C324.852 271.111 325 270.815 325 270.5V269.721C325 269.29 324.724 268.908 324.316 268.772L324.086 268.695C323.727 268.576 323.331 268.669 323.063 268.937L322.167 269.833C322.057 269.943 321.974 270.077 321.925 270.224Z" fill="#AF9668"/>
<path d="M310.695 286.503L312.548 285.18C313.048 284.823 313.748 284.997 314.023 285.547L314.493 286.487C314.762 287.025 315.442 287.205 315.942 286.872L316.171 286.719C316.382 286.578 316.639 286.523 316.89 286.565L319.352 286.975C319.45 286.992 319.545 287.023 319.634 287.067L320.843 287.672C321.22 287.86 321.401 288.297 321.268 288.697C321.12 289.14 320.64 289.38 320.197 289.232L319.752 289.084C319.587 289.029 319.41 289.018 319.239 289.052L317.09 289.482C317.03 289.494 316.971 289.511 316.915 289.534L314.745 290.402C314.584 290.466 314.443 290.571 314.335 290.706L313.168 292.165C312.856 292.555 312.245 292.49 312.022 292.043C312.007 292.015 311.995 291.985 311.984 291.954L311.022 289.067C311.007 289.023 310.989 288.979 310.968 288.936L310.382 287.764C310.162 287.324 310.295 286.789 310.695 286.503Z" fill="#AF9668"/>
<path d="M322.867 292.603L322.518 291.553C322.506 291.518 322.5 291.481 322.5 291.444C322.5 291.218 322.712 291.053 322.93 291.108L323.801 291.325C324.212 291.428 324.5 291.797 324.5 292.22V292.338C324.5 292.91 323.94 293.313 323.397 293.132C323.147 293.049 322.951 292.853 322.867 292.603Z" fill="#AF9668"/>
<path d="M293.669 243.598L294.402 243.159C294.959 242.824 295.054 242.054 294.594 241.594L294.293 241.293C294.105 241.105 294 240.851 294 240.586V239.414C294 239.149 294.105 238.895 294.293 238.707L294.833 238.167C294.943 238.057 295.077 237.974 295.224 237.925L297.73 237.09C297.906 237.031 298.063 236.924 298.182 236.781L300.45 234.059C300.483 234.02 300.513 233.978 300.54 233.934L301.444 232.426C301.744 231.926 301.555 231.278 301.034 231.017L300.063 230.532C300.021 230.511 299.977 230.492 299.932 230.478L297.497 229.666C297.186 229.562 296.843 229.617 296.581 229.814L295.284 230.787C295.1 230.925 294.969 231.122 294.914 231.344L293.645 236.418C293.556 236.776 293.276 237.056 292.918 237.146L291.875 237.406C291.634 237.467 291.423 237.615 291.285 237.822L290.668 238.748C290.558 238.912 290.5 239.105 290.5 239.303V241.086C290.5 241.351 290.605 241.605 290.793 241.793L292.448 243.448C292.772 243.772 293.276 243.834 293.669 243.598Z" fill="#AF9668"/>
<path d="M298.496 220.288L295.596 221.945C295.532 221.982 295.474 222.026 295.422 222.078L295.374 222.126C295.151 222.349 294.809 222.405 294.527 222.263C294.219 222.109 294.059 221.762 294.143 221.429L294.406 220.375C294.466 220.134 294.615 219.924 294.822 219.786L295.364 219.424C295.74 219.174 295.901 218.703 295.758 218.275L295.605 217.816C295.537 217.611 295.537 217.389 295.605 217.184L295.816 216.551C295.93 216.21 296.217 215.957 296.569 215.886L297.751 215.65C298.193 215.561 298.64 215.78 298.841 216.183L298.894 216.289C298.964 216.428 299 216.581 299 216.736V219.42C299 219.779 298.808 220.11 298.496 220.288Z" fill="#AF9668"/>
<path d="M294.57 205.07L295.707 206.207C295.895 206.395 296.149 206.5 296.414 206.5H296.649C296.876 206.5 297.096 206.423 297.274 206.281L299.125 204.8C299.362 204.61 299.5 204.323 299.5 204.019V202.914C299.5 202.649 299.395 202.395 299.207 202.207L297.615 200.615C297.539 200.539 297.451 200.475 297.355 200.427L297.019 200.26C296.698 200.099 296.316 200.123 296.017 200.322L295.166 200.889C295.056 200.962 294.962 201.057 294.889 201.166L293.555 203.168C293.248 203.627 293.372 204.248 293.832 204.555L294.417 204.945C294.472 204.982 294.523 205.023 294.57 205.07Z" fill="#AF9668"/>
<path d="M164.546 341.631L164.971 338.234C164.99 338.08 165.045 337.933 165.131 337.804L165.703 336.945C165.888 336.667 166.201 336.5 166.535 336.5H168.338C168.445 336.5 168.552 336.483 168.654 336.449L169.607 336.131C169.859 336.047 170.067 335.867 170.185 335.63L170.354 335.291C170.449 335.102 170.481 334.888 170.446 334.679L170.041 332.245C170.014 332.084 170.027 331.919 170.078 331.764L170.401 330.796C170.465 330.603 170.587 330.435 170.75 330.313L172.037 329.347C172.324 329.132 172.703 329.087 173.031 329.228L174.996 330.07C175.471 330.273 176 329.925 176 329.408C176 329.155 176.133 328.92 176.35 328.79L178.145 327.713C178.372 327.577 178.644 327.536 178.902 327.6L180.217 327.929C180.402 327.975 180.596 327.968 180.776 327.908L182.816 327.228C183.224 327.092 183.5 326.71 183.5 326.279V325.071C183.5 325.024 183.497 324.976 183.49 324.93L183.038 321.765C183.013 321.591 183.034 321.414 183.099 321.252L183.676 319.81C183.861 319.346 184.362 319.09 184.847 319.212L185.893 319.473C185.964 319.491 186.033 319.516 186.098 319.549L188.702 320.851C188.895 320.948 189.052 321.105 189.149 321.298L189.74 322.481C189.901 322.802 189.877 323.184 189.678 323.483L189 324.5L186.732 327.222C186.582 327.402 186.5 327.628 186.5 327.862V329.401C186.5 329.467 186.493 329.533 186.48 329.597L186.059 331.703C186.021 331.897 185.925 332.074 185.786 332.214L185.214 332.786C185.074 332.925 184.897 333.021 184.703 333.059L183.025 333.395C182.697 333.461 182.358 333.358 182.121 333.122L181.293 332.293C181.105 332.105 180.851 332 180.586 332H179.721C179.29 332 178.908 332.275 178.772 332.684L178.655 333.036C178.557 333.329 178.6 333.65 178.771 333.907L179.672 335.258C180.066 335.85 179.734 336.653 179.036 336.793L178.097 336.981C178.032 336.993 177.967 337 177.901 337H172.721C172.29 337 171.908 337.275 171.772 337.684L171.098 339.707C171.034 339.898 171.03 340.104 171.085 340.297L171.772 342.702C171.904 343.165 171.688 343.656 171.258 343.871L171.145 343.927C171.049 343.975 170.961 344.039 170.885 344.115L170.646 344.354C170.28 344.72 170.253 345.304 170.585 345.702L172.304 347.765C172.43 347.917 172.5 348.108 172.5 348.306C172.5 348.71 172.215 349.057 171.82 349.136L170.749 349.35C170.307 349.439 169.86 349.22 169.658 348.817L169.047 347.595C169.016 347.532 168.978 347.472 168.934 347.417L167 345L165.57 343.57C165.523 343.523 165.481 343.472 165.445 343.418L164.706 342.31C164.573 342.11 164.516 341.869 164.546 341.631Z" fill="#AF9668"/>
<path d="M195 332.5L195.693 334.925C195.852 335.484 196.48 335.76 197 335.5L198.178 334.714C198.385 334.576 198.533 334.366 198.594 334.125L198.97 332.619C198.99 332.54 199 332.459 199 332.377V330.221C199 329.79 198.724 329.408 198.316 329.272L197.796 329.099C197.603 329.034 197.434 328.913 197.312 328.75L196.174 327.232C196.061 327.081 195.904 326.968 195.724 326.908C195.122 326.707 194.5 327.156 194.5 327.791V328.929C194.5 328.976 194.503 329.023 194.51 329.07L195 332.5Z" fill="#AF9668"/>
<path d="M202.47 339.633L202.137 335.5V333.872C202.137 333.632 202.223 333.4 202.38 333.218L202.736 332.805C202.904 332.611 203.147 332.5 203.403 332.5C203.764 332.5 204.088 332.719 204.221 333.054L204.955 334.889C204.985 334.963 205.006 335.04 205.017 335.119L205.453 338.17C205.483 338.384 205.583 338.583 205.736 338.736L206 339L207.676 341.095C207.873 341.342 207.909 341.681 207.768 341.964C207.609 342.283 207.26 342.46 206.909 342.402L204.816 342.053C204.61 342.018 204.421 341.921 204.273 341.773L202.76 340.26C202.592 340.092 202.489 339.87 202.47 339.633Z" fill="#AF9668"/>
<path d="M205.353 355.06L205.274 354.823C205.117 354.351 205.33 353.835 205.776 353.612L205.789 353.606C205.928 353.536 206.081 353.5 206.236 353.5H207.5C207.815 353.5 208.111 353.352 208.3 353.1L208.626 352.666C208.995 352.173 209.766 352.298 209.961 352.882C209.987 352.96 210 353.042 210 353.124V354.586C210 354.851 209.895 355.105 209.707 355.293L209.58 355.42C209.242 355.757 209.19 356.285 209.455 356.682L209.945 357.418C209.981 357.472 210.023 357.523 210.07 357.57L210.574 358.074C210.828 358.329 210.891 358.717 210.731 359.038L210.692 359.116C210.574 359.351 210.333 359.5 210.07 359.5C209.739 359.5 209.453 359.266 209.388 358.941L209.096 357.48C209.035 357.177 208.838 356.919 208.562 356.781L208 356.5L205.931 355.672C205.657 355.563 205.446 355.339 205.353 355.06Z" fill="#AF9668"/>
<path d="M134.748 208.332L133.015 207.177C132.49 206.827 132.416 206.084 132.862 205.637L133.304 205.196C133.432 205.068 133.593 204.977 133.769 204.933L135.141 204.59C135.373 204.532 135.617 204.559 135.831 204.665L137.289 205.394C137.428 205.464 137.581 205.5 137.736 205.5H139.764C139.919 205.5 140.072 205.464 140.211 205.394L140.969 205.016C141.513 204.743 142.172 205.017 142.364 205.594L142.449 205.846C142.483 205.948 142.5 206.055 142.5 206.162V206.719C142.5 207.37 141.888 207.847 141.257 207.689L140.814 207.578C140.61 207.527 140.395 207.542 140.2 207.62L138.179 208.428C138.061 208.476 137.935 208.5 137.807 208.5H135.303C135.105 208.5 134.912 208.442 134.748 208.332Z" fill="#AF9668"/>
<path d="M149.5 206.779V206C149.5 205.176 150.441 204.706 151.1 205.2L152.076 205.932C152.7 206.4 152.572 207.371 151.848 207.661L151.34 207.864C151.12 207.952 150.877 207.959 150.652 207.884L150.184 207.728C149.775 207.592 149.5 207.21 149.5 206.779Z" fill="#AF9668"/>
<path d="M221.424 133.823L220.117 130.773C220.041 130.595 219.914 130.443 219.753 130.335L218.752 129.668C218.588 129.558 218.395 129.5 218.197 129.5H216.736C216.581 129.5 216.428 129.464 216.289 129.394L214.969 128.734C214.675 128.588 214.472 128.306 214.426 127.981L214 125L213.061 121.243C213.021 121.083 213.021 120.917 213.061 120.757L213.414 119.344C213.469 119.122 213.6 118.925 213.784 118.787L215.1 117.8C215.352 117.611 215.5 117.315 215.5 117V115.777C215.5 115.596 215.451 115.418 215.357 115.262L214.309 113.514C214.119 113.198 214.119 112.802 214.309 112.485L215.137 111.104C215.355 110.742 215.777 110.555 216.191 110.638L217.361 110.872C217.749 110.95 218.055 111.249 218.141 111.636L218.949 115.27C218.982 115.421 218.98 115.578 218.943 115.729L218.054 119.282C218.019 119.425 218.015 119.575 218.044 119.72L218.94 124.203C218.979 124.397 219.074 124.574 219.214 124.714L220.707 126.207C220.895 126.395 221 126.649 221 126.914V128.882C221 129.261 221.214 129.607 221.553 129.776L221.803 129.902C221.933 129.966 222.047 130.059 222.137 130.172L223.888 132.361C223.962 132.453 224.019 132.557 224.056 132.669L224.829 134.988C224.934 135.302 224.852 135.648 224.618 135.882C224.277 136.223 223.723 136.223 223.382 135.882L221.636 134.136C221.546 134.046 221.474 133.94 221.424 133.823Z" fill="#AF9668"/>
<path d="M273.43 132.57C273.476 132.523 273.527 132.482 273.582 132.445L274.779 131.647C274.924 131.551 275.041 131.418 275.119 131.262L275.94 129.62C275.98 129.54 276.009 129.456 276.026 129.369L276.376 127.621C276.452 127.242 276.739 126.94 277.114 126.847L278.176 126.581C278.385 126.529 278.606 126.553 278.799 126.649C279.201 126.851 279.394 127.317 279.252 127.744L278.584 129.748C278.529 129.913 278.518 130.09 278.552 130.26L278.912 132.062C278.968 132.341 278.902 132.63 278.732 132.858L277.8 134.1C277.611 134.352 277.315 134.5 277 134.5H275.862C275.628 134.5 275.401 134.582 275.222 134.732L272.559 136.951C272.52 136.983 272.478 137.013 272.434 137.04L270.34 138.296C270.128 138.423 269.866 138.433 269.645 138.323C269.289 138.145 269.144 137.711 269.323 137.354L269.927 136.145C269.975 136.049 270.039 135.961 270.115 135.885L273.43 132.57Z" fill="#AF9668"/>
<path d="M392 291.5L392.685 290.129C393.038 289.424 394.031 289.385 394.437 290.062L394.857 290.762C394.951 290.918 395 291.096 395 291.277V293.764C395 293.919 394.964 294.072 394.894 294.211L393.719 296.563C393.581 296.839 393.323 297.035 393.02 297.096L391.866 297.327C391.371 297.426 390.88 297.141 390.721 296.663L390.592 296.276C390.532 296.096 390.524 295.902 390.57 295.717L391 294L392 291.5Z" fill="#AF9668"/>
<path d="M170.618 301.5H172.586C172.851 301.5 173.105 301.605 173.293 301.793L173.707 302.207C173.895 302.395 174 302.649 174 302.914V303.779C174 304.21 173.724 304.592 173.316 304.728L172.654 304.949C172.552 304.983 172.445 305 172.338 305H170.914C170.649 305 170.395 304.895 170.207 304.707L169.51 304.01C169.205 303.705 169.13 303.24 169.322 302.855L169.723 302.053C169.893 301.714 170.239 301.5 170.618 301.5Z" fill="#AF9668"/>
<path d="M130.5 288.023V284.5C130.5 284.06 130.98 283.788 131.357 284.014L132.75 284.85C132.913 284.948 133.045 285.09 133.13 285.26L133.723 286.447C133.893 286.786 134.239 287 134.618 287H136.598C136.849 287 137.083 287.125 137.223 287.334C137.555 287.832 137.198 288.5 136.598 288.5H133.192C133.065 288.5 132.939 288.524 132.821 288.572L131.871 288.951C131.214 289.214 130.5 288.73 130.5 288.023Z" fill="#AF9668"/>
<path d="M120.816 293.553L122.164 293.777C122.828 293.888 123.195 294.609 122.894 295.211L122.776 295.447C122.607 295.786 122.261 296 121.882 296H118.618C117.875 296 117.391 295.218 117.723 294.553L118.379 293.241C118.685 292.63 119.498 292.498 119.981 292.981L120.273 293.273C120.421 293.421 120.61 293.518 120.816 293.553Z" fill="#AF9668"/>
<path d="M126.073 300.855L126.205 300.59C126.35 300.3 126.737 300.237 126.967 300.467C126.989 300.489 127.009 300.513 127.026 300.539L127.729 301.593C127.9 301.85 127.943 302.171 127.845 302.464L127.79 302.628C127.63 303.11 127.11 303.37 126.628 303.209C126.253 303.084 126 302.733 126 302.338V301.163C126 301.056 126.025 300.95 126.073 300.855Z" fill="#AF9668"/>
<path d="M125.37 291H127.365C127.454 291 127.541 291.021 127.62 291.06C128.012 291.256 128.046 291.802 127.682 292.045L127.306 292.296C127.111 292.426 126.87 292.468 126.643 292.411L125.24 292.06C125.088 292.022 124.959 291.919 124.889 291.779C124.71 291.421 124.97 291 125.37 291Z" fill="#AF9668"/>
</svg>
