<svg width="518" height="614" viewBox="0 0 518 614" fill="none" xmlns="http://www.w3.org/2000/svg">
<path fill-rule="evenodd" clip-rule="evenodd" d="M356.816 133.733C356.924 134.183 357.326 134.5 357.788 134.5H380.363C380.454 134.5 380.544 134.512 380.632 134.537L392.674 137.909C392.885 137.968 393.11 137.956 393.315 137.874L412.66 130.136C412.879 130.048 413.123 130.041 413.347 130.116L425.979 134.326C426.303 134.435 426.55 134.701 426.633 135.033L428.76 143.541C428.893 144.072 429.429 144.398 429.962 144.271L438.62 142.21C439.12 142.091 439.628 142.369 439.796 142.855L447.767 165.828C447.906 166.23 448.286 166.5 448.711 166.5H458.167C458.383 166.5 458.593 166.43 458.767 166.3L463.873 162.47C464.241 162.194 464.75 162.205 465.106 162.496L469.724 166.274C469.902 166.42 470.126 166.5 470.357 166.5H481.558C481.839 166.5 482.108 166.619 482.297 166.827L486.74 171.714C486.907 171.898 487 172.138 487 172.387V187.102C487 187.357 487.098 187.604 487.274 187.789L495.927 196.924C495.976 196.974 496.018 197.03 496.055 197.09L501.271 205.626C501.417 205.864 501.456 206.152 501.38 206.421C500.013 211.222 497.5 220.335 497.5 221.5C497.5 222.679 492.675 228.136 490.135 230.856C490.045 230.952 489.976 231.064 489.93 231.187L487.29 238.226C487.122 238.675 487.296 239.181 487.705 239.431L495.898 244.438C495.966 244.479 496.028 244.528 496.084 244.584L506.29 254.79C506.427 254.927 506.521 255.101 506.561 255.291L510.5 274L512 292L513.959 308.161C513.985 308.381 513.939 308.603 513.825 308.793L501.596 329.338C501.533 329.445 501.489 329.563 501.469 329.685L499 344.5L496 367L493.534 386.233C493.512 386.408 493.444 386.574 493.337 386.714L487.061 394.921C487.02 394.973 486.975 395.022 486.925 395.066L479.174 401.848C479.059 401.948 478.969 402.073 478.91 402.213L475.04 411.406C475.013 411.468 474.98 411.528 474.942 411.584L469.798 419.067C469.611 419.338 469.303 419.5 468.974 419.5H444.894C444.641 419.5 444.397 419.596 444.212 419.769L437.158 426.353C437.054 426.45 436.972 426.568 436.917 426.699L432.196 438.029C432.073 438.325 432.097 438.66 432.266 438.932C434.201 442.058 437.973 447.737 439.5 448.5C441.066 449.283 446.91 454.281 449.815 456.837C449.938 456.945 450.03 457.08 450.087 457.233C451.106 459.976 452.889 465.223 452.5 466C452.105 466.791 449.397 472.857 448.047 475.894C448.015 475.966 447.977 476.029 447.93 476.092C445.737 478.958 441.291 484.709 440.5 485.5C439.5 486.5 435 491 434.5 492.5C434.11 493.669 430.212 497.145 428.161 498.865C428.054 498.955 427.931 499.02 427.797 499.058L421.479 500.863C421.178 500.949 420.934 501.172 420.821 501.466L416.067 513.827C416.022 513.941 416 514.063 416 514.186V528.338C416 528.445 416.017 528.552 416.051 528.654L419.423 538.769C419.473 538.921 419.487 539.083 419.462 539.241L418 548.5L416.075 556.198C416.026 556.395 416.037 556.601 416.11 556.79C417.167 559.541 419.456 564.614 421 565C422.567 565.392 427.141 567.415 429.364 568.437C429.455 568.479 429.537 568.533 429.611 568.6C431.31 570.143 434.5 573.326 434.5 574.5C434.5 575.571 433.171 577.786 432.293 579.078C432.112 579.345 431.808 579.5 431.485 579.5H418.474C418.174 579.5 417.89 579.635 417.7 579.867L413.954 584.445C413.683 584.777 413.653 585.244 413.877 585.609C414.753 587.037 416 589.154 416 589.5C416 589.88 419.604 589.989 421.681 589.999C421.889 590 422.091 590.065 422.261 590.186L424.461 591.758C424.989 592.135 425.024 592.908 424.531 593.331L422.122 595.396C422.041 595.465 421.95 595.521 421.852 595.561L413.817 598.869C413.612 598.954 413.441 599.103 413.33 599.296C411.937 601.722 409.267 606.232 408.5 607C407.71 607.79 400.678 609.946 397.132 610.962C397.043 610.988 396.953 611 396.86 611H385.599C385.533 611 385.467 610.993 385.403 610.981L375.875 609.075C375.633 609.027 375.418 608.891 375.271 608.694L368.405 599.54C368.16 599.214 367.742 599.069 367.347 599.174L360.5 601L346.869 604.408C346.631 604.467 346.38 604.437 346.163 604.323L336.536 599.281C336.206 599.108 336 598.767 336 598.395V591.237C336 590.6 335.413 590.126 334.79 590.259L329.896 591.308C329.389 591.417 328.883 591.12 328.73 590.624L327.149 585.484C327.055 585.18 326.824 584.939 326.524 584.835C322.543 583.459 315.152 581 314 581C312.8 581 309.833 582 308.5 582.5L299.152 584.837C298.758 584.936 298.462 585.263 298.405 585.666L297.031 595.285C297.01 595.427 297.021 595.571 297.061 595.708L299.299 603.318C299.419 603.726 299.268 604.166 298.921 604.413L292.761 608.814C292.591 608.935 292.388 609 292.179 609H281.951C281.418 609 280.978 608.583 280.962 608.051C280.857 604.546 281.041 599 282.5 599C283.916 599 285.437 594.037 286.23 590.701C286.377 590.083 285.903 589.5 285.267 589.5H267.634C267.247 589.5 266.895 589.276 266.73 588.926L263.507 582.077C263.242 581.515 263.548 580.851 264.15 580.698C266.189 580.179 269.182 579.5 270.5 579.5C271.875 579.5 275.074 578.761 277.11 578.236C277.614 578.106 277.926 577.606 277.83 577.094L276.588 570.468C276.532 570.172 276.346 569.917 276.081 569.773L264.628 563.569C264.543 563.523 264.465 563.465 264.397 563.397L257.5 556.5L251.332 548.908C251.124 548.653 250.804 548.516 250.476 548.542L238.582 549.493C238.527 549.498 238.473 549.507 238.42 549.52L222.731 553.442C222.579 553.48 222.42 553.482 222.267 553.447L200.884 548.587C200.637 548.531 200.421 548.384 200.278 548.174L192.373 536.548C192.147 536.216 191.744 536.051 191.35 536.13L177.434 538.913C177.157 538.968 176.917 539.138 176.772 539.379L175.072 542.214C174.64 542.933 173.568 542.833 173.276 542.047L169.134 530.861C169.048 530.629 169.051 530.373 169.143 530.142L171.624 523.941C171.831 523.423 171.574 522.836 171.054 522.636L159.524 518.201C159.198 518.076 158.831 518.13 158.555 518.342L152.731 522.823C152.58 522.938 152.465 523.095 152.4 523.273L150.591 528.248C150.531 528.413 150.429 528.559 150.295 528.672L138.15 538.874C138.051 538.957 137.969 539.059 137.908 539.174L133 548.5L130.216 554.531C130.08 554.825 129.811 555.035 129.493 555.095L122.51 556.404C122.19 556.464 121.92 556.676 121.784 556.972L111.547 579.397C111.516 579.465 111.477 579.53 111.431 579.59L95.6267 600.183C95.2835 600.63 94.6387 600.706 94.2017 600.35L81.5839 590.068C81.5281 590.023 81.4773 589.972 81.4325 589.915L67.9999 573L57.9999 556.5L49.4999 544L42.6335 530.758C42.5462 530.589 42.5086 530.4 42.525 530.211L43.4999 519C43.9999 514.833 44.9999 506.1 44.9999 504.5C44.9999 502.9 41.6665 486.833 39.9999 479L38.5524 462.596C38.5201 462.229 38.2887 461.909 37.9502 461.764L28.441 457.689C28.1622 457.57 27.9526 457.33 27.8714 457.038L23.1029 439.871C23.0366 439.632 23.0612 439.377 23.1719 439.156L28.9001 427.699C28.9658 427.568 29.0596 427.453 29.1749 427.362L38.1625 420.266C38.3779 420.096 38.5139 419.845 38.5388 419.572L39.988 403.631C39.9959 403.544 39.9924 403.456 39.9775 403.37L37.5463 389.269C37.5159 389.093 37.4387 388.928 37.3228 388.792L28.9999 379L19.5671 365.596C19.5225 365.532 19.4853 365.464 19.4565 365.391L14.5321 353.081C14.5107 353.027 14.4939 352.972 14.482 352.915L12.5717 343.841C12.5252 343.62 12.5549 343.39 12.6558 343.188L19.4273 329.645C19.4754 329.549 19.5076 329.446 19.5228 329.339L22.9708 305.203C22.99 305.069 22.9817 304.933 22.9465 304.802L19.4999 292L14.6152 279.788C14.5401 279.601 14.4098 279.44 14.2415 279.328L5.8092 273.706C5.60966 273.573 5.46457 273.373 5.40038 273.142L3.18264 265.158C3.07242 264.761 3.21671 264.337 3.54616 264.09L10.8048 258.646C10.933 258.55 11.0824 258.486 11.2404 258.46L28.9999 255.5L47.9225 252.014C47.974 252.005 48.0247 251.991 48.0741 251.974L56.4999 249L66.0499 246.271C66.5764 246.121 66.884 245.575 66.7399 245.047L65.5442 240.663C65.5149 240.555 65.4677 240.453 65.4047 240.361L58.9999 231L51.7862 221.863C51.6045 221.633 51.533 221.334 51.5905 221.047L53.9144 209.427C53.9689 209.155 54.1343 208.917 54.3709 208.772L60.3999 205.062C60.4663 205.021 60.5277 204.972 60.5829 204.917L77.9169 187.583C77.972 187.528 78.0334 187.479 78.0999 187.438L84.024 183.793C84.3197 183.611 84.4999 183.288 84.4999 182.941V179.773C84.4999 179.318 84.1926 178.92 83.7523 178.805L73.124 176.032C73.0416 176.011 72.9568 176 72.8716 176H66.0351C65.7007 176 65.3876 175.834 65.2087 175.551C64.1749 173.92 62.6361 171.091 62.9999 170C63.4999 168.5 66.9999 163.5 68.4999 162.5C69.6184 161.754 71.6928 158.344 72.7791 156.4C72.9208 156.146 72.9416 155.846 72.8415 155.573C71.8035 152.745 69.9999 147.279 69.9999 145C69.9999 142.747 71.7618 139.144 72.8051 137.332C72.9287 137.117 73.1311 136.96 73.3678 136.887C77.3021 135.671 84.4999 133.163 84.4999 132C84.4999 130.847 90.3486 127.139 93.6153 125.224C93.8606 125.08 94.033 124.841 94.091 124.562L96.4384 113.295C96.4785 113.103 96.4609 112.903 96.3879 112.72L91.5833 100.709C91.5284 100.571 91.4437 100.448 91.3353 100.347L85.1698 94.6221C84.7905 94.2699 84.7427 93.6864 85.0595 93.2771L96.4334 78.5859C96.4776 78.5288 96.5155 78.4671 96.5464 78.4018L105.391 59.7295C105.463 59.5789 105.57 59.4485 105.705 59.3502L118.236 50.1926C118.408 50.0674 118.614 50 118.826 50H130.157C130.379 50 130.595 49.9259 130.771 49.7893L134.071 47.2222C134.558 46.8437 135.268 46.9914 135.563 47.5327L140.716 56.9788C140.891 57.3001 141.228 57.5 141.594 57.5H146.732C147.185 57.5 147.581 57.1954 147.698 56.7577L149.402 50.366C149.465 50.1302 149.44 49.8812 149.332 49.6624C148.124 47.2184 146 42.6449 146 41.5C146 40.3302 153.602 35.2644 157.69 32.6941C157.891 32.5678 158.129 32.519 158.364 32.5535L174.87 34.9808C174.956 34.9936 175.041 34.9953 175.127 34.9852C182.339 34.1471 196.807 32.5 198 32.5C199.192 32.5 210.684 29.8676 216.39 28.5259C216.465 28.5083 216.539 28.5 216.616 28.5H231.838C231.945 28.5 232.052 28.4827 232.154 28.4487L240.316 25.7279C240.724 25.5918 241 25.2097 241 24.7792V18.8028C241 18.6053 240.941 18.4123 240.832 18.2481L238.168 14.2519C238.058 14.0877 238 13.8946 238 13.6972V9.60498C238 9.01336 238.511 8.55108 239.099 8.60995L247.927 9.49275C247.976 9.49757 248.022 9.50571 248.07 9.51718C249.431 9.8489 252.214 10.2863 253 9.49999C253.765 8.73534 258.853 5.16903 261.63 3.25447C261.866 3.09172 262.159 3.039 262.436 3.11286C263.898 3.50264 266.418 4.27843 267.5 4.99999C268.67 5.78018 270.253 11.0621 270.949 13.7967C270.983 13.9316 271.044 14.0567 271.129 14.1666L274.2 18.1139C274.389 18.3575 274.68 18.5 274.989 18.5H284.745C284.912 18.5 285.077 18.542 285.224 18.6221L290.168 21.319C290.382 21.4356 290.546 21.6263 290.629 21.8552L294.357 32.1084C294.449 32.359 294.636 32.5629 294.878 32.6746L307.361 38.4361C307.453 38.4784 307.551 38.5066 307.651 38.5197L318.487 39.9331C318.809 39.9751 319.089 40.1684 319.241 40.4546C320.829 43.4366 323.861 48.9811 325 50.5C326.5 52.5 330.5 61.5 331 63.5C331.5 65.5 331 74 331 76V88.5L327.692 99.842C327.576 100.239 327.716 100.665 328.044 100.916L335.811 106.855C335.935 106.95 336.08 107.015 336.234 107.044L343.764 108.456C343.919 108.485 344.065 108.55 344.19 108.646L350.287 113.336C350.426 113.444 350.535 113.586 350.602 113.748L353.97 121.928C353.99 121.976 354.006 122.025 354.018 122.076L356.816 133.733ZM309.2 340.64L308.02 339.224C307.548 338.657 307.83 337.792 308.546 337.614L310.771 337.057C310.921 337.02 311.079 337.018 311.23 337.051L315.216 337.937C315.401 337.978 315.571 338.071 315.706 338.206L316.356 338.856C316.881 339.382 316.67 340.277 315.965 340.512L314.654 340.949C314.552 340.983 314.445 341 314.338 341H309.968C309.671 341 309.39 340.868 309.2 340.64ZM297.933 342H300.18C300.657 342 301.067 341.664 301.161 341.196L301.419 339.906C301.471 339.646 301.417 339.376 301.27 339.155L297.69 333.785C297.567 333.6 297.385 333.462 297.174 333.391L292.261 331.754C291.816 331.605 291.328 331.786 291.087 332.188L290.388 333.352C290.158 333.736 290.211 334.225 290.516 334.551L297.204 341.684C297.393 341.886 297.657 342 297.933 342ZM279.958 273.281L280.423 272.932C280.768 272.674 280.908 272.225 280.772 271.816L280.072 269.715C280.024 269.574 280.009 269.423 280.028 269.275L280.467 265.763C280.489 265.591 280.465 265.415 280.398 265.255L278 259.5L275 250L270.546 240.598C270.515 240.533 270.492 240.465 270.476 240.395L269.034 234.149C269.011 234.05 269.004 233.949 269.012 233.847L269.48 227.752C269.493 227.587 269.465 227.421 269.397 227.269L267.535 223.079C267.512 223.027 267.493 222.972 267.479 222.916L266.762 220.048C266.621 219.482 266.028 219.157 265.475 219.341L264.484 219.672C263.947 219.851 263.665 220.441 263.864 220.972L264.796 223.455C264.922 223.792 264.858 224.171 264.628 224.447L262.732 226.722C262.582 226.902 262.5 227.128 262.5 227.362V232.807C262.5 232.935 262.524 233.061 262.571 233.179L263.462 235.407C263.487 235.469 263.506 235.533 263.518 235.599L264.5 241L266.442 247.797C266.48 247.931 266.546 248.055 266.635 248.162L268.846 250.816C268.947 250.937 269.076 251.032 269.221 251.095L272.203 252.373C272.396 252.455 272.558 252.597 272.666 252.777L273.87 254.784C273.955 254.926 274.004 255.086 274.012 255.251L274.487 265.223C274.495 265.404 274.553 265.58 274.654 265.73L275.5 267L278.464 272.928C278.743 273.486 279.459 273.655 279.958 273.281ZM342.084 239.508L342.29 240.743C342.397 241.383 343.075 241.754 343.671 241.498L348.525 239.418C349.054 239.191 349.283 238.566 349.026 238.051L346.659 233.318C346.556 233.112 346.527 232.878 346.577 232.653L347.476 228.607C347.492 228.536 347.5 228.463 347.5 228.39V224.535C347.5 224.201 347.667 223.889 347.945 223.703L350.5 222L362.137 212.787C362.367 212.605 362.666 212.533 362.954 212.591L364.633 212.927C364.869 212.974 365.115 212.934 365.325 212.814L368.368 211.075C368.456 211.025 368.55 210.989 368.648 210.967L372.667 210.074C372.883 210.026 373.077 209.908 373.218 209.738L375.119 207.457C375.354 207.175 375.724 207.045 376.083 207.117L377.594 207.419C377.854 207.471 378.124 207.417 378.345 207.27L385.248 202.668C385.412 202.558 385.605 202.5 385.803 202.5H387.479C387.806 202.5 388.111 202.659 388.298 202.927L391.201 207.073C391.388 207.341 391.694 207.5 392.021 207.5H394.403C394.77 207.5 395.109 207.298 395.283 206.974L401.903 194.679C401.967 194.561 402.054 194.457 402.159 194.373L404.413 192.569C404.471 192.523 404.523 192.471 404.569 192.413L406.281 190.274C406.423 190.097 406.5 189.876 406.5 189.649V185.015C406.5 184.692 406.656 184.389 406.919 184.201L409.831 182.121C409.942 182.041 410.036 181.939 410.107 181.822L414.437 174.606C414.479 174.535 414.529 174.471 414.587 174.413L416.804 172.196C416.932 172.068 417.023 171.907 417.067 171.731L418.189 167.243C418.347 166.611 417.87 166 417.219 166H413.535C413.201 166 412.888 166.167 412.703 166.445L408.074 173.39C408.025 173.463 407.966 173.529 407.9 173.587L404.067 176.941C404.022 176.98 403.981 177.023 403.944 177.069L402.17 179.287C402.059 179.426 401.987 179.593 401.961 179.77L401.558 182.59C401.521 182.852 401.381 183.089 401.169 183.249L397.9 185.7C397.648 185.889 397.5 186.185 397.5 186.5V189.5C397.5 189.815 397.352 190.111 397.1 190.3L393.9 192.7C393.648 192.889 393.5 193.185 393.5 193.5V195C393.5 195.315 393.352 195.611 393.1 195.8L389.938 198.171C389.665 198.376 389.307 198.427 388.987 198.308L385.895 197.148C385.642 197.053 385.362 197.065 385.118 197.18L377.098 200.954C377.033 200.984 376.964 201.008 376.894 201.024L366.072 203.484C366.024 203.495 365.977 203.509 365.931 203.527L357.359 206.86C357.128 206.95 356.938 207.123 356.827 207.345L355.776 209.447C355.607 209.786 355.261 210 354.882 210H352.297C352.103 210 351.913 210.056 351.751 210.162L341.11 217.102C340.746 217.339 340.577 217.784 340.692 218.203L341.899 222.631C341.964 222.869 341.939 223.122 341.829 223.342L341.605 223.789C341.536 223.928 341.5 224.081 341.5 224.236V233.219C341.5 233.678 341.812 234.078 342.257 234.189L342.886 234.346C343.261 234.44 343.548 234.742 343.624 235.121L343.895 236.475C343.96 236.803 343.858 237.142 343.621 237.378L342.364 238.636C342.135 238.864 342.031 239.189 342.084 239.508ZM419.624 293.067L424.517 288.75C425.208 288.14 424.776 287 423.855 287H422.64C422.547 287 422.455 286.987 422.365 286.961L421.019 286.577C420.209 286.346 420.03 285.279 420.72 284.796L423.023 283.184C423.533 282.827 423.597 282.097 423.157 281.657L422.266 280.766C422.094 280.594 421.991 280.367 421.975 280.125L421.511 273.168C421.504 273.057 421.515 272.945 421.544 272.838L422.946 267.697C422.982 267.567 423.043 267.446 423.126 267.34L430.5 258L434.407 252.628C434.469 252.543 434.543 252.469 434.628 252.407L439.857 248.604C439.951 248.535 440.057 248.484 440.17 248.451L449.702 245.728C450.165 245.596 450.656 245.812 450.871 246.242L451.605 247.71C451.831 248.161 451.685 248.71 451.265 248.99L450.621 249.419C450.541 249.473 450.453 249.514 450.361 249.543L444.259 251.42C444.089 251.472 443.937 251.569 443.816 251.7L438.5 257.5L433.559 263.924C433.52 263.974 433.485 264.029 433.457 264.086L429.583 271.833C429.528 271.943 429.494 272.063 429.482 272.186L428.5 282.5L428.03 288.135C428.011 288.371 427.908 288.592 427.741 288.759L421.853 294.646C421.631 294.869 421.316 294.974 421.005 294.929L420.145 294.806C419.3 294.686 418.985 293.631 419.624 293.067ZM110.696 362.794L109.875 361.563C109.649 361.223 109.652 360.779 109.883 360.442L115 353L120.5 346L124.882 341.131C124.96 341.044 125.052 340.972 125.155 340.917L132.178 337.172C132.386 337.061 132.548 336.88 132.636 336.661L133.328 334.931C133.437 334.657 133.661 334.446 133.94 334.353L138 333L141.493 331.447C142.033 331.208 142.661 331.485 142.848 332.045L143.726 334.677C143.883 335.149 143.669 335.665 143.224 335.888L142.237 336.381C142.082 336.459 141.949 336.576 141.853 336.721L141.055 337.918C141.018 337.972 140.976 338.023 140.93 338.07L139.104 339.896C139.035 339.965 138.956 340.023 138.871 340.07L132.61 343.441C132.537 343.48 132.469 343.528 132.408 343.585L114.076 360.43C114.026 360.476 113.98 360.528 113.939 360.585L112.342 362.821C111.935 363.39 111.084 363.377 110.696 362.794ZM73.7291 266.602L77.9303 268.469C77.9766 268.49 78.0244 268.507 78.0733 268.52L83.4999 270L92.0183 272.981C92.7087 273.223 93.4165 272.666 93.3437 271.938L93.0577 269.078C93.022 268.721 92.7971 268.41 92.4688 268.264L88.6114 266.55C88.5373 266.517 88.4675 266.475 88.4036 266.425L84.0888 263.069C84.0297 263.023 83.9656 262.984 83.8978 262.952L76.7268 259.606C76.5778 259.536 76.4483 259.431 76.3497 259.3L73.4999 255.5L70.7992 252.349C70.6092 252.128 70.3319 252 70.0399 252H65.8568C65.626 252 65.4023 252.08 65.2236 252.226L60.3666 256.2C60.1345 256.39 59.9999 256.674 59.9999 256.974V261.449C59.9999 262.021 60.4786 262.476 61.0498 262.448L69.4801 262.026C69.8059 262.01 70.1191 262.153 70.3194 262.411L73.3459 266.302C73.447 266.432 73.5786 266.535 73.7291 266.602ZM139.5 250L136.304 247.204C135.869 246.823 135.847 246.153 136.256 245.744L136.333 245.667C136.443 245.557 136.577 245.474 136.724 245.425L139.206 244.598C139.398 244.534 139.604 244.53 139.797 244.585L142.751 245.429C142.914 245.475 143.063 245.563 143.183 245.683L145.405 247.905C145.468 247.968 145.522 248.039 145.566 248.116L147.288 251.129C147.423 251.366 147.649 251.537 147.914 251.603L149.393 251.973C149.464 251.991 149.533 252.016 149.598 252.049L151.947 253.224C152.286 253.393 152.5 253.739 152.5 254.118V255C152.5 255.315 152.352 255.611 152.1 255.8L150.689 256.858C150.565 256.951 150.464 257.072 150.394 257.211L150.053 257.894C149.768 258.463 149.031 258.625 148.534 258.227L147.171 257.137C147.058 257.047 146.966 256.933 146.902 256.804L145.63 254.26C145.545 254.09 145.413 253.948 145.25 253.85L143 252.5L139.5 250ZM129.397 236.703L127.703 238.68C127.324 239.122 126.648 239.148 126.236 238.736L125.293 237.793C125.105 237.605 124.851 237.5 124.586 237.5H123.159C122.759 237.5 122.398 237.262 122.24 236.894L121 234L119.095 230.666C119.032 230.556 118.991 230.436 118.973 230.311L118.515 227.103C118.505 227.034 118.488 226.967 118.464 226.902L116.565 221.68C116.522 221.561 116.457 221.451 116.373 221.357L112.696 217.221C112.568 217.077 112.484 216.899 112.455 216.708L111.628 211.334C111.554 210.852 111.838 210.387 112.3 210.233L113.258 209.914C113.883 209.705 114.139 208.959 113.774 208.411L112.756 206.885C112.594 206.641 112.546 206.337 112.627 206.055L112.93 204.994C113.16 204.189 114.219 204.006 114.705 204.688L116 206.5L118.424 210.378C118.474 210.459 118.536 210.532 118.607 210.595L122.8 214.322C122.931 214.439 123.029 214.587 123.084 214.754L123.923 217.271C123.974 217.421 123.987 217.582 123.963 217.739L123.041 223.73C123.014 223.907 123.035 224.088 123.101 224.254L123.928 226.321C123.976 226.439 124 226.565 124 226.693V229C124 229.315 124.148 229.611 124.4 229.8L127.6 232.2C127.852 232.389 128 232.685 128 233V233.586C128 233.851 128.105 234.105 128.293 234.293L129.345 235.345C129.715 235.715 129.737 236.306 129.397 236.703ZM210.5 204.198V202.5C210.5 202.223 210.276 202 210 202H209.5C208.948 202 208.5 201.552 208.5 201V199.599C208.5 199.533 208.493 199.467 208.48 199.403L208.138 197.691C208.055 197.277 208.242 196.855 208.604 196.637L210.211 195.673C210.398 195.561 210.544 195.39 210.625 195.187L211.5 193L212.449 190.154C212.483 190.052 212.5 189.945 212.5 189.838V186.583C212.5 186.528 212.495 186.473 212.486 186.418L212 183.5L211.645 181.014C211.568 180.479 211.984 180 212.524 180C212.821 180 213.099 179.852 213.264 179.604L213.703 178.945C213.888 178.667 214.201 178.5 214.535 178.5H215.5C215.815 178.5 216.111 178.648 216.3 178.9L216.835 179.613C217.19 180.087 217.058 180.765 216.549 181.07L215.794 181.524C215.346 181.792 215.18 182.361 215.414 182.828L215.723 183.447C215.893 183.786 216.239 184 216.618 184H217.401C217.467 184 217.532 183.993 217.597 183.981L218.804 183.739C219.423 183.615 220 184.089 220 184.72V187.197C220 187.395 220.058 187.588 220.168 187.752L220.703 188.555C220.888 188.833 221.201 189 221.535 189H222.586C222.851 189 223.105 189.105 223.293 189.293L223.99 189.99C224.295 190.295 224.37 190.76 224.178 191.145L223.674 192.152C223.562 192.376 223.538 192.633 223.607 192.874L224.293 195.276C224.406 195.671 224.825 195.892 225.214 195.762C225.629 195.624 226.071 195.884 226.15 196.315L226.451 197.945C226.483 198.118 226.469 198.297 226.409 198.464L225.67 200.526C225.563 200.824 225.603 201.155 225.779 201.419L226.27 202.155C226.417 202.376 226.471 202.646 226.419 202.906L225.581 207.094C225.529 207.354 225.376 207.583 225.155 207.73L224.322 208.286C224.115 208.424 223.966 208.634 223.906 208.875L223.62 210.02C223.544 210.322 223.614 210.643 223.809 210.887L225.007 212.384C225.296 212.745 225.3 213.258 225.016 213.623L222.571 216.766C222.249 217.18 221.662 217.275 221.226 216.984L221.121 216.914C220.753 216.669 220.266 216.694 219.926 216.978L217.718 218.818C217.576 218.937 217.469 219.093 217.41 219.27L216.728 221.316C216.592 221.725 216.21 222 215.779 222H215.617C215.021 222 214.557 221.482 214.623 220.89L214.887 218.518C214.936 218.079 214.479 217.761 214.084 217.958C213.658 218.171 213.178 217.786 213.294 217.324L213.315 217.241C213.409 216.865 213.124 216.5 212.736 216.5H212.031C211.507 216.5 211.123 216.008 211.25 215.5C211.377 214.992 210.993 214.5 210.469 214.5H210.377C209.892 214.5 209.5 214.107 209.5 213.623V208C209.5 207.685 209.648 207.389 209.9 207.2L210.743 206.568C211.168 206.249 211.27 205.654 210.975 205.213L210.668 204.752C210.558 204.588 210.5 204.395 210.5 204.198ZM186.353 148.608L184.111 148.982C184.039 148.994 183.972 149.028 183.921 149.079C183.732 149.268 183.41 149.185 183.336 148.928L182.5 146L181.06 141.679C181.02 141.561 180.959 141.451 180.879 141.355L178.5 138.5L173.584 130.634C173.528 130.545 173.487 130.448 173.462 130.347L172.519 126.578C172.506 126.526 172.489 126.475 172.468 126.426L171.03 123.071C171.01 123.024 170.986 122.978 170.959 122.935L168.571 119.114C168.524 119.038 168.487 118.957 168.461 118.871L167 114L166.077 110.309C166.027 110.108 165.915 109.927 165.758 109.793L162.572 107.062C162.524 107.021 162.472 106.984 162.417 106.953L159.504 105.288C159.192 105.11 159 104.779 159 104.42V102.083C159 102.028 159.004 101.973 159.013 101.918L159.476 99.1438C159.492 99.0484 159.494 98.9513 159.482 98.8553L159.11 95.8792C159.047 95.3774 159.369 94.9077 159.86 94.7851L160.798 94.5504C160.931 94.5171 161.07 94.5116 161.205 94.5342L163.498 94.9163C163.813 94.9689 164.085 95.1693 164.228 95.4554L166.427 99.8548C166.475 99.951 166.539 100.039 166.615 100.115L169.207 102.707C169.395 102.895 169.5 103.149 169.5 103.414V105.586C169.5 105.851 169.605 106.105 169.793 106.293L170.654 107.154C170.872 107.372 170.977 107.679 170.939 107.985L170.623 110.515C170.57 110.936 171.008 111.246 171.388 111.056C171.461 111.019 171.543 111 171.625 111H173.779C174.21 111 174.592 111.275 174.728 111.684L175.334 113.503C175.438 113.814 175.382 114.157 175.186 114.419L174.394 115.474C174.155 115.793 174.128 116.224 174.326 116.57L176 119.5L176.597 120.695C176.826 121.152 177.364 121.364 177.843 121.184L179.899 120.413C180.476 120.196 181.11 120.549 181.23 121.153L181.383 121.917C181.455 122.276 181.324 122.646 181.043 122.881L179.19 124.425C178.798 124.752 178.715 125.322 178.998 125.748L179.203 126.055C179.388 126.333 179.701 126.5 180.035 126.5H181.34C181.741 126.5 182.102 126.738 182.26 127.106L183.5 130L185.948 135.386C185.983 135.462 186.026 135.533 186.078 135.597L189.227 139.534C189.625 140.031 189.463 140.768 188.893 141.053L188.187 141.406C188.064 141.468 187.954 141.555 187.866 141.661L186.702 143.058C186.224 143.631 186.632 144.5 187.377 144.5C188.16 144.5 188.553 145.447 187.999 146.001L187.696 146.304C187.568 146.432 187.477 146.593 187.433 146.769L187.159 147.864C187.062 148.25 186.746 148.542 186.353 148.608ZM336.975 502.72L334.916 520.841C334.801 521.854 336.098 522.37 336.709 521.554L338.85 518.699C338.949 518.568 339.013 518.415 339.038 518.254L341.488 502.577C341.496 502.526 341.5 502.474 341.5 502.422V491.579C341.5 491.527 341.504 491.474 341.512 491.421L343.488 479.077C343.496 479.026 343.508 478.975 343.524 478.926L349.417 460.755C349.471 460.588 349.48 460.409 349.444 460.237L348.076 453.853C348.027 453.625 348.059 453.387 348.168 453.18L353.342 443.302C353.444 443.106 353.479 442.882 353.441 442.664L352.085 434.983C352.031 434.678 352.122 434.366 352.33 434.137L356.791 429.23C356.927 429.08 357.015 428.893 357.042 428.692L358.482 418.129C358.494 418.044 358.494 417.956 358.484 417.87L357.042 406.34C357.015 406.12 356.915 405.915 356.757 405.757L352 401L343.862 391.905C343.636 391.653 343.554 391.302 343.643 390.975L344.899 386.369C344.964 386.131 344.939 385.878 344.829 385.658L341.6 379.201C341.534 379.068 341.44 378.953 341.324 378.861L334.676 373.639C334.56 373.547 334.466 373.431 334.4 373.299L331.223 366.947C330.891 366.282 329.975 366.2 329.529 366.794L326.046 371.438C326.03 371.46 326.014 371.483 326 371.506C325.987 371.526 325.975 371.547 325.964 371.568L322.547 377.974C322.259 378.514 322.52 379.183 323.097 379.387L330.051 381.842C330.335 381.942 330.559 382.165 330.66 382.448L332.942 388.837C332.98 388.945 333 389.059 333 389.173V395.523C333 395.825 333.136 396.11 333.371 396.3L343.168 404.231C343.38 404.403 343.513 404.654 343.535 404.926L346.481 440.272C346.493 440.422 346.472 440.573 346.418 440.714L341.567 453.327C341.522 453.441 341.5 453.563 341.5 453.686V464.797C341.5 464.931 341.473 465.064 341.42 465.187L334.579 481.313C334.527 481.436 334.5 481.569 334.5 481.703V494.838C334.5 494.945 334.517 495.052 334.551 495.154L336.93 502.29C336.976 502.428 336.991 502.575 336.975 502.72ZM253.5 495.382V493.803C253.5 493.605 253.441 493.412 253.332 493.248L253.184 493.025C252.831 492.497 253.054 491.778 253.644 491.542L254.556 491.178C254.837 491.065 255.052 490.832 255.14 490.543L256.944 484.681C256.981 484.562 256.995 484.436 256.985 484.311L256.528 478.362C256.51 478.128 256.575 477.895 256.711 477.704L258.814 474.761C258.935 474.591 259 474.388 259 474.18V471.176C259 471.06 259.02 470.944 259.06 470.834L262.962 460.103C262.987 460.034 263.02 459.969 263.059 459.908L266.43 454.609C266.477 454.537 266.513 454.459 266.539 454.377L270.459 442.127C270.486 442.043 270.502 441.955 270.506 441.867L270.988 431.269C270.996 431.093 271.05 430.922 271.145 430.774L275.251 424.387C275.409 424.141 275.452 423.839 275.368 423.559L274.511 420.704C274.287 419.957 273.332 419.742 272.81 420.322L269.889 423.567C269.649 423.835 269.57 424.211 269.684 424.552L270.061 425.684C270.277 426.331 269.795 427 269.112 427H268.118C267.739 427 267.393 427.214 267.223 427.553L264.786 432.428C264.612 432.777 264.656 433.195 264.9 433.5L266.177 435.097C266.38 435.35 266.447 435.685 266.358 435.996L264.555 442.307C264.519 442.434 264.457 442.553 264.374 442.657L262.629 444.838C262.544 444.945 262.481 445.068 262.445 445.2L261.02 450.428C261.006 450.476 260.99 450.523 260.97 450.568L253.566 467.351C253.522 467.45 253.495 467.555 253.485 467.662L251.533 488.641C251.512 488.873 251.41 489.09 251.245 489.255L249.888 490.612C249.646 490.854 249.545 491.202 249.619 491.536L250.397 495.035C250.462 495.329 250.656 495.578 250.926 495.713L252.053 496.276C252.718 496.609 253.5 496.125 253.5 495.382Z" fill="#ECE6DB"/>
<path fill-rule="evenodd" clip-rule="evenodd" d="M326 371.506C326.014 371.483 326.03 371.46 326.046 371.438Z" fill="#ECE6DB"/>
<path fill-rule="evenodd" clip-rule="evenodd" d="M271.447 242.5L273.5 246.833L270.546 240.598C270.534 240.571 270.522 240.544 270.512 240.517C270.497 240.477 270.485 240.436 270.476 240.395L270.293 239.603L271.447 242.5ZM267.25 222L266.762 220.048C266.729 219.918 266.673 219.801 266.6 219.7L266.5 220L267.25 222Z" fill="#b8a584"/>
<path fill-rule="evenodd" clip-rule="evenodd" d="M384 203.5H383.5L380 206L379.95 206.2L384 203.5Z" fill="#b8a584"/>
<path fill-rule="evenodd" clip-rule="evenodd" d="M61.2161 262.439L60.4304 262.271C60.6051 262.392 60.82 262.459 61.0498 262.448L61.2161 262.439Z" fill="#b8a584"/>
<path fill-rule="evenodd" clip-rule="evenodd" d="M277 202L275.5 208.5V215L276.5 220L275 222L274.5 229L272.5 234.5V232.5L270.5 230.254L270 231V235.5L270.293 239.603L270.476 240.395C270.485 240.436 270.497 240.477 270.512 240.517C270.522 240.544 270.534 240.571 270.546 240.598L273.5 246.833L275 249L277.5 253.5L280 261.5L281.5 268.5L281 278.5H279L277 279.5L274.5 280.5V278L276 273L274 269L271.5 264.5L272 255.5L271 252.5L268 251L264 244.5L260.5 235.5L260 224L261.5 222L262.5 220.5L261.5 217L266 214L265 211L262.5 211.5L260.5 210L256 206.5L253.5 202V197.5L251 194L250 196L249 194.5L248 191.5L246 188.5L245 185.5L246 183L247 178L250 171.5V169.5L246 170C245.5 170.833 244.4 172.6 244 173C243.6 173.4 242.833 174.833 242.5 175.5L240 176.5L240.5 179L238 180.5L237 185V188L235.5 190L232 197L228.5 201.5V203.5L229.5 207L229 213L227 215.5H225.5V219L223 222H221.5L220.5 223L222 225.5L221.5 226.5V231.5L220.5 237H217L214.5 238.5L214 242.5L217 248L222.5 253L222 258.5V266L228.5 271.5L232.5 273.5L236 280.5L233.5 280L230 282L229 289L226.5 292L225 299L223 303L222 302.265V298.5L224 292.5L225.5 286.5L228 281.5L228.5 278.5L226.5 276L223 275L220 272L217 270.5L211 277L209.5 276L203.5 281.5L197.5 285.5L196 293.5L194.5 298.5L192.5 297L192 295L191.5 288.5V283.5L200 276L202 271.5L200 269.5L201 267.5L203.5 266.5L209.5 265V262L206 260.5L203.5 260L203 257L203.5 253H206.5L208.5 251L210.5 249.5L207.5 247.5L206 251L205.5 249V246.5L205 243V240.5L203.5 237L202.5 233L206 223.5V215L205 209L206 202.5L205.5 199H203.5L200.5 203L198 209.5L197.5 214L193 215L192.5 217.5L191.5 224.5L190.5 228.5L189 236L186.5 239.5L185.5 238.5L184.238 234.5L186.5 225V221.5L185.5 220.5L182 221H181.5L182 219L181 217L177.5 216L174 217.5V216L177.5 214.5L182 215L187 210L186.5 207H187.5L189.5 206.5L191.5 202.5L190.5 199.5L188 198.5L189.5 197L189 193.5L191.5 184L191 181L186 183.5L183.5 182L180.5 184L174 186H171L179.5 180L185 173.5L183.5 171L182.5 166.5L179.5 166L180 163.5L177 161H175L179 158.5L179.5 154L178 151L176 149V147.5L177 146L175 142L173.5 138L172.5 133L169 131.5V129.5L170 126L168 122L165.5 118L164 114V110.5L161.5 109.5L158 110L150.5 112.5L140.5 117.5L142.5 118L146.5 119.5L150 122H158.5L158 124.5L158.5 127.5L156 129L153.5 127L148.5 124L140 122L135 120.5L132.5 122L128 125L129 130L127.5 129.5L124.5 127.5H121C120.5 129 119.5 132.1 119.5 132.5C119.5 132.9 118.5 133.333 118 133.5L116 134L115 135.5L117.5 140.5H119.5L121 142.5L122.5 147.5C123.167 148.833 124.5 151.6 124.5 152C124.5 152.4 125.833 153.5 126.5 154L130 153.5L134.5 154L140.5 153L139 154L137.5 156L135 157L132 158.5L129.5 163.5V173.5L127.5 174.5L125.5 177.5L124.5 181.5L121.5 189L123.5 201L122 207.5L124.5 213.5C126 215.667 129 220.1 129 220.5C129 220.9 130.333 222 131 222.5L135 226L135.5 227.5H133.5L129.5 224L126.5 225.5L125 227.5L131.5 231L137.5 235.5L138.5 234.5L143 234L145 232L147.5 231C147 232 146 234.1 146 234.5C146 234.9 144.333 235.667 143.5 236L140.5 237.5L142 242L143.5 244.5L150.5 248.5L151.5 252L155.5 254L160.5 256H165L171 258L175 260.5L176.5 264L173.5 262.5L169 260.5H163.5H157.5L156.5 262.5L160 267.5L162 271L161.5 273C159.5 272.333 155.4 271 155 271C154.6 271 152.167 270 151 269.5L150.5 266.5L146.5 260L142.5 255.5L138.5 253.5L136 250L133.5 247.5L128 245.5L123.5 241.5L118 238.5H113.5L110.5 237.5L112 235.5L114.5 233.5L114 231.5L114.5 227.5V224L112 220L109 213L105.5 210L100.5 210.5L99.9999 214.5L100.5 221.5L99.9999 224L97.4999 219L97.9999 215L98.4999 210L97.9999 207.5L95.4999 208L93.4999 211.5L91.4999 216V210L89.4999 208.5L86.4999 209.5L87.4999 206.5L88.9999 204L87.9999 201.5L80.9999 197.5L74.9999 190.5L60.4999 205L53.9999 209L51.4999 221.5L58.9999 231L65.4999 240.5L66.9999 244.5L69.9999 245.5L75.9999 250.5L73.4999 254L74.9999 257L80.9999 259L83.4999 258.5L86.4999 257.5L88.4999 258L91.4999 260L88.4999 261.5L88.9999 263.5L91.9999 264.5L102.5 265.5L112 265L119 268.5L126.5 271.5L135 275L132.5 275.5L128 274.5L118 273.5H96.4999V277.5H93.9999L93.4999 276L90.9999 274L81.4999 270.5L70.9999 267.5L64.9999 263L61.4999 262.5L61.2161 262.439L61.0498 262.448C60.82 262.459 60.6051 262.392 60.4304 262.271L54.4999 261L41.4999 261.5H38.4999L33.4999 264H30.9999L27.9999 265.5L26.4999 263L22.9999 264.5L21.9999 267V270L23.4999 271L23.9999 274.5L23.4999 281.5L25.9999 284.5L19.9999 289L17.9999 288L19.4999 291.5L22.9999 305L19.9999 326L22.4999 326.5L25.4999 326L27.9999 324.5L29.4999 321.5L27.4999 316.5L29.4999 312L28.9999 309.5L26.4999 308L27.4999 307.5L28.9999 303.5L29.9999 299.5L32.4999 298.5L32.9999 299.5L31.9999 304L34.4999 306L33.4999 307.5L32.9999 312L34.4999 312.5L39.9999 312L44.4999 312.5L50.4999 314.5L55.9999 316L58.9999 311.5V314L57.9999 317.5L55.4999 319.5L52.9999 318.5L48.4999 317L40.9999 316.5L37.4999 319.5L36.4999 333L34.4999 334.5L33.4999 337L38.9999 338.5L36.9999 340.5L36.4999 344.5L38.9999 345L39.9999 348L39.4999 351.5L42.9999 355.5H45.4999L48.9999 350.5V347L52.4999 343.5C52.9999 340 53.9999 332.9 53.9999 332.5C53.9999 332.1 54.9999 330.333 55.4999 329.5L57.4999 332.5V335.5V338L59.9999 336.5L63.4999 334L66.4999 333.5L61.9999 337L61.4999 339L59.4999 341.5L60.9999 344.5L58.9999 343.5C58.8332 344.5 58.4999 346.6 58.4999 347C58.4999 347.4 59.8332 348.167 60.4999 348.5L63.4999 349L62.9999 353L65.9999 351.5H70.4999C70.8999 351.5 74.6665 351.833 76.4999 352L81.9999 350.5L86.4999 349.5L93.9999 349L99.9999 350.5L106 345.5L108 344.5L111.5 343.5H117L119 341L120.5 337.5L122 333.5L119.5 330V326L121.5 328L125 332.5H127.5L129.5 330.5L131 333.5L142.5 327.5L143.5 323L144 318.5L143.5 314.5L142 311L139.5 308L138.5 304.5L137.5 300L139 299H141L144 302.5L147 309L150 312.5L153.5 313L156 311.5L160.5 311L162 311.5H165.5L170.5 314L168.5 315L162 316.5L158 319.5L153.5 324.5L152 333L152.5 333.5L143.5 342.5L137.5 345.5L130 348.5L123.5 355.5L116 362.5L115 365.5L110.5 369.5L106 372.5L104.5 373L102.5 376.5L95.4999 383.5L90.9999 384.5L87.9999 386.5L85.4999 387.5V389.5L86.4999 390L88.4999 388.5L89.9999 388L92.4999 389L94.9999 388L97.9999 389.5H105L104.5 388L106.5 387L111 388L114.5 385.5L115.5 384L118.5 380.5L124.5 376L126 377.5H127.5L135.5 372.5L127 382.5L123 390.5L120.5 391.5L118.5 394L120.5 396L126 397L127.5 397.5L128.5 396.5L139 388.5L142.5 381.5L146.5 377.5L149.5 377H152.5L151.5 382L146 389L150.5 388.5L152.5 387.5L154.5 389H158.5L160.5 387.5L163 388L164 389L161.5 390L164 392L172 386L173.5 380.5L175.5 378L179.5 377.5L186.5 371L188 367.5H189.5L188 375L183 379.5L179 390L180 392L166.5 401H156.5L152 404L150 403.5L144 407.5L145 409L144.5 410L143.5 421L138.5 422.5L137 420L135 422L126 420.5L125.5 418L124.5 416L119 417.5L117.5 419.5L116.5 420L114.5 419.5L113 420L112 422L114.5 424L117 423.5L118.5 421L121 420.5L122 421.5L121 424.5L119.5 425.5L117.5 426L115 430L114 429.5L113 428.5L110 429.5L108 431.5L105.5 435L103.5 438L104.5 439.5L105 439L108 437.5L109.5 437L109 440.5L108 443L109 444L108.5 446L105 451.5L105.5 455.5L104 456L99.9999 461L101 461.5L99.4999 464.5L101 466.5V469.5L96.9998 478.5L95.4999 485V493.5L96.4999 498L98.4999 500.5L96.9998 501L96.4999 506L95.9998 510.5L97.9998 515.5L99.9998 514L102.5 514.5H101.5L99.4998 517.5V521.181L98.4999 519.5H94.9999C93.8332 519.833 91.3999 520.5 90.9998 520.5C90.5998 520.5 89.1665 522.167 88.4999 523L88.9999 530L87.4999 532L89.9999 535.5L88.4999 535L86.9999 540.5V547.5L89.1361 548L90.9998 546.5V545L92.9998 541L95.9998 539.5L96.9998 538L99.4998 537.5V534.5L97.9998 530L99.9998 529L103 530.5L103.5 530L106 528H108.636L109.5 527L110.5 524.5L112 522.5H114.5L115 520.146L114.5 517.5L119 517L124.5 516.5L129 517L123 521.181V523.5L124.5 524.5V526.5L121 526L120.5 530.5L122.5 532.5V536L120.5 537L119.5 535L117.5 533L115 529L112.5 531L110.5 535.5L111.5 537.5L110 538.5L109 540L108.5 542L107.5 544L108 546L113.5 548L116.5 543.5V540L117.5 538.5L120 541L123 542.5L127 542L128.5 539L130.5 535.5L129 533L132 531.5L134.5 529.5L132.5 526.5L133 522.5H135.5L137 525L139 528L142 529.5L142.5 526L142 523L140.5 521.181L138.5 518V513.5L137 512L137.5 510.5L140.5 511.5L142 513L143 515.5L144.5 516L146 513.5L145.5 510L147 511.5L150.5 514L152 515.5L151.5 518.5L153 518L152.5 516L154 514.5V511L152 507.5L149 505L145 504L143.5 500.5L140 493L139.5 488.5L141 489.5L143 489L145 486.5L146.5 483.5L146 482L145.5 476.5L146 471.5L148.5 472.5L151.5 471L154 468.5L157 466L155.5 460L157 452L158.5 451L160.5 454L164.5 457C165.5 456.667 167.4 456 167 456C166.6 456 166.167 455 166 454.5L167.5 451.5L168 449.5L169 447L173.5 442.5L177 441V440L180.5 436.5L183 434.5L186 436L188 431L187.5 428L188 425L189.5 423.5L194 417.5L194.5 413L195.5 411L193.5 409L194 407L194.5 404L198.5 401L200.5 394L202 393L203 395L204 399L202 404L198 407.5V409.5L198.5 412H200V414.5L198.5 416.5L197 420L200.5 417.5L201.5 421.5L202 426.5L203.5 428.5L203 431.5L201.5 435L201 438L187 451L185 452L181.5 453C180.833 453.5 179.4 454.6 179 455C178.6 455.4 178.167 456.833 178 457.5L180 458.5V461L177 465.5H173L170 469.5L169 470L168 471.5C167.5 472.333 166.5 474.1 166.5 474.5C166.5 475 167 476.5 167 477C167 477.4 168 478.5 168.5 479L170 483L171 485L170.5 487L173 487.5L175.5 487L177 486.5L178 484.5L179.5 483V480.5L178 479.5L180.5 477L180 475L180.5 470.5L182 471.5L184 476L183.5 479.5L187 483C187.4 483.4 188.167 482.833 188.5 482.5L189.5 479.5L190 476.5L193 474.5L195 478L196.5 473.5L197.5 472L198.5 471L199 469L202 467.5V468.5L203.5 471V474.5H203L202 476.5L204 477.5L204.5 476.5V474.5H207.5L208.5 472.5L210.5 470V471.5L206 479L202.5 481.5L199.5 485.5L200 486.5L203.5 485.5L205.5 483L208.5 481L212 480L215 476.5L217 478L225.5 466L228 466.5L234.5 461.5L238 456.5L238.5 453.5L242.5 452.5V450L243.5 446.5L240 445.5V441.5H243.5L245.5 444L252 436.5V431.5L251.5 429.5H249.5L249 427L249.5 424.5L250.5 426.5L254.5 424.5L253.5 422.5L247 415.5L249 414L254 419L256 419.5L259.5 419L260.5 417.5L265 412.5L265.5 410.5H267.5L268.5 405.5L269.5 402L266.5 400.5L264.5 395L263.5 393V390L265 388L266.5 386.5L268.5 385L267 383.5L267.5 382L269.5 380.5V377.5L268 376.5L267.5 378.5L266 377L264 375.5L259 376.5L256 379H253.5L254 378L255 375.5H254L250 376L248.5 374.5L246 374V372L247 371L249.5 370L251.5 368V365.5L249.5 363L250 361.5L252 361L250.5 360L249.5 356.5V353.5L252 353L253 355L253.5 358.5L254.5 361.5L259 366H264.5L269.5 365L275 363.5L278 361.5L277 360.5L275.5 360L274.5 358.5L271 358L268 356L265 352.5L266 352L265 351.5L263.5 346.5L262 344L259.5 344.5L256.5 347L255 347.5L249.5 349L247.5 350.5L246.5 352.5L243.5 354.5L242.5 354L240 353L233.5 352.5L229.5 354L226.5 353.5L225 351.5L231.5 348V346.5L229.5 345L225.851 342L222 337.5L219 335L218 332L219 330L221 329.5L224 331L230.5 336.5L236.5 340.5L242 341L249.5 338L250 335.5L255.5 336L262.5 333.5L265 335.5L270 337.5L273 342.5L276 346H280L281 344.5L282 345.5L283.5 346L287 348.151L292.5 347.5L294 348.5V350L295 349.5L296 347L295.5 346L293.5 347L293 346L292 344.5L290 344L289 342L286.5 341.5L284.5 329L282 328L281 326L277 324.5L277.5 321.5L275.5 319.5L274 316.5L275 314.5L272.5 311L272 308L275 309L279 311.5L281 315L283.5 316.5L287 317V312L284.5 308L282 306.5L281.5 303.5H285L286 301L287 299.5L287.5 297.5L292.5 304.5L294 307.5L295 306.5L297 306L296 308.5L297 313L300 317.5L303 319L302 319.5L301.5 324.5L302 331L303 333L306 332L311.5 335L316.5 335.5L319 334.5L320 331.5L322.5 330.5L324 334L331 343L333 342L334.5 340.5L335 346.5L337.5 350.5H339L343.5 349L347.5 343.5L350.5 342L350 343.5L348 346.5L346.134 351L344 355.5L340 360L338 366L339.5 368L339 371L340.5 373L343 372.5L346.134 374V371.5L348 372.5L350.5 376.5L351.5 379L354.5 381L356.5 380.5L359.5 379.5L360.5 377.5L361.5 374.5V373L362.5 371.5L363 369L364.5 368L365 364L366 363.5H366.5L368 360.5L369.5 357L372 354L371 347L371.5 343L370.5 341.5L371.5 339.5L375 342.5L376.5 344L379.5 341L378.5 345L378 352L377 359L373 371L369 376.5L368 380L370 385V388.5L369 388L368.5 390L369 391.5L370.5 390.5L372.5 390L374 393L377 394.5L380 398L377 400C377.333 401.833 378 405.6 378 406C378 406.4 379 408.167 379.5 409L382.5 408L385 406L384.5 402.5L383.5 400.5L386.5 398.5L385 396L382.5 394.5L383 393.5L385 392H383L382 389.5V387.5L384.5 388L385 391H386L388.5 392.5L390 395L392 394.5L396 396.5L397 398L397.5 403.5L401 405.5H403.5L406.5 407L411 412H415.5L419 410.5L417.5 408V406.5L416.5 404L413.5 401.5L411.5 398L407.5 394.5L403 395L402.5 392.5L404 390V382.5L403 380L404 378L406.5 377L406 374V368L404 361.5L402.5 359L404 357.5L407 356.5L408.5 358L411 357H414.5C414 358.833 413 362.6 413 363C413 363.4 413.333 365.5 413.5 366.5L413 371L415 377.5L413 380L411.5 385V389.5L415 394.5L420.5 399L422 398L421.5 393L423 390L423.5 392.5L427.815 400L427.5 404L428.5 407.5L427.5 410L427.815 413.5H431L432 411.5H431L430 410.5L432.5 407.5L430 401.5V400H433.5V402L438 406.5L441.5 409.5L445.5 416H448.5L453.5 417L457.5 418.5L461.5 417L464.5 414.5L468 415.5L469.5 413.5L470 411L471 409V405.5L464.5 400L463 398L464 394.5L459.5 389.5L455 388L456 383.5L452 377.5L450 372.5L447.5 371L442 360L436.5 351.5L434 346L435.5 342L436.5 346L440 347.5L443 347L445 354.5L450.5 367.5L456 373.5L458.5 381L462.5 385L471.5 399L478 400.5L481.5 399.5L487 395L493.5 386.5L499 344.5L501.5 329.5L514 308.5L512 292L510.5 274L506.5 255L496 244.5L487 239L490 231L497.5 222V221L501.5 206L496 197L487 187.5V172L482 166.5H470L467.5 165V171.5L471.5 176.5L472.5 181L471 185L471.5 189L478 191L476 193.5L472.5 194.5L468.5 196L466.5 200.5V205L468.5 210L467.5 211.5L471.5 218.5L476 222L474.5 225.5L478 226.5L482.5 231.5L483.5 237.5L487 242L483.5 244.5L482.5 241L480.5 239.5L478.5 235L474 236L471.5 239.5L469.5 244L464 244.5L461.5 244L464 241L465.5 232.5L463.5 229L461.5 222L457.5 217.5L458.5 214L455.5 200H458.5L457.5 195L461 187L463.5 172L460.5 165L458.5 166.5H448L443 152.5H438.5L432.5 158.5L425.5 174L422 176.5L412 189L407 195L402 201.5L397.5 204.5V210L399.5 215.5L396.5 222.5L395.5 216.5L394.5 213H394L390.5 214V207.5L388 203.5H384L379.95 206.2L379 210L381.5 212L386.5 216.5L387 226.5L390.5 231.5L389 237H388L385.5 230L384 220L383.5 215.5H381.5L376.5 230L369.5 240.5L372 231L375 223.5L378 214.5L374.5 213L367.5 214.5L362.5 213L350.5 224.5H349L348.5 226L350.5 231V239.5L356.5 247V251L358.5 258L360.5 263L361 270.5L368.5 277H367L360.5 276L359 282.5L356.5 291.5L355.5 297.5L352.5 296.5V292.5L351 289.5L347.5 291.5L342.5 292.5V289.5L348.5 287L351 283L354 278.5L355.5 271.5L354 264.5L347.5 268L352.5 253L348.5 249H342L340 246.5L342 244.5L340 239.5L332 239L330.5 236H333L339.5 232V224L334.5 220.5L337 217.5L342.5 209L350.5 202H359.5L366 200L371 196.5L378 192.5L381.5 195L385.5 192.5L389 190.5L386.5 185L391 177.5L394.5 173L396.5 173.5L399.5 170H406L410.5 166L408 163L410.5 157L414 151.5L412 149.5L401 151.5L397.5 149.5L396.5 150.5L394 148L395.5 142L388 143.5L391 140.5L393.5 139L396.5 140.5L398.5 138L402 140.5H412.5V138H417L419 135.5H421.5L425 134.5H426.5L413 130L392.5 138L380.5 134.5H357L354 122.5L350.5 113.5L344 108.5L336 107L327.5 100.5L331 88.5V63.5L325 50.5L320.5 43L320 42L319.5 42.5L322 51.5L319 55.5L317 54L314.5 56L313.5 52L314 49.5L313 46.5L312.5 43L311 39.5L308.5 39L304.5 36.5L300.5 34.5L299 35L297 34.5L294 32.5L292 30H289.5V27.5L282 26L273.5 27.5L272.5 26L267.5 24H253.5L241 22.5V25.5L232.5 28.5H216.5L206 31L202 37.5L206 42.5L206.5 46L214 48L217 55.5V60.5L213.5 64L210 66L204 69.5L206.5 75.5V79.5L203.5 78.5V74.5L200 72.5V67H202L202.5 64L210 59.5L215 57L213.5 54L210 52H203L200 50.5H195.5L193 46L191 47.5L192 43.5L191 36.5L189.5 33.5L180.5 34.5L181.5 36.5L178 40.5L175.5 41.5L173 38.5L168.5 39L164 36.5L166 34.5L164.5 33.5L158 32.5L147 40.5L146 41.5L147.5 42.5L155.5 49.5L158.5 49L164 52L165.5 55.5L167.5 56.5L171.5 63.5L172.5 66.5L175.5 70L179.5 68.5L186.5 73.5L185.5 79L184.5 85L185.5 87.5L190 85L199 80.5L208 81.5L210.5 82V86.5L208.5 85.5L203.5 88L202.5 94.5L199 101L198.5 99.5H196L194 104.5V106.5L195 115L192.5 120L192 125L195.5 131.5L194 134.5L200 144L205 145L212 146L216 144.5L215.5 147L217 150L221 151L224 150L225 153.5H230.5L228.5 160L230.5 160.5L228.5 166L232 166.5H240L245 161.5L249 160.5L250.5 158L246.5 156L250.5 154.5L252.5 151L254.5 157L260 160L265.5 157L276 151L288 145L298.5 142L306 139L312.5 134.5L313 128L318 121.5L316 126.5L323.5 129L320 138L323.5 140.5L312.5 148.5L307 151H305L300 152L301.5 154.5L299 158L293.5 159L283 165H282L278 167.5L275 174.5V179.5L276 187L275.5 190V195L277 202ZM419.624 293.067L424.517 288.75C425.208 288.14 424.776 287 423.855 287H422.64C422.547 287 422.455 286.987 422.365 286.961L421.019 286.577C420.209 286.346 420.03 285.279 420.72 284.796L423.023 283.184C423.533 282.827 423.597 282.097 423.157 281.657L422.266 280.766C422.094 280.594 421.991 280.367 421.975 280.125L421.511 273.168C421.504 273.057 421.515 272.945 421.544 272.838L422.946 267.697C422.982 267.567 423.043 267.446 423.126 267.34L430.5 258L434.407 252.628C434.469 252.543 434.543 252.469 434.628 252.407L439.857 248.604C439.951 248.535 440.057 248.484 440.17 248.451L449.702 245.728C450.165 245.596 450.656 245.812 450.871 246.242L451.605 247.71C451.831 248.161 451.685 248.71 451.265 248.99L450.621 249.419C450.541 249.473 450.453 249.514 450.361 249.543L444.259 251.42C444.089 251.472 443.937 251.569 443.816 251.7L438.5 257.5L433.559 263.924C433.52 263.974 433.485 264.029 433.457 264.086L429.583 271.833C429.528 271.943 429.494 272.063 429.482 272.186L428.5 282.5L428.03 288.135C428.011 288.371 427.908 288.592 427.741 288.759L421.853 294.646C421.631 294.869 421.316 294.974 421.005 294.929L420.145 294.806C419.3 294.686 418.985 293.631 419.624 293.067Z" fill="#b8a584"/>
<path d="M82.9999 184.5L84.4999 187.5L90.4999 193.5L95.4999 194H99.4999L101 192L101.5 181.5L102.5 177L103 172L102 170L106 166L103.5 161H102L99.9999 155.5L96.4999 152.5H94.9999L89.9999 155.5L86.4999 157L85.9999 161.5L84.4999 164L81.9999 164.5L79.9999 167L75.9999 166.5L74.4999 169.5L70.4999 171L68.4999 173L69.4999 175L74.4999 175.5L78.4999 176L83.9999 179L84.4999 179.5V183.5L82.9999 184.5Z" fill="#b8a584"/>
<path d="M138.5 95.5V96.5L139.5 97L134 99.5L130.5 97L125 97.5L120.5 99L109 96.5L105.5 96L109.5 92.5L114 93.5H120L125 92H129L134 93H137.5L138.5 95.5Z" fill="#b8a584"/>
<path d="M139 101L136.5 102.5L138.5 103.5L141 101.5L139 101Z" fill="#b8a584"/>
<path d="M113 55.5L113.5 60.5V64.5L115.5 66L119.5 65.5L125 61.5L127 60L130.5 58.5L134 55.5L133.5 51H129.5L129 50H127V53L130 53.5L127.5 55.5L127 57L121 50H118.5L114 53.5L113.5 54L113 55.5Z" fill="#b8a584"/>
<path d="M382.5 426.5L382 424L380.5 423L379 424.5L378.5 427.5L382 428L380.5 431L380 433.5L381.5 435H385.5L388.5 434.5L389.5 435.5L390 432L386.5 431C385.833 430.667 384.6 430 385 430C385.4 430 386.167 429 386.5 428.5L390.5 426L389 424L387.5 423L383.5 426L382.5 426.5Z" fill="#b8a584"/>
<path d="M367 407.5L368 405.5C368.167 405 368.5 403.9 368.5 403.5C368.5 403.1 369.5 403.333 370 403.5L371.5 406.5V409L370.5 409.5L368.5 408L367 407.5Z" fill="#b8a584"/>
<path d="M401.5 428L401 425L397.5 425.5L396.5 426.5L395.5 426V428L399 429L397.5 431L395.5 432.5L397.5 434L399.5 434.5H400.5L397 437.5L393.5 437L393 440.5V443.5L395 443L395.5 445H399.5L402 443L406.5 441L403.5 440L404.5 437V434L403.5 433L405.5 431.5L407 429L408 427.5L407 426.5H404L401.5 428Z" fill="#b8a584"/>
<path d="M405.5 423L403 424L401.5 423V421.5H404.5L405.5 423Z" fill="#b8a584"/>
<path d="M410.5 430.5L410 427V426L411.5 426.5L413.5 428.5L416.5 430.5L413.5 432L412.5 433L413.5 434L415 433V436L411.5 436.5L410.5 435L410 432.5L410.5 430.5Z" fill="#b8a584"/>
<path d="M436 486.5L436.5 482.5L435.5 480.5L435 466.5L437 465.5L439.5 461.5L440.5 463.5L440 466.5L438 470L438.5 473L439.5 475L442.5 474V479H439.5L439 481.5L440 485.5L438.5 487.5L437 485.5L436 487V486.5Z" fill="#b8a584"/>
<path d="M356.5 527.5L354 530H351.5L350 532L351 534L353.5 533L354.5 533.5V536L347.5 539.5L346 540.5L343.5 540V538L346 534.5L344 531L345 525.5L346.5 524L346 520.5L347.5 518L347 515L345 513L345.5 508.5L348.5 498H349.5L350.5 494.5L352 492.5V491L356 493L358.5 498L359 500H361V502.5L359.5 504L360 507L360.5 509L362.5 511L363.5 513L360.5 514L356.5 515L354.5 514L351.5 515L352 517H355L354.5 520.5L357.5 522V525.5L356.5 527.5Z" fill="#b8a584"/>
<path d="M355 485L352 486.5L353.5 487.5L356.5 487L355 485Z" fill="#b8a584"/>
<path d="M350 479.5L349.5 478.5L350.5 476L351.5 477.5V479.5H350Z" fill="#b8a584"/>
<path d="M321.5 477L323.5 471V468L323 466.5L318 469.5L317 472.5L315.5 473.5L316.5 475L318 476V479L319 482L322 480.5L322.5 478.5L321.5 477Z" fill="#b8a584"/>
<path d="M320.5 497.5L323 495.5L324.5 496.5L324 498L320.5 497.5Z" fill="#b8a584"/>
<path d="M320 500.5L318 502L316.5 501L315.5 502L314 505L316 507.5H318.5L320 505L320.5 503L320 501.5V500.5Z" fill="#b8a584"/>
<path d="M317 520L315.5 523.5L314 526L312 527.5L311 528.5L309 523.5L311 520L310 518L308 518.5L312 512H314L316 513V515.5L316.5 517L320.5 514.5L321.5 515L322 516.5L319.5 519.5L318 521L317 520Z" fill="#b8a584"/>
<path d="M262 494L261.5 491L264 487.5L263.5 485L262.5 481.5L266.5 473.5L263.5 470L269 461.5L270.5 457L275 452L278 446L278.5 444.5L276.5 443.5L277 439.5L280 435.5L282 433L281 429.5L283 427.5L285 423L287 417L289.5 415L290 413.5L289.5 412L288 413.5L285.5 415.5L285 412L286 409L281.5 410.5V408.5L282.5 406L284.5 403.5L284 400.5L283 396L285.5 392.5H288L288.5 394.5V396L289 399L286.5 401.5L285.5 404.5L286.5 405.5L290 404.5L291.5 402V398.5L293 398L292 394L290.5 396L289.5 388.5L288.5 387.5L289 383L290 382L289 380.5L292 380L293 375.5L297 374.5L299 375.5L300 378.5L301.5 379.5L302.5 383L301.5 388L300 392.5H298.5L299 397L297.5 398.5L298 400.5L296.5 401L298 403L297.5 404.5L295.5 404L295 406.5L296.5 407.5H292.5L291.5 410L292 412L291 414L293.5 415.5L300 421.5L300.5 424L302 425.5L303 429L302.5 433L301.5 434.5L302.731 436L302 437L304.5 439.5L304 445L307.5 446L308 447L311 446.5L313.5 448L312 449L313.5 451.5L312 454.5L308 452L309 455.5L307.5 458.5L309 459.5L308 463.5H307L305.5 467L301.5 468.5L299 467L299.5 465L301 461.5L302 458L300.5 455.5V450.5L302 447.5L300.5 448L299 450L295 450.5L298 447V446L297.5 441L299 437.5L298 435.5L294.5 436.5H293.5L293 440.5L290.5 441.5L289.5 445L289 446.5L288 466L289.5 468.5L287.5 469L285 466L284 470.5L280 473L284 475L286 477.5L284.5 481.5L282 481L284 485.784L281.5 488L282.5 491L283 494L280 495.5L278.5 498L276 499.5L274 502L271.5 499.5L269.5 500L268 502.5L266 505L263.5 501L262 499L259 500.5L258.5 497L260 495L262 494Z" fill="#b8a584"/>
<path d="M324.5 423L326 425L327 427L328.5 426L329.5 424.5L328 423L326 420.5L326.5 417.5L324 418.5L325.5 415.5C325.833 414.833 326.5 413.4 326.5 413C326.5 412.6 325.167 412.167 324.5 412L324 414L322.5 416.5H321.5L320.5 414.5L323 412.5L322 409V405.5L324 406L326.5 408.5V410L329 409L330.5 411L332 412H333.5V414.5L332 415L332.5 416L334.5 417L337 414.5L339 415.5L341 417.5V420.5L341.5 424V427.5L340.5 430L338.5 431.5L338 432.5L340.5 434L338 436L337 437.5L335.5 435.5L334.5 434L336.5 433L334.5 429.5L331 427.5H328.5L326 429.5L324 429L323 426L323.5 424L324.5 423Z" fill="#b8a584"/>
<path d="M271 399L270 396.5L268.5 396L269 393L272 391L273 388.5V387L275 387.5C275.167 387.833 275.5 388.4 275.5 388C275.5 387.6 276.5 386.167 277 385.5L278.5 387L283 383L284 383.5V387.5L281.5 390.5L278 392L277 393.5L276 398L273 399H271Z" fill="#b8a584"/>
<path d="M299 349.5L299.5 352L302.5 355.5H305.5L306.5 358.5L308.5 360.5L312 358.5L311 355.5L312 354L313.5 356.5L315.5 355L313.5 351.5H312L311 347.5L306.5 347L303.5 345.5L300 347.5L299 349.5Z" fill="#b8a584"/>
<path d="M315 358.5L313.5 359.5L314 360.5H315.5L317 362.5L320.5 363H321.5V361L320 360.5L317 361L316 360L315 358.5Z" fill="#b8a584"/>
<path d="M318.5 345.5L316.5 347L316 348H314.5V349.5L315.5 350L318.5 347V345.5Z" fill="#b8a584"/>
<path d="M238.5 495.5L236.5 494C237 493.167 238 491.4 238 491C238 490.6 239.333 489.833 240 489.5L241.5 490.5L241 494.5L239.5 496L238.5 495.5Z" fill="#b8a584"/>
<path d="M265.5 508L261.5 507.5L259 506.5L258.5 508.5L261 510L263 509.5L265.5 508Z" fill="#b8a584"/>
<path d="M229 500L230 501.5H233.5L234.5 503L236.5 502.5L235 500L232 499L229 500Z" fill="#b8a584"/>
<path d="M224 507.5L222 509.5V512L221 514L221.5 516L224.5 516.5L226.5 515.5V513H228.5L231 514.5L233 513L232 509.5L230.5 510.5L230 508.5H227.5L226 510L225.5 512L224 510V507.5Z" fill="#b8a584"/>
<path d="M234.5 490L232 489L230.5 489.5L229 489L230 487L232 488.5L234 487.5H235.5L236 490H234.5Z" fill="#b8a584"/>
<path d="M80.4999 418L78.9999 418.5L76.9999 420.5C76.9999 421.333 77.0999 423 77.4999 423C77.8999 423 79.6665 422 80.4999 421.5L80.9999 419.5L83.4999 419L87.4999 418.5L86.4999 415.5L84.9999 414.5L81.9999 416.5L80.4999 418Z" fill="#b8a584"/>
<path d="M200.5 186.5L199.5 185.5L201 183L202.5 182V185.5L201 186.5H200.5Z" fill="#b8a584"/>
<path d="M268 224L269.5 226.5L270 225.5L271 222.5L271.5 219.5L271 217L269 215.5L267.5 217L266.6 219.7C266.673 219.801 266.729 219.918 266.762 220.048L267.25 222L268 224Z" fill="#b8a584"/>
<path d="M271 211L268.5 208L266 204.5H263L262 201.5L260.5 198L258.5 196L258 191.5L257.5 184.5L255.5 183.5L257 177L258 174L260.5 172L261.5 172.5V175.5L260.5 177.5L262.5 180.5V183L265 185L268 190L267.5 193.5L268.5 196.5L269.5 201L271.5 203.5L272.5 205V208L272 210L271 211Z" fill="#b8a584"/>
</svg>
