<svg width="518" height="614" viewBox="0 0 518 614" fill="none" xmlns="http://www.w3.org/2000/svg">
<path fill-rule="evenodd" clip-rule="evenodd" d="M356.816 133.733C356.924 134.183 357.326 134.5 357.788 134.5H380.363C380.454 134.5 380.544 134.512 380.632 134.537L392.674 137.909C392.885 137.968 393.11 137.956 393.315 137.874L412.66 130.136C412.879 130.048 413.123 130.041 413.347 130.116L425.979 134.326C426.303 134.435 426.55 134.701 426.633 135.033L428.76 143.541C428.893 144.072 429.429 144.398 429.962 144.271L438.62 142.21C439.12 142.091 439.628 142.369 439.796 142.855L447.767 165.828C447.906 166.23 448.286 166.5 448.711 166.5H458.167C458.383 166.5 458.593 166.43 458.767 166.3L463.873 162.47C464.241 162.194 464.75 162.205 465.106 162.496L469.724 166.274C469.902 166.42 470.126 166.5 470.357 166.5H481.558C481.839 166.5 482.108 166.619 482.297 166.827L486.74 171.714C486.907 171.898 487 172.138 487 172.387V187.102C487 187.357 487.098 187.604 487.274 187.789L495.927 196.924C495.976 196.974 496.018 197.03 496.055 197.09L501.271 205.626C501.417 205.864 501.456 206.152 501.38 206.421C500.013 211.222 497.5 220.335 497.5 221.5C497.5 222.679 492.675 228.136 490.135 230.856C490.045 230.952 489.976 231.064 489.93 231.187L487.29 238.226C487.122 238.675 487.296 239.181 487.705 239.431L495.898 244.438C495.966 244.479 496.028 244.528 496.084 244.584L506.29 254.79C506.427 254.927 506.521 255.101 506.561 255.291L510.5 274L512 292L513.959 308.161C513.985 308.381 513.939 308.603 513.825 308.793L501.596 329.338C501.533 329.445 501.489 329.563 501.469 329.685L499 344.5L496 367L493.534 386.233C493.512 386.408 493.444 386.574 493.337 386.714L487.061 394.921C487.02 394.973 486.975 395.022 486.925 395.066L479.174 401.848C479.059 401.948 478.969 402.073 478.91 402.213L475.04 411.406C475.013 411.468 474.98 411.528 474.942 411.584L469.798 419.067C469.611 419.338 469.303 419.5 468.974 419.5H444.894C444.641 419.5 444.397 419.596 444.212 419.769L437.158 426.353C437.054 426.45 436.972 426.568 436.917 426.699L432.196 438.029C432.073 438.325 432.097 438.66 432.266 438.932C434.201 442.058 437.973 447.737 439.5 448.5C441.066 449.283 446.91 454.281 449.815 456.837C449.938 456.945 450.03 457.08 450.087 457.233C451.106 459.976 452.889 465.223 452.5 466C452.105 466.791 449.397 472.857 448.047 475.894C448.015 475.966 447.977 476.029 447.93 476.092C445.737 478.958 441.291 484.709 440.5 485.5C439.5 486.5 435 491 434.5 492.5C434.11 493.669 430.212 497.145 428.161 498.865C428.054 498.955 427.931 499.02 427.797 499.058L421.479 500.863C421.178 500.949 420.934 501.172 420.821 501.466L416.067 513.827C416.022 513.941 416 514.063 416 514.186V528.338C416 528.445 416.017 528.552 416.051 528.654L419.423 538.769C419.473 538.921 419.487 539.083 419.462 539.241L418 548.5L416.075 556.198C416.026 556.395 416.037 556.601 416.11 556.79C417.167 559.541 419.456 564.614 421 565C422.567 565.392 427.141 567.415 429.364 568.437C429.455 568.479 429.537 568.533 429.611 568.6C431.31 570.143 434.5 573.326 434.5 574.5C434.5 575.571 433.171 577.786 432.293 579.078C432.112 579.345 431.808 579.5 431.485 579.5H418.474C418.174 579.5 417.89 579.635 417.7 579.867L413.954 584.445C413.683 584.777 413.653 585.244 413.877 585.609C414.753 587.037 416 589.154 416 589.5C416 589.88 419.604 589.989 421.681 589.999C421.889 590 422.091 590.065 422.261 590.186L424.461 591.758C424.989 592.135 425.024 592.908 424.531 593.331L422.122 595.396C422.041 595.465 421.95 595.521 421.852 595.561L413.817 598.869C413.612 598.954 413.441 599.103 413.33 599.296C411.937 601.722 409.267 606.232 408.5 607C407.71 607.79 400.678 609.946 397.132 610.962C397.043 610.988 396.953 611 396.86 611H385.599C385.533 611 385.467 610.993 385.403 610.981L375.875 609.075C375.633 609.027 375.418 608.891 375.271 608.694L368.405 599.54C368.16 599.214 367.742 599.069 367.347 599.174L360.5 601L346.869 604.408C346.631 604.467 346.38 604.437 346.163 604.323L336.536 599.281C336.206 599.108 336 598.767 336 598.395V591.237C336 590.6 335.413 590.126 334.79 590.259L329.896 591.308C329.389 591.417 328.883 591.12 328.73 590.624L327.149 585.484C327.055 585.18 326.824 584.939 326.524 584.835C322.543 583.459 315.152 581 314 581C312.8 581 309.833 582 308.5 582.5L299.152 584.837C298.758 584.936 298.462 585.263 298.405 585.666L297.031 595.285C297.01 595.427 297.021 595.571 297.061 595.708L299.299 603.318C299.419 603.726 299.268 604.166 298.921 604.413L292.761 608.814C292.591 608.935 292.388 609 292.179 609H281.951C281.418 609 280.978 608.583 280.962 608.051C280.857 604.546 281.041 599 282.5 599C283.916 599 285.437 594.037 286.23 590.701C286.377 590.083 285.903 589.5 285.267 589.5H267.634C267.247 589.5 266.895 589.276 266.73 588.926L263.507 582.077C263.242 581.515 263.548 580.851 264.15 580.698C266.189 580.179 269.182 579.5 270.5 579.5C271.875 579.5 275.074 578.761 277.11 578.236C277.614 578.106 277.926 577.606 277.83 577.094L276.588 570.468C276.532 570.172 276.346 569.917 276.081 569.773L264.628 563.569C264.543 563.523 264.465 563.465 264.397 563.397L257.5 556.5L251.332 548.908C251.124 548.653 250.804 548.516 250.476 548.542L238.582 549.493C238.527 549.498 238.473 549.507 238.42 549.52L222.731 553.442C222.579 553.48 222.42 553.482 222.267 553.447L200.884 548.587C200.637 548.531 200.421 548.384 200.278 548.174L192.373 536.548C192.147 536.216 191.744 536.051 191.35 536.13L177.434 538.913C177.157 538.968 176.917 539.138 176.772 539.379L175.072 542.214C174.64 542.933 173.568 542.833 173.276 542.047L169.134 530.861C169.048 530.629 169.051 530.373 169.143 530.142L171.624 523.941C171.831 523.423 171.574 522.836 171.054 522.636L159.524 518.201C159.198 518.076 158.831 518.13 158.555 518.342L152.731 522.823C152.58 522.938 152.465 523.095 152.4 523.273L150.591 528.248C150.531 528.413 150.429 528.559 150.295 528.672L138.15 538.874C138.051 538.957 137.969 539.059 137.908 539.174L133 548.5L130.216 554.531C130.08 554.825 129.811 555.035 129.493 555.095L122.51 556.404C122.19 556.464 121.92 556.676 121.784 556.972L111.547 579.397C111.516 579.465 111.477 579.53 111.431 579.59L95.6267 600.183C95.2835 600.63 94.6387 600.706 94.2017 600.35L81.5839 590.068C81.5281 590.023 81.4773 589.972 81.4325 589.915L67.9999 573L57.9999 556.5L49.4999 544L42.6335 530.758C42.5462 530.589 42.5086 530.4 42.525 530.211L43.4999 519C43.9999 514.833 44.9999 506.1 44.9999 504.5C44.9999 502.9 41.6665 486.833 39.9999 479L38.5524 462.596C38.5201 462.229 38.2887 461.909 37.9502 461.764L28.441 457.689C28.1622 457.57 27.9526 457.33 27.8714 457.038L23.1029 439.871C23.0366 439.632 23.0612 439.377 23.1719 439.156L28.9001 427.699C28.9658 427.568 29.0596 427.453 29.1749 427.362L38.1625 420.266C38.3779 420.096 38.5139 419.845 38.5388 419.572L39.988 403.631C39.9959 403.544 39.9924 403.456 39.9775 403.37L37.5463 389.269C37.5159 389.093 37.4387 388.928 37.3228 388.792L28.9999 379L19.5671 365.596C19.5225 365.532 19.4853 365.464 19.4565 365.391L14.5321 353.081C14.5107 353.027 14.4939 352.972 14.482 352.915L12.5717 343.841C12.5252 343.62 12.5549 343.39 12.6558 343.188L19.4273 329.645C19.4754 329.549 19.5076 329.446 19.5228 329.339L22.9708 305.203C22.99 305.069 22.9817 304.933 22.9465 304.802L19.4999 292L14.6152 279.788C14.5401 279.601 14.4098 279.44 14.2415 279.328L5.8092 273.706C5.60966 273.573 5.46457 273.373 5.40038 273.142L3.18264 265.158C3.07242 264.761 3.21671 264.337 3.54616 264.09L10.8048 258.646C10.933 258.55 11.0824 258.486 11.2404 258.46L28.9999 255.5L47.9225 252.014C47.974 252.005 48.0247 251.991 48.0741 251.974L56.4999 249L66.0499 246.271C66.5764 246.121 66.884 245.575 66.7399 245.047L65.5442 240.663C65.5149 240.555 65.4677 240.453 65.4047 240.361L58.9999 231L51.7862 221.863C51.6045 221.633 51.533 221.334 51.5905 221.047L53.9144 209.427C53.9689 209.155 54.1343 208.917 54.3709 208.772L60.3999 205.062C60.4663 205.021 60.5277 204.972 60.5829 204.917L77.9169 187.583C77.972 187.528 78.0334 187.479 78.0999 187.438L84.024 183.793C84.3197 183.611 84.4999 183.288 84.4999 182.941V179.773C84.4999 179.318 84.1926 178.92 83.7523 178.805L73.124 176.032C73.0416 176.011 72.9568 176 72.8716 176H66.0351C65.7007 176 65.3876 175.834 65.2087 175.551C64.1749 173.92 62.6361 171.091 62.9999 170C63.4999 168.5 66.9999 163.5 68.4999 162.5C69.6184 161.754 71.6928 158.344 72.7791 156.4C72.9208 156.146 72.9416 155.846 72.8415 155.573C71.8035 152.745 69.9999 147.279 69.9999 145C69.9999 142.747 71.7618 139.144 72.8051 137.332C72.9287 137.117 73.1311 136.96 73.3678 136.887C77.3021 135.671 84.4999 133.163 84.4999 132C84.4999 130.847 90.3486 127.139 93.6153 125.224C93.8606 125.08 94.033 124.841 94.091 124.562L96.4384 113.295C96.4785 113.103 96.4609 112.903 96.3879 112.72L91.5833 100.709C91.5284 100.571 91.4437 100.448 91.3353 100.347L85.1698 94.6221C84.7905 94.2699 84.7427 93.6864 85.0595 93.2771L96.4334 78.5859C96.4776 78.5288 96.5155 78.4671 96.5464 78.4018L105.391 59.7295C105.463 59.5789 105.57 59.4485 105.705 59.3502L118.236 50.1926C118.408 50.0674 118.614 50 118.826 50H130.157C130.379 50 130.595 49.9259 130.771 49.7893L134.071 47.2222C134.558 46.8437 135.268 46.9914 135.563 47.5327L140.716 56.9788C140.891 57.3001 141.228 57.5 141.594 57.5H146.732C147.185 57.5 147.581 57.1954 147.698 56.7577L149.402 50.366C149.465 50.1302 149.44 49.8812 149.332 49.6624C148.124 47.2184 146 42.6449 146 41.5C146 40.3302 153.602 35.2644 157.69 32.6941C157.891 32.5678 158.129 32.519 158.364 32.5535L174.87 34.9808C174.956 34.9936 175.041 34.9953 175.127 34.9852C182.339 34.1471 196.807 32.5 198 32.5C199.192 32.5 210.684 29.8676 216.39 28.5259C216.465 28.5083 216.539 28.5 216.616 28.5H231.838C231.945 28.5 232.052 28.4827 232.154 28.4487L240.316 25.7279C240.724 25.5918 241 25.2097 241 24.7792V18.8028C241 18.6053 240.941 18.4123 240.832 18.2481L238.168 14.2519C238.058 14.0877 238 13.8946 238 13.6972V9.60498C238 9.01336 238.511 8.55108 239.099 8.60995L247.927 9.49275C247.976 9.49757 248.022 9.50571 248.07 9.51718C249.431 9.8489 252.214 10.2863 253 9.49999C253.765 8.73534 258.853 5.16903 261.63 3.25447C261.866 3.09172 262.159 3.039 262.436 3.11286C263.898 3.50264 266.418 4.27843 267.5 4.99999C268.67 5.78018 270.253 11.0621 270.949 13.7967C270.983 13.9316 271.044 14.0567 271.129 14.1666L274.2 18.1139C274.389 18.3575 274.68 18.5 274.989 18.5H284.745C284.912 18.5 285.077 18.542 285.224 18.6221L290.168 21.319C290.382 21.4356 290.546 21.6263 290.629 21.8552L294.357 32.1084C294.449 32.359 294.636 32.5629 294.878 32.6746L307.361 38.4361C307.453 38.4784 307.551 38.5066 307.651 38.5197L318.487 39.9331C318.809 39.9751 319.089 40.1684 319.241 40.4546C320.829 43.4366 323.861 48.9811 325 50.5C326.5 52.5 330.5 61.5 331 63.5C331.5 65.5 331 74 331 76V88.5L327.692 99.842C327.576 100.239 327.716 100.665 328.044 100.916L335.811 106.855C335.935 106.95 336.08 107.015 336.234 107.044L343.764 108.456C343.919 108.485 344.065 108.55 344.19 108.646L350.287 113.336C350.426 113.444 350.535 113.586 350.602 113.748L353.97 121.928C353.99 121.976 354.006 122.025 354.018 122.076L356.816 133.733ZM309.2 340.64L308.02 339.224C307.548 338.657 307.83 337.792 308.546 337.614L310.771 337.057C310.921 337.02 311.079 337.018 311.23 337.051L315.216 337.937C315.401 337.978 315.571 338.071 315.706 338.206L316.356 338.856C316.881 339.382 316.67 340.277 315.965 340.512L314.654 340.949C314.552 340.983 314.445 341 314.338 341H309.968C309.671 341 309.39 340.868 309.2 340.64ZM297.933 342H300.18C300.657 342 301.067 341.664 301.161 341.196L301.419 339.906C301.471 339.646 301.417 339.376 301.27 339.155L297.69 333.785C297.567 333.6 297.385 333.462 297.174 333.391L292.261 331.754C291.816 331.605 291.328 331.786 291.087 332.188L290.388 333.352C290.158 333.736 290.211 334.225 290.516 334.551L297.204 341.684C297.393 341.886 297.657 342 297.933 342ZM279.958 273.281L280.423 272.932C280.768 272.674 280.908 272.225 280.772 271.816L280.072 269.715C280.024 269.574 280.009 269.423 280.028 269.275L280.467 265.763C280.489 265.591 280.465 265.415 280.398 265.255L278 259.5L275 250L270.546 240.598C270.515 240.533 270.492 240.465 270.476 240.395L269.034 234.149C269.011 234.05 269.004 233.949 269.012 233.847L269.48 227.752C269.493 227.587 269.465 227.421 269.397 227.269L267.535 223.079C267.512 223.027 267.493 222.972 267.479 222.916L266.762 220.048C266.621 219.482 266.028 219.157 265.475 219.341L264.484 219.672C263.947 219.851 263.665 220.441 263.864 220.972L264.796 223.455C264.922 223.792 264.858 224.171 264.628 224.447L262.732 226.722C262.582 226.902 262.5 227.128 262.5 227.362V232.807C262.5 232.935 262.524 233.061 262.571 233.179L263.462 235.407C263.487 235.469 263.506 235.533 263.518 235.599L264.5 241L266.442 247.797C266.48 247.931 266.546 248.055 266.635 248.162L268.846 250.816C268.947 250.937 269.076 251.032 269.221 251.095L272.203 252.373C272.396 252.455 272.558 252.597 272.666 252.777L273.87 254.784C273.955 254.926 274.004 255.086 274.012 255.251L274.487 265.223C274.495 265.404 274.553 265.58 274.654 265.73L275.5 267L278.464 272.928C278.743 273.486 279.459 273.655 279.958 273.281ZM342.084 239.508L342.29 240.743C342.397 241.383 343.075 241.754 343.671 241.498L348.525 239.418C349.054 239.191 349.283 238.566 349.026 238.051L346.659 233.318C346.556 233.112 346.527 232.878 346.577 232.653L347.476 228.607C347.492 228.536 347.5 228.463 347.5 228.39V224.535C347.5 224.201 347.667 223.889 347.945 223.703L350.5 222L362.137 212.787C362.367 212.605 362.666 212.533 362.954 212.591L364.633 212.927C364.869 212.974 365.115 212.934 365.325 212.814L368.368 211.075C368.456 211.025 368.55 210.989 368.648 210.967L372.667 210.074C372.883 210.026 373.077 209.908 373.218 209.738L375.119 207.457C375.354 207.175 375.724 207.045 376.083 207.117L377.594 207.419C377.854 207.471 378.124 207.417 378.345 207.27L385.248 202.668C385.412 202.558 385.605 202.5 385.803 202.5H387.479C387.806 202.5 388.111 202.659 388.298 202.927L391.201 207.073C391.388 207.341 391.694 207.5 392.021 207.5H394.403C394.77 207.5 395.109 207.298 395.283 206.974L401.903 194.679C401.967 194.561 402.054 194.457 402.159 194.373L404.413 192.569C404.471 192.523 404.523 192.471 404.569 192.413L406.281 190.274C406.423 190.097 406.5 189.876 406.5 189.649V185.015C406.5 184.692 406.656 184.389 406.919 184.201L409.831 182.121C409.942 182.041 410.036 181.939 410.107 181.822L414.437 174.606C414.479 174.535 414.529 174.471 414.587 174.413L416.804 172.196C416.932 172.068 417.023 171.907 417.067 171.731L418.189 167.243C418.347 166.611 417.87 166 417.219 166H413.535C413.201 166 412.888 166.167 412.703 166.445L408.074 173.39C408.025 173.463 407.966 173.529 407.9 173.587L404.067 176.941C404.022 176.98 403.981 177.023 403.944 177.069L402.17 179.287C402.059 179.426 401.987 179.593 401.961 179.77L401.558 182.59C401.521 182.852 401.381 183.089 401.169 183.249L397.9 185.7C397.648 185.889 397.5 186.185 397.5 186.5V189.5C397.5 189.815 397.352 190.111 397.1 190.3L393.9 192.7C393.648 192.889 393.5 193.185 393.5 193.5V195C393.5 195.315 393.352 195.611 393.1 195.8L389.938 198.171C389.665 198.376 389.307 198.427 388.987 198.308L385.895 197.148C385.642 197.053 385.362 197.065 385.118 197.18L377.098 200.954C377.033 200.984 376.964 201.008 376.894 201.024L366.072 203.484C366.024 203.495 365.977 203.509 365.931 203.527L357.359 206.86C357.128 206.95 356.938 207.123 356.827 207.345L355.776 209.447C355.607 209.786 355.261 210 354.882 210H352.297C352.103 210 351.913 210.056 351.751 210.162L341.11 217.102C340.746 217.339 340.577 217.784 340.692 218.203L341.899 222.631C341.964 222.869 341.939 223.122 341.829 223.342L341.605 223.789C341.536 223.928 341.5 224.081 341.5 224.236V233.219C341.5 233.678 341.812 234.078 342.257 234.189L342.886 234.346C343.261 234.44 343.548 234.742 343.624 235.121L343.895 236.475C343.96 236.803 343.858 237.142 343.621 237.378L342.364 238.636C342.135 238.864 342.031 239.189 342.084 239.508ZM419.624 293.067L424.517 288.75C425.208 288.14 424.776 287 423.855 287H422.64C422.547 287 422.455 286.987 422.365 286.961L421.019 286.577C420.209 286.346 420.03 285.279 420.72 284.796L423.023 283.184C423.533 282.827 423.597 282.097 423.157 281.657L422.266 280.766C422.094 280.594 421.991 280.367 421.975 280.125L421.511 273.168C421.504 273.057 421.515 272.945 421.544 272.838L422.946 267.697C422.982 267.567 423.043 267.446 423.126 267.34L430.5 258L434.407 252.628C434.469 252.543 434.543 252.469 434.628 252.407L439.857 248.604C439.951 248.535 440.057 248.484 440.17 248.451L449.702 245.728C450.165 245.596 450.656 245.812 450.871 246.242L451.605 247.71C451.831 248.161 451.685 248.71 451.265 248.99L450.621 249.419C450.541 249.473 450.453 249.514 450.361 249.543L444.259 251.42C444.089 251.472 443.937 251.569 443.816 251.7L438.5 257.5L433.559 263.924C433.52 263.974 433.485 264.029 433.457 264.086L429.583 271.833C429.528 271.943 429.494 272.063 429.482 272.186L428.5 282.5L428.03 288.135C428.011 288.371 427.908 288.592 427.741 288.759L421.853 294.646C421.631 294.869 421.316 294.974 421.005 294.929L420.145 294.806C419.3 294.686 418.985 293.631 419.624 293.067ZM110.696 362.794L109.875 361.563C109.649 361.223 109.652 360.779 109.883 360.442L115 353L120.5 346L124.882 341.131C124.96 341.044 125.052 340.972 125.155 340.917L132.178 337.172C132.386 337.061 132.548 336.88 132.636 336.661L133.328 334.931C133.437 334.657 133.661 334.446 133.94 334.353L138 333L141.493 331.447C142.033 331.208 142.661 331.485 142.848 332.045L143.726 334.677C143.883 335.149 143.669 335.665 143.224 335.888L142.237 336.381C142.082 336.459 141.949 336.576 141.853 336.721L141.055 337.918C141.018 337.972 140.976 338.023 140.93 338.07L139.104 339.896C139.035 339.965 138.956 340.023 138.871 340.07L132.61 343.441C132.537 343.48 132.469 343.528 132.408 343.585L114.076 360.43C114.026 360.476 113.98 360.528 113.939 360.585L112.342 362.821C111.935 363.39 111.084 363.377 110.696 362.794ZM139.5 250L136.304 247.204C135.869 246.823 135.847 246.153 136.256 245.744L136.333 245.667C136.443 245.557 136.577 245.474 136.724 245.425L139.206 244.598C139.398 244.534 139.604 244.53 139.797 244.585L142.751 245.429C142.914 245.475 143.063 245.563 143.183 245.683L145.405 247.905C145.468 247.968 145.522 248.039 145.566 248.116L147.288 251.129C147.423 251.366 147.649 251.537 147.914 251.603L149.393 251.973C149.464 251.991 149.533 252.016 149.598 252.049L151.947 253.224C152.286 253.393 152.5 253.739 152.5 254.118V255C152.5 255.315 152.352 255.611 152.1 255.8L150.689 256.858C150.565 256.951 150.464 257.072 150.394 257.211L150.053 257.894C149.768 258.463 149.031 258.625 148.534 258.227L147.171 257.137C147.058 257.047 146.966 256.933 146.902 256.804L145.63 254.26C145.545 254.09 145.413 253.948 145.25 253.85L143 252.5L139.5 250ZM129.397 236.703L127.703 238.68C127.324 239.122 126.648 239.148 126.236 238.736L125.293 237.793C125.105 237.605 124.851 237.5 124.586 237.5H123.159C122.759 237.5 122.398 237.262 122.24 236.894L121 234L119.095 230.666C119.032 230.556 118.991 230.436 118.973 230.311L118.515 227.103C118.505 227.034 118.488 226.967 118.464 226.902L116.565 221.68C116.522 221.561 116.457 221.451 116.373 221.357L112.696 217.221C112.568 217.077 112.484 216.899 112.455 216.708L111.628 211.334C111.554 210.852 111.838 210.387 112.3 210.233L113.258 209.914C113.883 209.705 114.139 208.959 113.774 208.411L112.756 206.885C112.594 206.641 112.546 206.337 112.627 206.055L112.93 204.994C113.16 204.189 114.219 204.006 114.705 204.688L116 206.5L118.424 210.378C118.474 210.459 118.536 210.532 118.607 210.595L122.8 214.322C122.931 214.439 123.029 214.587 123.084 214.754L123.923 217.271C123.974 217.421 123.987 217.582 123.963 217.739L123.041 223.73C123.014 223.907 123.035 224.088 123.101 224.254L123.928 226.321C123.976 226.439 124 226.565 124 226.693V229C124 229.315 124.148 229.611 124.4 229.8L127.6 232.2C127.852 232.389 128 232.685 128 233V233.586C128 233.851 128.105 234.105 128.293 234.293L129.345 235.345C129.715 235.715 129.737 236.306 129.397 236.703ZM210.5 204.198V202.5C210.5 202.223 210.276 202 210 202H209.5C208.948 202 208.5 201.552 208.5 201V199.599C208.5 199.533 208.493 199.467 208.48 199.403L208.138 197.691C208.055 197.277 208.242 196.855 208.604 196.637L210.211 195.673C210.398 195.561 210.544 195.39 210.625 195.187L211.5 193L212.449 190.154C212.483 190.052 212.5 189.945 212.5 189.838V186.583C212.5 186.528 212.495 186.473 212.486 186.418L212 183.5L211.645 181.014C211.568 180.479 211.984 180 212.524 180C212.821 180 213.099 179.852 213.264 179.604L213.703 178.945C213.888 178.667 214.201 178.5 214.535 178.5H215.5C215.815 178.5 216.111 178.648 216.3 178.9L216.835 179.613C217.19 180.087 217.058 180.765 216.549 181.07L215.794 181.524C215.346 181.792 215.18 182.361 215.414 182.828L215.723 183.447C215.893 183.786 216.239 184 216.618 184H217.401C217.467 184 217.532 183.993 217.597 183.981L218.804 183.739C219.423 183.615 220 184.089 220 184.72V187.197C220 187.395 220.058 187.588 220.168 187.752L220.703 188.555C220.888 188.833 221.201 189 221.535 189H222.586C222.851 189 223.105 189.105 223.293 189.293L223.99 189.99C224.295 190.295 224.37 190.76 224.178 191.145L223.674 192.152C223.562 192.376 223.538 192.633 223.607 192.874L224.293 195.276C224.406 195.671 224.825 195.892 225.214 195.762C225.629 195.624 226.071 195.884 226.15 196.315L226.451 197.945C226.483 198.118 226.469 198.297 226.409 198.464L225.67 200.526C225.563 200.824 225.603 201.155 225.779 201.419L226.27 202.155C226.417 202.376 226.471 202.646 226.419 202.906L225.581 207.094C225.529 207.354 225.376 207.583 225.155 207.73L224.322 208.286C224.115 208.424 223.966 208.634 223.906 208.875L223.62 210.02C223.544 210.322 223.614 210.643 223.809 210.887L225.007 212.384C225.296 212.745 225.3 213.258 225.016 213.623L222.571 216.766C222.249 217.18 221.662 217.275 221.226 216.984L221.121 216.914C220.753 216.669 220.266 216.694 219.926 216.978L217.718 218.818C217.576 218.937 217.469 219.093 217.41 219.27L216.728 221.316C216.592 221.725 216.21 222 215.779 222H215.617C215.021 222 214.557 221.482 214.623 220.89L214.887 218.518C214.936 218.079 214.479 217.761 214.084 217.958C213.658 218.171 213.178 217.786 213.294 217.324L213.315 217.241C213.409 216.865 213.124 216.5 212.736 216.5H212.031C211.507 216.5 211.123 216.008 211.25 215.5C211.377 214.992 210.993 214.5 210.469 214.5H210.377C209.892 214.5 209.5 214.107 209.5 213.623V208C209.5 207.685 209.648 207.389 209.9 207.2L210.743 206.568C211.168 206.249 211.27 205.654 210.975 205.213L210.668 204.752C210.558 204.588 210.5 204.395 210.5 204.198ZM186.353 148.608L184.111 148.982C184.039 148.994 183.972 149.028 183.921 149.079C183.732 149.268 183.41 149.185 183.336 148.928L182.5 146L181.06 141.679C181.02 141.561 180.959 141.451 180.879 141.355L178.5 138.5L173.584 130.634C173.528 130.545 173.487 130.448 173.462 130.347L172.519 126.578C172.506 126.526 172.489 126.475 172.468 126.426L171.03 123.071C171.01 123.024 170.986 122.978 170.959 122.935L168.571 119.114C168.524 119.038 168.487 118.957 168.461 118.871L167 114L166.077 110.309C166.027 110.108 165.915 109.927 165.758 109.793L162.572 107.062C162.524 107.021 162.472 106.984 162.417 106.953L159.504 105.288C159.192 105.11 159 104.779 159 104.42V102.083C159 102.028 159.004 101.973 159.013 101.918L159.476 99.1438C159.492 99.0484 159.494 98.9513 159.482 98.8553L159.11 95.8792C159.047 95.3774 159.369 94.9077 159.86 94.7851L160.798 94.5504C160.931 94.5171 161.07 94.5116 161.205 94.5342L163.498 94.9163C163.813 94.9689 164.085 95.1693 164.228 95.4554L166.427 99.8548C166.475 99.951 166.539 100.039 166.615 100.115L169.207 102.707C169.395 102.895 169.5 103.149 169.5 103.414V105.586C169.5 105.851 169.605 106.105 169.793 106.293L170.654 107.154C170.872 107.372 170.977 107.679 170.939 107.985L170.623 110.515C170.57 110.936 171.008 111.246 171.388 111.056C171.461 111.019 171.543 111 171.625 111H173.779C174.21 111 174.592 111.275 174.728 111.684L175.334 113.503C175.438 113.814 175.382 114.157 175.186 114.419L174.394 115.474C174.155 115.793 174.128 116.224 174.326 116.57L176 119.5L176.597 120.695C176.826 121.152 177.364 121.364 177.843 121.184L179.899 120.413C180.476 120.196 181.11 120.549 181.23 121.153L181.383 121.917C181.455 122.276 181.324 122.646 181.043 122.881L179.19 124.425C178.798 124.752 178.715 125.322 178.998 125.748L179.203 126.055C179.388 126.333 179.701 126.5 180.035 126.5H181.34C181.741 126.5 182.102 126.738 182.26 127.106L183.5 130L185.948 135.386C185.983 135.462 186.026 135.533 186.078 135.597L189.227 139.534C189.625 140.031 189.463 140.768 188.893 141.053L188.187 141.406C188.064 141.468 187.954 141.555 187.866 141.661L186.702 143.058C186.224 143.631 186.632 144.5 187.377 144.5C188.16 144.5 188.553 145.447 187.999 146.001L187.696 146.304C187.568 146.432 187.477 146.593 187.433 146.769L187.159 147.864C187.062 148.25 186.746 148.542 186.353 148.608ZM336.975 502.72L334.916 520.841C334.801 521.854 336.098 522.37 336.709 521.554L338.85 518.699C338.949 518.568 339.013 518.415 339.038 518.254L341.488 502.577C341.496 502.526 341.5 502.474 341.5 502.422V491.579C341.5 491.527 341.504 491.474 341.512 491.421L343.488 479.077C343.496 479.026 343.508 478.975 343.524 478.926L349.417 460.755C349.471 460.588 349.48 460.409 349.444 460.237L348.076 453.853C348.027 453.625 348.059 453.387 348.168 453.18L353.342 443.302C353.444 443.106 353.479 442.882 353.441 442.664L352.085 434.983C352.031 434.678 352.122 434.366 352.33 434.137L356.791 429.23C356.927 429.08 357.015 428.893 357.042 428.692L358.482 418.129C358.494 418.044 358.494 417.956 358.484 417.87L357.042 406.34C357.015 406.12 356.915 405.915 356.757 405.757L352 401L343.862 391.905C343.636 391.653 343.554 391.302 343.643 390.975L344.899 386.369C344.964 386.131 344.939 385.878 344.829 385.658L341.6 379.201C341.534 379.068 341.44 378.953 341.324 378.861L334.676 373.639C334.56 373.547 334.466 373.431 334.4 373.299L331.223 366.947C330.891 366.282 329.975 366.2 329.529 366.794L326.046 371.438C326.03 371.46 326.014 371.483 326 371.506C325.987 371.526 325.975 371.547 325.964 371.568L322.547 377.974C322.259 378.514 322.52 379.183 323.097 379.387L330.051 381.842C330.335 381.942 330.559 382.165 330.66 382.448L332.942 388.837C332.98 388.945 333 389.059 333 389.173V395.523C333 395.825 333.136 396.11 333.371 396.3L343.168 404.231C343.38 404.403 343.513 404.654 343.535 404.926L346.481 440.272C346.493 440.422 346.472 440.573 346.418 440.714L341.567 453.327C341.522 453.441 341.5 453.563 341.5 453.686V464.797C341.5 464.931 341.473 465.064 341.42 465.187L334.579 481.313C334.527 481.436 334.5 481.569 334.5 481.703V494.838C334.5 494.945 334.517 495.052 334.551 495.154L336.93 502.29C336.976 502.428 336.991 502.575 336.975 502.72ZM253.5 495.382V493.803C253.5 493.605 253.441 493.412 253.332 493.248L253.184 493.025C252.831 492.497 253.054 491.778 253.644 491.542L254.556 491.178C254.837 491.065 255.052 490.832 255.14 490.543L256.944 484.681C256.981 484.562 256.995 484.436 256.985 484.311L256.528 478.362C256.51 478.128 256.575 477.895 256.711 477.704L258.814 474.761C258.935 474.591 259 474.388 259 474.18V471.176C259 471.06 259.02 470.944 259.06 470.834L262.962 460.103C262.987 460.034 263.02 459.969 263.059 459.908L266.43 454.609C266.477 454.537 266.513 454.459 266.539 454.377L270.459 442.127C270.486 442.043 270.502 441.955 270.506 441.867L270.988 431.269C270.996 431.093 271.05 430.922 271.145 430.774L275.251 424.387C275.409 424.141 275.452 423.839 275.368 423.559L274.511 420.704C274.287 419.957 273.332 419.742 272.81 420.322L269.889 423.567C269.649 423.835 269.57 424.211 269.684 424.552L270.061 425.684C270.277 426.331 269.795 427 269.112 427H268.118C267.739 427 267.393 427.214 267.223 427.553L264.786 432.428C264.612 432.777 264.656 433.195 264.9 433.5L266.177 435.097C266.38 435.35 266.447 435.685 266.358 435.996L264.555 442.307C264.519 442.434 264.457 442.553 264.374 442.657L262.629 444.838C262.544 444.945 262.481 445.068 262.445 445.2L261.02 450.428C261.006 450.476 260.99 450.523 260.97 450.568L253.566 467.351C253.522 467.45 253.495 467.555 253.485 467.662L251.533 488.641C251.512 488.873 251.41 489.09 251.245 489.255L249.888 490.612C249.646 490.854 249.545 491.202 249.619 491.536L250.397 495.035C250.462 495.329 250.656 495.578 250.926 495.713L252.053 496.276C252.718 496.609 253.5 496.125 253.5 495.382Z" fill="#98c9f5"/>
<path fill-rule="evenodd" clip-rule="evenodd" d="M326 371.506C326.014 371.483 326.03 371.46 326.046 371.438Z" fill="#98c9f5"/>
<path d="M109.875 361.563L110.696 362.794C111.084 363.377 111.935 363.39 112.342 362.821L113.939 360.585C113.98 360.528 114.026 360.476 114.076 360.43L132.408 343.585C132.469 343.528 132.537 343.48 132.61 343.441L138.871 340.07C138.956 340.023 139.035 339.965 139.104 339.896L140.93 338.07C140.976 338.023 141.018 337.972 141.055 337.918L141.853 336.721C141.949 336.576 142.082 336.459 142.237 336.381L143.224 335.888C143.669 335.665 143.883 335.149 143.726 334.677L142.848 332.045C142.661 331.485 142.033 331.208 141.493 331.447L138 333L133.94 334.353C133.661 334.446 133.437 334.657 133.328 334.931L132.636 336.661C132.548 336.88 132.386 337.061 132.178 337.172L125.155 340.917C125.052 340.972 124.96 341.044 124.882 341.131L120.5 346L115 353L109.883 360.442C109.652 360.779 109.649 361.223 109.875 361.563Z" fill="#98c9f5"/>
<path d="M127.703 238.68L129.397 236.703C129.737 236.306 129.715 235.715 129.345 235.345L128.293 234.293C128.105 234.105 128 233.851 128 233.586V233C128 232.685 127.852 232.389 127.6 232.2L124.4 229.8C124.148 229.611 124 229.315 124 229V226.693C124 226.565 123.976 226.439 123.928 226.321L123.101 224.254C123.035 224.088 123.014 223.907 123.041 223.73L123.963 217.739C123.987 217.582 123.974 217.421 123.923 217.271L123.084 214.754C123.029 214.587 122.931 214.439 122.8 214.322L118.607 210.595C118.536 210.532 118.474 210.459 118.424 210.378L116 206.5L114.705 204.688C114.219 204.006 113.16 204.189 112.93 204.994L112.627 206.055C112.546 206.337 112.594 206.641 112.756 206.885L113.774 208.411C114.139 208.959 113.883 209.705 113.258 209.914L112.3 210.233C111.838 210.387 111.554 210.852 111.628 211.334L112.455 216.708C112.484 216.899 112.568 217.077 112.696 217.221L116.373 221.357C116.457 221.451 116.522 221.561 116.565 221.68L118.464 226.902C118.488 226.967 118.505 227.034 118.515 227.103L118.973 230.311C118.991 230.436 119.032 230.556 119.095 230.666L121 234L122.24 236.894C122.398 237.262 122.759 237.5 123.159 237.5H124.586C124.851 237.5 125.105 237.605 125.293 237.793L126.236 238.736C126.648 239.148 127.324 239.122 127.703 238.68Z" fill="#98c9f5"/>
<path d="M136.304 247.204L139.5 250L143 252.5L145.25 253.85C145.413 253.948 145.545 254.09 145.63 254.26L146.902 256.804C146.966 256.933 147.058 257.047 147.171 257.137L148.534 258.227C149.031 258.625 149.768 258.463 150.053 257.894L150.394 257.211C150.464 257.072 150.565 256.951 150.689 256.858L152.1 255.8C152.352 255.611 152.5 255.315 152.5 255V254.118C152.5 253.739 152.286 253.393 151.947 253.224L149.598 252.049C149.533 252.016 149.464 251.991 149.393 251.973L147.914 251.603C147.649 251.537 147.423 251.366 147.288 251.129L145.566 248.116C145.522 248.039 145.468 247.968 145.405 247.905L143.183 245.683C143.063 245.563 142.914 245.475 142.751 245.429L139.797 244.585C139.604 244.53 139.398 244.534 139.206 244.598L136.724 245.425C136.577 245.474 136.443 245.557 136.333 245.667L136.256 245.744C135.847 246.153 135.869 246.823 136.304 247.204Z" fill="#98c9f5"/>
<path d="M210.5 202.5V204.198C210.5 204.395 210.558 204.588 210.668 204.752L210.975 205.213C211.27 205.654 211.168 206.249 210.743 206.568L209.9 207.2C209.648 207.389 209.5 207.685 209.5 208V213.623C209.5 214.107 209.892 214.5 210.377 214.5H210.469C210.993 214.5 211.377 214.992 211.25 215.5C211.123 216.008 211.507 216.5 212.031 216.5H212.736C213.124 216.5 213.409 216.865 213.315 217.241L213.294 217.324C213.178 217.786 213.658 218.171 214.084 217.958C214.479 217.761 214.936 218.079 214.887 218.518L214.623 220.89C214.557 221.482 215.021 222 215.617 222H215.779C216.21 222 216.592 221.725 216.728 221.316L217.41 219.27C217.469 219.093 217.576 218.937 217.718 218.818L219.926 216.978C220.266 216.694 220.753 216.669 221.121 216.914L221.226 216.984C221.662 217.275 222.249 217.18 222.571 216.766L225.016 213.623C225.3 213.258 225.296 212.745 225.007 212.384L223.809 210.887C223.614 210.643 223.544 210.322 223.62 210.02L223.906 208.875C223.966 208.634 224.115 208.424 224.322 208.286L225.155 207.73C225.376 207.583 225.529 207.354 225.581 207.094L226.419 202.906C226.471 202.646 226.417 202.376 226.27 202.155L225.779 201.419C225.603 201.155 225.563 200.824 225.67 200.526L226.409 198.464C226.469 198.297 226.483 198.118 226.451 197.945L226.15 196.315C226.071 195.884 225.629 195.624 225.214 195.762C224.825 195.892 224.406 195.671 224.293 195.276L223.607 192.874C223.538 192.633 223.562 192.376 223.674 192.152L224.178 191.145C224.37 190.76 224.295 190.295 223.99 189.99L223.293 189.293C223.105 189.105 222.851 189 222.586 189H221.535C221.201 189 220.888 188.833 220.703 188.555L220.168 187.752C220.058 187.588 220 187.395 220 187.197V184.72C220 184.089 219.423 183.615 218.804 183.739L217.597 183.981C217.532 183.993 217.467 184 217.401 184H216.618C216.239 184 215.893 183.786 215.723 183.447L215.414 182.828C215.18 182.361 215.346 181.792 215.794 181.524L216.549 181.07C217.058 180.765 217.19 180.087 216.835 179.613L216.3 178.9C216.111 178.648 215.815 178.5 215.5 178.5H214.535C214.201 178.5 213.888 178.667 213.703 178.945L213.264 179.604C213.099 179.852 212.821 180 212.524 180C211.984 180 211.568 180.479 211.645 181.014L212 183.5L212.486 186.418C212.495 186.473 212.5 186.528 212.5 186.583V189.838C212.5 189.945 212.483 190.052 212.449 190.154L211.5 193L210.625 195.187C210.544 195.39 210.398 195.561 210.211 195.673L208.604 196.637C208.242 196.855 208.055 197.277 208.138 197.691L208.48 199.403C208.493 199.467 208.5 199.533 208.5 199.599V201C208.5 201.552 208.948 202 209.5 202H210C210.276 202 210.5 202.223 210.5 202.5Z" fill="#98c9f5"/>
<path d="M184.111 148.982L186.353 148.608C186.746 148.542 187.062 148.25 187.159 147.864L187.433 146.769C187.477 146.593 187.568 146.432 187.696 146.304L187.999 146.001C188.553 145.447 188.16 144.5 187.377 144.5C186.632 144.5 186.224 143.631 186.702 143.058L187.866 141.661C187.954 141.555 188.064 141.468 188.187 141.406L188.893 141.053C189.463 140.768 189.625 140.031 189.227 139.534L186.078 135.597C186.026 135.533 185.983 135.462 185.948 135.386L183.5 130L182.26 127.106C182.102 126.738 181.741 126.5 181.34 126.5H180.035C179.701 126.5 179.388 126.333 179.203 126.055L178.998 125.748C178.715 125.322 178.798 124.752 179.19 124.425L181.043 122.881C181.324 122.646 181.455 122.276 181.383 121.917L181.23 121.153C181.11 120.549 180.476 120.196 179.899 120.413L177.843 121.184C177.364 121.364 176.826 121.152 176.597 120.695L176 119.5L174.326 116.57C174.128 116.224 174.155 115.793 174.394 115.474L175.186 114.419C175.382 114.157 175.438 113.814 175.334 113.503L174.728 111.684C174.592 111.275 174.21 111 173.779 111H171.625C171.543 111 171.461 111.019 171.388 111.056C171.008 111.246 170.57 110.936 170.623 110.515L170.939 107.985C170.977 107.679 170.872 107.372 170.654 107.154L169.793 106.293C169.605 106.105 169.5 105.851 169.5 105.586V103.414C169.5 103.149 169.395 102.895 169.207 102.707L166.615 100.115C166.539 100.039 166.475 99.951 166.427 99.8548L164.228 95.4554C164.085 95.1693 163.813 94.9689 163.498 94.9163L161.205 94.5342C161.07 94.5116 160.931 94.5171 160.798 94.5504L159.86 94.7851C159.369 94.9077 159.047 95.3774 159.11 95.8792L159.482 98.8553C159.494 98.9513 159.492 99.0484 159.476 99.1438L159.013 101.918C159.004 101.973 159 102.028 159 102.083V104.42C159 104.779 159.192 105.11 159.504 105.288L162.417 106.953C162.472 106.984 162.524 107.021 162.572 107.062L165.758 109.793C165.915 109.927 166.027 110.108 166.077 110.309L167 114L168.461 118.871C168.487 118.957 168.524 119.038 168.571 119.114L170.959 122.935C170.986 122.978 171.01 123.024 171.03 123.071L172.468 126.426C172.489 126.475 172.506 126.526 172.519 126.578L173.462 130.347C173.487 130.448 173.528 130.545 173.584 130.634L178.5 138.5L180.879 141.355C180.959 141.451 181.02 141.561 181.06 141.679L182.5 146L183.336 148.928C183.41 149.185 183.732 149.268 183.921 149.079C183.972 149.028 184.039 148.994 184.111 148.982Z" fill="#98c9f5"/>
<path d="M280.423 272.932L279.958 273.281C279.459 273.655 278.743 273.486 278.464 272.928L275.5 267L274.654 265.73C274.553 265.58 274.495 265.404 274.487 265.223L274.012 255.251C274.004 255.086 273.955 254.926 273.87 254.784L272.666 252.777C272.558 252.597 272.396 252.455 272.203 252.373L269.221 251.095C269.076 251.032 268.947 250.937 268.846 250.816L266.635 248.162C266.546 248.055 266.48 247.931 266.442 247.797L264.5 241L263.518 235.599C263.506 235.533 263.487 235.469 263.462 235.407L262.571 233.179C262.524 233.061 262.5 232.935 262.5 232.807V227.362C262.5 227.128 262.582 226.902 262.732 226.722L264.628 224.447C264.858 224.171 264.922 223.792 264.796 223.455L263.864 220.972C263.665 220.441 263.947 219.851 264.484 219.672L265.475 219.341C266.028 219.157 266.621 219.482 266.762 220.048L267.479 222.916C267.493 222.972 267.512 223.027 267.535 223.079L269.397 227.269C269.465 227.421 269.493 227.587 269.48 227.752L269.012 233.847C269.004 233.949 269.011 234.05 269.034 234.149L270.476 240.395C270.492 240.465 270.515 240.533 270.546 240.598L275 250L278 259.5L280.398 265.255C280.465 265.415 280.489 265.591 280.467 265.763L280.028 269.275C280.009 269.423 280.024 269.574 280.072 269.715L280.772 271.816C280.908 272.225 280.768 272.674 280.423 272.932Z" fill="#98c9f5"/>
<path d="M300.18 342H297.933C297.657 342 297.393 341.886 297.204 341.684L290.516 334.551C290.211 334.225 290.158 333.736 290.388 333.352L291.087 332.188C291.328 331.786 291.816 331.605 292.261 331.754L297.174 333.391C297.385 333.462 297.567 333.6 297.69 333.785L301.27 339.155C301.417 339.376 301.471 339.646 301.419 339.906L301.161 341.196C301.067 341.664 300.657 342 300.18 342Z" fill="#98c9f5"/>
<path d="M308.02 339.224L309.2 340.64C309.39 340.868 309.671 341 309.968 341H314.338C314.445 341 314.552 340.983 314.654 340.949L315.965 340.512C316.67 340.277 316.881 339.382 316.356 338.856L315.706 338.206C315.571 338.071 315.401 337.978 315.216 337.937L311.23 337.051C311.079 337.018 310.921 337.02 310.771 337.057L308.546 337.614C307.83 337.792 307.548 338.657 308.02 339.224Z" fill="#98c9f5"/>
<path d="M334.916 520.841L336.975 502.72C336.991 502.575 336.976 502.428 336.93 502.29L334.551 495.154C334.517 495.052 334.5 494.945 334.5 494.838V481.703C334.5 481.569 334.527 481.436 334.579 481.313L341.42 465.187C341.473 465.064 341.5 464.931 341.5 464.797V453.686C341.5 453.563 341.522 453.441 341.567 453.327L346.418 440.714C346.472 440.573 346.493 440.422 346.481 440.272L343.535 404.926C343.513 404.654 343.38 404.403 343.168 404.231L333.371 396.3C333.136 396.11 333 395.825 333 395.523V389.173C333 389.059 332.98 388.945 332.942 388.837L330.66 382.448C330.559 382.165 330.335 381.942 330.051 381.842L323.097 379.387C322.52 379.183 322.259 378.514 322.547 377.974L325.964 371.568C325.975 371.547 325.987 371.526 326 371.506C326.014 371.483 326.03 371.46 326.046 371.438L329.529 366.794C329.975 366.2 330.891 366.282 331.223 366.947L334.4 373.299C334.466 373.431 334.56 373.547 334.676 373.639L341.324 378.861C341.44 378.953 341.534 379.068 341.6 379.201L344.829 385.658C344.939 385.878 344.964 386.131 344.899 386.369L343.643 390.975C343.554 391.302 343.636 391.653 343.862 391.905L352 401L356.757 405.757C356.915 405.915 357.015 406.12 357.042 406.34L358.484 417.87C358.494 417.956 358.494 418.044 358.482 418.129L357.042 428.692C357.015 428.893 356.927 429.08 356.791 429.23L352.33 434.137C352.122 434.366 352.031 434.678 352.085 434.983L353.441 442.664C353.479 442.882 353.444 443.106 353.342 443.302L348.168 453.18C348.059 453.387 348.027 453.625 348.076 453.853L349.444 460.237C349.48 460.409 349.471 460.588 349.417 460.755L343.524 478.926C343.508 478.975 343.496 479.026 343.488 479.077L341.512 491.421C341.504 491.474 341.5 491.527 341.5 491.579V502.422C341.5 502.474 341.496 502.526 341.488 502.577L339.038 518.254C339.013 518.415 338.949 518.568 338.85 518.699L336.709 521.554C336.098 522.37 334.801 521.854 334.916 520.841Z" fill="#98c9f5"/>
<path d="M253.5 493.803V495.382C253.5 496.125 252.718 496.609 252.053 496.276L250.926 495.713C250.656 495.578 250.462 495.329 250.397 495.035L249.619 491.536C249.545 491.202 249.646 490.854 249.888 490.612L251.245 489.255C251.41 489.09 251.512 488.873 251.533 488.641L253.485 467.662C253.495 467.555 253.522 467.45 253.566 467.351L260.97 450.568C260.99 450.523 261.006 450.476 261.02 450.428L262.445 445.2C262.481 445.068 262.544 444.945 262.629 444.838L264.374 442.657C264.457 442.553 264.519 442.434 264.555 442.307L266.358 435.996C266.447 435.685 266.38 435.35 266.177 435.097L264.9 433.5C264.656 433.195 264.612 432.777 264.786 432.428L267.223 427.553C267.393 427.214 267.739 427 268.118 427H269.112C269.795 427 270.277 426.331 270.061 425.684L269.684 424.552C269.57 424.211 269.649 423.835 269.889 423.567L272.81 420.322C273.332 419.742 274.287 419.957 274.511 420.704L275.368 423.559C275.452 423.839 275.409 424.141 275.251 424.387L271.145 430.774C271.05 430.922 270.996 431.093 270.988 431.269L270.506 441.867C270.502 441.955 270.486 442.043 270.459 442.127L266.539 454.377C266.513 454.459 266.477 454.537 266.43 454.609L263.059 459.908C263.02 459.969 262.987 460.034 262.962 460.103L259.06 470.834C259.02 470.944 259 471.06 259 471.176V474.18C259 474.388 258.935 474.591 258.814 474.761L256.711 477.704C256.575 477.895 256.51 478.128 256.528 478.362L256.985 484.311C256.995 484.436 256.981 484.562 256.944 484.681L255.14 490.543C255.052 490.832 254.837 491.065 254.556 491.178L253.644 491.542C253.054 491.778 252.831 492.497 253.184 493.025L253.332 493.248C253.441 493.412 253.5 493.605 253.5 493.803Z" fill="#98c9f5"/>
<path d="M424.517 288.75L419.624 293.067C418.985 293.631 419.3 294.686 420.145 294.806L421.005 294.929C421.316 294.974 421.631 294.869 421.853 294.646L427.741 288.759C427.908 288.592 428.011 288.371 428.03 288.135L428.5 282.5L429.482 272.186C429.494 272.063 429.528 271.943 429.583 271.833L433.457 264.086C433.485 264.029 433.52 263.974 433.559 263.924L438.5 257.5L443.816 251.7C443.937 251.569 444.089 251.472 444.259 251.42L450.361 249.543C450.453 249.514 450.541 249.473 450.621 249.419L451.265 248.99C451.685 248.71 451.831 248.161 451.605 247.71L450.871 246.242C450.656 245.812 450.165 245.596 449.702 245.728L440.17 248.451C440.057 248.484 439.951 248.535 439.857 248.604L434.628 252.407C434.543 252.469 434.469 252.543 434.407 252.628L430.5 258L423.126 267.34C423.043 267.446 422.982 267.567 422.946 267.697L421.544 272.838C421.515 272.945 421.504 273.057 421.511 273.168L421.975 280.125C421.991 280.367 422.094 280.594 422.266 280.766L423.157 281.657C423.597 282.097 423.533 282.827 423.023 283.184L420.72 284.796C420.03 285.279 420.209 286.346 421.019 286.577L422.365 286.961C422.455 286.987 422.547 287 422.64 287H423.855C424.776 287 425.208 288.14 424.517 288.75Z" fill="#98c9f5"/>
<path d="M342.29 240.743L342.084 239.508C342.031 239.189 342.135 238.864 342.364 238.636L343.621 237.378C343.858 237.142 343.96 236.803 343.895 236.475L343.624 235.121C343.548 234.742 343.261 234.44 342.886 234.346L342.257 234.189C341.812 234.078 341.5 233.678 341.5 233.219V224.236C341.5 224.081 341.536 223.928 341.605 223.789L341.829 223.342C341.939 223.122 341.964 222.869 341.899 222.631L340.692 218.203C340.577 217.784 340.746 217.339 341.11 217.102L351.751 210.162C351.913 210.056 352.103 210 352.297 210H354.882C355.261 210 355.607 209.786 355.776 209.447L356.827 207.345C356.938 207.123 357.128 206.95 357.359 206.86L365.931 203.527C365.977 203.509 366.024 203.495 366.072 203.484L376.894 201.024C376.964 201.008 377.033 200.984 377.098 200.954L385.118 197.18C385.362 197.065 385.642 197.053 385.895 197.148L388.987 198.308C389.307 198.427 389.665 198.376 389.938 198.171L393.1 195.8C393.352 195.611 393.5 195.315 393.5 195V193.5C393.5 193.185 393.648 192.889 393.9 192.7L397.1 190.3C397.352 190.111 397.5 189.815 397.5 189.5V186.5C397.5 186.185 397.648 185.889 397.9 185.7L401.169 183.249C401.381 183.089 401.521 182.852 401.558 182.59L401.961 179.77C401.987 179.593 402.059 179.426 402.17 179.287L403.944 177.069C403.981 177.023 404.022 176.98 404.067 176.941L407.9 173.587C407.966 173.529 408.025 173.463 408.074 173.39L412.703 166.445C412.888 166.167 413.201 166 413.535 166H417.219C417.87 166 418.347 166.611 418.189 167.243L417.067 171.731C417.023 171.907 416.932 172.068 416.804 172.196L414.587 174.413C414.529 174.471 414.479 174.535 414.437 174.606L410.107 181.822C410.036 181.939 409.942 182.041 409.831 182.121L406.919 184.201C406.656 184.389 406.5 184.692 406.5 185.015V189.649C406.5 189.876 406.423 190.097 406.281 190.274L404.569 192.413C404.523 192.471 404.471 192.523 404.413 192.569L402.159 194.373C402.054 194.457 401.967 194.561 401.903 194.679L395.283 206.974C395.109 207.298 394.77 207.5 394.403 207.5H392.021C391.694 207.5 391.388 207.341 391.201 207.073L388.298 202.927C388.111 202.659 387.806 202.5 387.479 202.5H385.803C385.605 202.5 385.412 202.558 385.248 202.668L378.345 207.27C378.124 207.417 377.854 207.471 377.594 207.419L376.083 207.117C375.724 207.045 375.354 207.175 375.119 207.457L373.218 209.738C373.077 209.908 372.883 210.026 372.667 210.074L368.648 210.967C368.55 210.989 368.456 211.025 368.368 211.075L365.325 212.814C365.115 212.934 364.869 212.974 364.633 212.927L362.954 212.591C362.666 212.533 362.367 212.605 362.137 212.787L350.5 222L347.945 223.703C347.667 223.889 347.5 224.201 347.5 224.535V228.39C347.5 228.463 347.492 228.536 347.476 228.607L346.577 232.653C346.527 232.878 346.556 233.112 346.659 233.318L349.026 238.051C349.283 238.566 349.054 239.191 348.525 239.418L343.671 241.498C343.075 241.754 342.397 241.383 342.29 240.743Z" fill="#98c9f5"/>
<path fill-rule="evenodd" clip-rule="evenodd" d="M326 371.506C326.002 371.502 326.004 371.499 326.006 371.495C326.01 371.489 326.014 371.483 326.018 371.477L326.021 371.474C326.029 371.462 326.037 371.45 326.046 371.438" fill="#755C30"/>
<path fill-rule="evenodd" clip-rule="evenodd" d="M356.816 133.733C356.924 134.183 357.326 134.5 357.788 134.5H380.363C380.454 134.5 380.544 134.512 380.632 134.537L392.674 137.909C392.885 137.968 393.11 137.956 393.315 137.874L412.66 130.136C412.879 130.048 413.123 130.041 413.347 130.116L425.979 134.326C426.303 134.435 426.55 134.701 426.633 135.033L428.76 143.541C428.893 144.072 429.429 144.398 429.962 144.271L438.62 142.21C439.12 142.091 439.628 142.369 439.796 142.855L447.767 165.828C447.906 166.23 448.286 166.5 448.711 166.5H458.167C458.383 166.5 458.593 166.43 458.767 166.3L463.873 162.47C464.241 162.194 464.75 162.205 465.106 162.496L469.724 166.274C469.902 166.42 470.126 166.5 470.357 166.5H481.558C481.839 166.5 482.108 166.619 482.297 166.827L486.74 171.714C486.907 171.898 487 172.138 487 172.387V187.102C487 187.357 487.098 187.604 487.274 187.789L495.927 196.924C495.976 196.974 496.018 197.03 496.055 197.09L501.271 205.626C501.417 205.864 501.456 206.152 501.38 206.421C500.013 211.222 497.5 220.335 497.5 221.5C497.5 222.679 492.675 228.136 490.135 230.856C490.045 230.952 489.976 231.064 489.93 231.187L487.29 238.226C487.122 238.675 487.296 239.181 487.705 239.431L495.898 244.438C495.966 244.479 496.028 244.528 496.084 244.584L506.29 254.79C506.427 254.927 506.521 255.101 506.561 255.291L510.5 274L512 292L513.959 308.161C513.985 308.381 513.939 308.603 513.825 308.793L501.596 329.338C501.533 329.445 501.489 329.563 501.469 329.685L499 344.5L496 367L493.534 386.233C493.512 386.408 493.444 386.574 493.337 386.714L487.061 394.921C487.02 394.973 486.975 395.022 486.925 395.066L479.174 401.848C479.059 401.948 478.969 402.073 478.91 402.213L475.04 411.406C475.013 411.468 474.98 411.528 474.942 411.584L469.798 419.067C469.611 419.338 469.303 419.5 468.974 419.5H444.894C444.641 419.5 444.397 419.596 444.212 419.769L437.158 426.353C437.054 426.45 436.972 426.568 436.917 426.699L432.196 438.029C432.073 438.325 432.097 438.66 432.266 438.932C434.201 442.058 437.973 447.737 439.5 448.5C441.066 449.283 446.91 454.281 449.815 456.837C449.938 456.945 450.03 457.08 450.087 457.233C451.106 459.976 452.889 465.223 452.5 466C452.105 466.791 449.397 472.857 448.047 475.894C448.015 475.966 447.977 476.029 447.93 476.092C445.737 478.958 441.291 484.709 440.5 485.5C439.5 486.5 435 491 434.5 492.5C434.11 493.669 430.212 497.145 428.161 498.865C428.054 498.955 427.931 499.02 427.797 499.058L421.479 500.863C421.178 500.949 420.934 501.172 420.821 501.466L416.067 513.827C416.022 513.941 416 514.063 416 514.186V528.338C416 528.445 416.017 528.552 416.051 528.654L419.423 538.769C419.473 538.921 419.487 539.083 419.462 539.241L418 548.5L416.075 556.198C416.026 556.395 416.037 556.601 416.11 556.79C417.167 559.541 419.456 564.614 421 565C422.567 565.392 427.141 567.415 429.364 568.437C429.455 568.479 429.537 568.533 429.611 568.6C431.31 570.143 434.5 573.326 434.5 574.5C434.5 575.571 433.171 577.786 432.293 579.078C432.112 579.345 431.808 579.5 431.485 579.5H418.474C418.174 579.5 417.89 579.635 417.7 579.867L413.954 584.445C413.683 584.777 413.653 585.244 413.877 585.609C414.753 587.037 416 589.154 416 589.5C416 589.88 419.604 589.989 421.681 589.999C421.889 590 422.091 590.065 422.261 590.186L424.461 591.758C424.989 592.135 425.024 592.908 424.531 593.331L422.122 595.396C422.041 595.465 421.95 595.521 421.852 595.561L413.817 598.869C413.612 598.954 413.441 599.103 413.33 599.296C411.937 601.722 409.267 606.232 408.5 607C407.71 607.79 400.678 609.946 397.132 610.962C397.043 610.988 396.953 611 396.86 611H385.599C385.533 611 385.467 610.993 385.403 610.981L375.875 609.075C375.633 609.027 375.418 608.891 375.271 608.694L368.405 599.54C368.16 599.214 367.742 599.069 367.347 599.174L360.5 601L346.869 604.408C346.631 604.467 346.38 604.437 346.163 604.323L336.536 599.281C336.206 599.108 336 598.767 336 598.395V591.237C336 590.6 335.413 590.126 334.79 590.259L329.896 591.308C329.389 591.417 328.883 591.12 328.73 590.624L327.149 585.484C327.055 585.18 326.824 584.939 326.524 584.835C322.543 583.459 315.152 581 314 581C312.8 581 309.833 582 308.5 582.5L299.152 584.837C298.758 584.936 298.462 585.263 298.405 585.666L297.031 595.285C297.01 595.427 297.021 595.571 297.061 595.708L299.299 603.318C299.419 603.726 299.268 604.166 298.921 604.413L292.761 608.814C292.591 608.935 292.388 609 292.179 609H281.951C281.418 609 280.978 608.583 280.962 608.051C280.857 604.546 281.041 599 282.5 599C283.916 599 285.437 594.037 286.23 590.701C286.377 590.083 285.903 589.5 285.267 589.5H267.634C267.247 589.5 266.895 589.276 266.73 588.926L263.507 582.077C263.242 581.515 263.548 580.851 264.15 580.698C266.189 580.179 269.182 579.5 270.5 579.5C271.875 579.5 275.074 578.761 277.11 578.236C277.614 578.106 277.926 577.606 277.83 577.094L276.588 570.468C276.532 570.172 276.346 569.917 276.081 569.773L264.628 563.569C264.543 563.523 264.465 563.465 264.397 563.397L257.5 556.5L251.332 548.908C251.124 548.653 250.804 548.516 250.476 548.542L238.582 549.493C238.527 549.498 238.473 549.507 238.42 549.52L222.731 553.442C222.579 553.48 222.42 553.482 222.267 553.447L200.884 548.587C200.637 548.531 200.421 548.384 200.278 548.174L192.373 536.548C192.147 536.216 191.744 536.051 191.35 536.13L177.434 538.913C177.157 538.968 176.917 539.138 176.772 539.379L175.072 542.214C174.64 542.933 173.568 542.833 173.276 542.047L169.134 530.861C169.048 530.629 169.051 530.373 169.143 530.142L171.624 523.941C171.831 523.423 171.574 522.836 171.054 522.636L159.524 518.201C159.198 518.076 158.831 518.13 158.555 518.342L152.731 522.823C152.58 522.938 152.465 523.095 152.4 523.273L150.591 528.248C150.531 528.413 150.429 528.559 150.295 528.672L138.15 538.874C138.051 538.957 137.969 539.059 137.908 539.174L133 548.5L130.216 554.531C130.08 554.825 129.811 555.035 129.493 555.095L122.51 556.404C122.19 556.464 121.92 556.676 121.784 556.972L111.547 579.397C111.516 579.465 111.477 579.53 111.431 579.59L95.6267 600.183C95.2835 600.63 94.6387 600.706 94.2017 600.35L81.5839 590.068C81.5281 590.023 81.4773 589.972 81.4325 589.915L67.9999 573L57.9999 556.5L49.4999 544L42.6335 530.758C42.5462 530.589 42.5086 530.4 42.525 530.211L43.4999 519C43.9999 514.833 44.9999 506.1 44.9999 504.5C44.9999 502.9 41.6665 486.833 39.9999 479L38.5524 462.596C38.5201 462.229 38.2887 461.909 37.9502 461.764L28.441 457.689C28.1622 457.57 27.9526 457.33 27.8714 457.038L23.1029 439.871C23.0366 439.632 23.0612 439.377 23.1719 439.156L28.9001 427.699C28.9658 427.568 29.0596 427.453 29.1749 427.362L38.1625 420.266C38.3779 420.096 38.5139 419.845 38.5388 419.572L39.988 403.631C39.9959 403.544 39.9924 403.456 39.9775 403.37L37.5463 389.269C37.5159 389.093 37.4387 388.928 37.3228 388.792L28.9999 379L19.5671 365.596C19.5225 365.532 19.4853 365.464 19.4565 365.391L14.5321 353.081C14.5107 353.027 14.4939 352.972 14.482 352.915L12.5717 343.841C12.5252 343.62 12.5549 343.39 12.6558 343.188L19.4273 329.645C19.4754 329.549 19.5076 329.446 19.5228 329.339L22.9708 305.203C22.99 305.069 22.9817 304.933 22.9465 304.802L19.4999 292L14.6152 279.788C14.5401 279.601 14.4098 279.44 14.2415 279.328L5.8092 273.706C5.60966 273.573 5.46457 273.373 5.40038 273.142L3.18264 265.158C3.07242 264.761 3.21671 264.337 3.54616 264.09L10.8048 258.646C10.933 258.55 11.0824 258.486 11.2404 258.46L28.9999 255.5L47.9225 252.014C47.974 252.005 48.0247 251.991 48.0741 251.974L56.4999 249L66.0499 246.271C66.5764 246.121 66.884 245.575 66.7399 245.047L65.5442 240.663C65.5149 240.555 65.4677 240.453 65.4047 240.361L58.9999 231L51.7862 221.863C51.6045 221.633 51.533 221.334 51.5905 221.047L53.9144 209.427C53.9689 209.155 54.1343 208.917 54.3709 208.772L60.3999 205.062C60.4663 205.021 60.5277 204.972 60.5829 204.917L77.9169 187.583C77.972 187.528 78.0334 187.479 78.0999 187.438L84.024 183.793C84.3197 183.611 84.4999 183.288 84.4999 182.941V179.773C84.4999 179.318 84.1926 178.92 83.7523 178.805L73.124 176.032C73.0416 176.011 72.9568 176 72.8716 176H66.0351C65.7007 176 65.3876 175.834 65.2087 175.551C64.1749 173.92 62.6361 171.091 62.9999 170C63.4999 168.5 66.9999 163.5 68.4999 162.5C69.6184 161.754 71.6928 158.344 72.7791 156.4C72.9208 156.146 72.9416 155.846 72.8415 155.573C71.8035 152.745 69.9999 147.279 69.9999 145C69.9999 142.747 71.7618 139.144 72.8051 137.332C72.9287 137.117 73.1311 136.96 73.3678 136.887C77.3021 135.671 84.4999 133.163 84.4999 132C84.4999 130.847 90.3486 127.139 93.6153 125.224C93.8606 125.08 94.033 124.841 94.091 124.562L96.4384 113.295C96.4785 113.103 96.4609 112.903 96.3879 112.72L91.5833 100.709C91.5284 100.571 91.4437 100.448 91.3353 100.347L85.1698 94.6221C84.7905 94.2699 84.7427 93.6864 85.0595 93.2771L96.4334 78.5859C96.4776 78.5288 96.5155 78.4671 96.5464 78.4018L105.391 59.7295C105.463 59.5789 105.57 59.4485 105.705 59.3502L118.236 50.1926C118.408 50.0674 118.614 50 118.826 50H130.157C130.379 50 130.595 49.9259 130.771 49.7893L134.071 47.2222C134.558 46.8437 135.268 46.9914 135.563 47.5327L140.716 56.9788C140.891 57.3001 141.228 57.5 141.594 57.5H146.732C147.185 57.5 147.581 57.1954 147.698 56.7577L149.402 50.366C149.465 50.1302 149.44 49.8812 149.332 49.6624C148.124 47.2184 146 42.6449 146 41.5C146 40.3302 153.602 35.2644 157.69 32.6941C157.891 32.5678 158.129 32.519 158.364 32.5535L174.87 34.9808C174.956 34.9936 175.041 34.9953 175.127 34.9852C182.339 34.1471 196.807 32.5 198 32.5C199.192 32.5 210.684 29.8676 216.39 28.5259C216.465 28.5083 216.539 28.5 216.616 28.5H231.838C231.945 28.5 232.052 28.4827 232.154 28.4487L240.316 25.7279C240.724 25.5918 241 25.2097 241 24.7792V18.8028C241 18.6053 240.941 18.4123 240.832 18.2481L238.168 14.2519C238.058 14.0877 238 13.8946 238 13.6972V9.60498C238 9.01336 238.511 8.55108 239.099 8.60995L247.927 9.49275C247.976 9.49757 248.022 9.50571 248.07 9.51718C249.431 9.8489 252.214 10.2863 253 9.49999C253.765 8.73534 258.853 5.16903 261.63 3.25447C261.866 3.09172 262.159 3.039 262.436 3.11286C263.898 3.50264 266.418 4.27843 267.5 4.99999C268.67 5.78018 270.253 11.0621 270.949 13.7967C270.983 13.9316 271.044 14.0567 271.129 14.1666L274.2 18.1139C274.389 18.3575 274.68 18.5 274.989 18.5H284.745C284.912 18.5 285.077 18.542 285.224 18.6221L290.168 21.319C290.382 21.4356 290.546 21.6263 290.629 21.8552L294.357 32.1084C294.449 32.359 294.636 32.5629 294.878 32.6746L307.361 38.4361C307.453 38.4784 307.551 38.5066 307.651 38.5197L318.487 39.9331C318.809 39.9751 319.089 40.1684 319.241 40.4546C320.829 43.4366 323.861 48.9811 325 50.5C326.5 52.5 330.5 61.5 331 63.5C331.5 65.5 331 74 331 76V88.5L327.692 99.842C327.576 100.239 327.716 100.665 328.044 100.916L335.811 106.855C335.935 106.95 336.08 107.015 336.234 107.044L343.764 108.456C343.919 108.485 344.065 108.55 344.19 108.646L350.287 113.336C350.426 113.444 350.535 113.586 350.602 113.748L353.97 121.928C353.99 121.976 354.006 122.025 354.018 122.076L356.816 133.733ZM126.079 474.572C126.182 474.696 126.314 474.793 126.463 474.856L191.905 502.251C191.968 502.277 192.028 502.31 192.085 502.349L218.744 520.665C218.911 520.78 219.108 520.841 219.31 520.841H280.297C280.41 520.841 280.521 520.86 280.627 520.897L356.091 547.253C356.491 547.393 356.934 547.266 357.2 546.936L380.376 518.154C380.458 518.052 380.519 517.935 380.556 517.81L394.403 470.834L401.149 424.683C401.162 424.596 401.186 424.512 401.221 424.431L419.554 382.005C419.6 381.897 419.666 381.798 419.748 381.712L469.429 329.574C469.476 329.525 469.518 329.471 469.554 329.413L488.25 299.4C488.408 299.147 488.445 298.836 488.35 298.553L472.544 251.551C472.515 251.464 472.498 251.374 472.493 251.282L471.5 231L472.469 203.548C472.487 203.045 472.128 202.607 471.631 202.526L431.339 195.937C430.855 195.858 430.5 195.44 430.5 194.95V162.508C430.5 162.189 430.347 161.889 430.09 161.7L416.97 152.121C416.861 152.041 416.736 151.984 416.603 151.954L397.21 147.525C397.137 147.508 397.062 147.5 396.987 147.5H336.849C336.623 147.5 336.403 147.423 336.226 147.282L309.681 126.144C309.562 126.049 309.466 125.929 309.401 125.791L289.593 84.1947C289.531 84.0664 289.444 83.9525 289.335 83.8608L260.764 59.7234C260.593 59.5787 260.378 59.4957 260.154 59.4879L232.098 58.5034C232.033 58.5012 231.967 58.5053 231.903 58.5158L176.716 67.4808C176.637 67.4935 176.56 67.5156 176.487 67.5466L147.2 79.9156C147.068 79.9712 146.95 80.0544 146.853 80.1596L123.085 105.984C122.903 106.181 122.808 106.444 122.822 106.713L124.4 137L121.041 182.272C121.015 182.618 120.813 182.926 120.505 183.085L105.325 190.976C105.115 191.085 104.951 191.265 104.861 191.483L95.1193 215.209C95.0416 215.398 95.0238 215.607 95.0684 215.807L101.256 243.506C101.386 244.088 100.981 244.654 100.388 244.719L77.4999 247.204L67.0779 248.987C67.026 248.996 66.9748 249.008 66.9249 249.025L57.7425 252.144C57.5833 252.198 57.4403 252.291 57.3268 252.415L52.2032 258.005C52.0706 258.15 51.9835 258.331 51.9528 258.524L49.5412 273.739C49.5141 273.91 49.5318 274.085 49.5925 274.247L58.4999 298L73.478 357.413C73.4926 357.471 73.5019 357.53 73.506 357.589L77.4779 415.678C77.4922 415.887 77.5719 416.087 77.7058 416.248L126.079 474.572Z" fill="#755C30"/>
<path d="M309.2 340.64L308.02 339.224C307.548 338.657 307.83 337.792 308.546 337.614L310.771 337.057C310.921 337.02 311.079 337.018 311.23 337.051L315.216 337.937C315.401 337.978 315.571 338.071 315.706 338.206L316.356 338.856C316.881 339.382 316.67 340.277 315.965 340.512L314.654 340.949C314.552 340.983 314.445 341 314.338 341H309.968C309.671 341 309.39 340.868 309.2 340.64Z" fill="#C7E4FF"/>
<path d="M297.933 342H300.18C300.657 342 301.067 341.664 301.161 341.196L301.419 339.906C301.471 339.646 301.417 339.376 301.27 339.155L297.69 333.785C297.567 333.6 297.385 333.462 297.174 333.391L292.261 331.754C291.816 331.605 291.328 331.786 291.087 332.188L290.388 333.352C290.158 333.736 290.211 334.225 290.516 334.551L297.204 341.684C297.393 341.886 297.657 342 297.933 342Z" fill="#C7E4FF"/>
<path d="M279.958 273.281L280.423 272.932C280.768 272.674 280.908 272.225 280.772 271.816L280.072 269.715C280.024 269.574 280.009 269.423 280.028 269.275L280.467 265.763C280.489 265.591 280.465 265.415 280.398 265.255L278 259.5L275 250L270.546 240.598C270.515 240.533 270.492 240.465 270.476 240.395L269.034 234.149C269.011 234.05 269.004 233.949 269.012 233.847L269.48 227.752C269.493 227.587 269.465 227.421 269.397 227.269L267.535 223.079C267.512 223.027 267.493 222.972 267.479 222.916L266.762 220.048C266.621 219.482 266.028 219.157 265.475 219.341L264.484 219.672C263.947 219.851 263.665 220.441 263.864 220.972L264.796 223.455C264.922 223.792 264.858 224.171 264.628 224.447L262.732 226.722C262.582 226.902 262.5 227.128 262.5 227.362V232.807C262.5 232.935 262.524 233.061 262.571 233.179L263.462 235.407C263.487 235.469 263.506 235.533 263.518 235.599L264.5 241L266.442 247.797C266.48 247.931 266.546 248.055 266.635 248.162L268.846 250.816C268.947 250.937 269.076 251.032 269.221 251.095L272.203 252.373C272.396 252.455 272.558 252.597 272.666 252.777L273.87 254.784C273.955 254.926 274.004 255.086 274.012 255.251L274.487 265.223C274.495 265.404 274.553 265.58 274.654 265.73L275.5 267L278.464 272.928C278.743 273.486 279.459 273.655 279.958 273.281Z" fill="#C7E4FF"/>
<path d="M342.084 239.508L342.29 240.743C342.397 241.383 343.075 241.754 343.671 241.498L348.525 239.418C349.054 239.191 349.283 238.566 349.026 238.051L346.659 233.318C346.556 233.112 346.527 232.878 346.577 232.653L347.476 228.607C347.492 228.536 347.5 228.463 347.5 228.39V224.535C347.5 224.201 347.667 223.889 347.945 223.703L350.5 222L362.137 212.787C362.367 212.605 362.666 212.533 362.954 212.591L364.633 212.927C364.869 212.974 365.115 212.934 365.325 212.814L368.368 211.075C368.456 211.025 368.55 210.989 368.648 210.967L372.667 210.074C372.883 210.026 373.077 209.908 373.218 209.738L375.119 207.457C375.354 207.175 375.724 207.045 376.083 207.117L377.594 207.419C377.854 207.471 378.124 207.417 378.345 207.27L385.248 202.668C385.412 202.558 385.605 202.5 385.803 202.5H387.479C387.806 202.5 388.111 202.659 388.298 202.927L391.201 207.073C391.388 207.341 391.694 207.5 392.021 207.5H394.403C394.77 207.5 395.109 207.298 395.283 206.974L401.903 194.679C401.967 194.561 402.054 194.457 402.159 194.373L404.413 192.569C404.471 192.523 404.523 192.471 404.569 192.413L406.281 190.274C406.423 190.097 406.5 189.876 406.5 189.649V185.015C406.5 184.692 406.656 184.389 406.919 184.201L409.831 182.121C409.942 182.041 410.036 181.939 410.107 181.822L414.437 174.606C414.479 174.535 414.529 174.471 414.587 174.413L416.804 172.196C416.932 172.068 417.023 171.907 417.067 171.731L418.189 167.243C418.347 166.611 417.87 166 417.219 166H413.535C413.201 166 412.888 166.167 412.703 166.445L408.074 173.39C408.025 173.463 407.966 173.529 407.9 173.587L404.067 176.941C404.022 176.98 403.981 177.023 403.944 177.069L402.17 179.287C402.059 179.426 401.987 179.593 401.961 179.77L401.558 182.59C401.521 182.852 401.381 183.089 401.169 183.249L397.9 185.7C397.648 185.889 397.5 186.185 397.5 186.5V189.5C397.5 189.815 397.352 190.111 397.1 190.3L393.9 192.7C393.648 192.889 393.5 193.185 393.5 193.5V195C393.5 195.315 393.352 195.611 393.1 195.8L389.938 198.171C389.665 198.376 389.307 198.427 388.987 198.308L385.895 197.148C385.642 197.053 385.362 197.065 385.118 197.18L377.098 200.954C377.033 200.984 376.964 201.008 376.894 201.024L366.072 203.484C366.024 203.495 365.977 203.509 365.931 203.527L357.359 206.86C357.128 206.95 356.938 207.123 356.827 207.345L355.776 209.447C355.607 209.786 355.261 210 354.882 210H352.297C352.103 210 351.913 210.056 351.751 210.162L341.11 217.102C340.746 217.339 340.577 217.784 340.692 218.203L341.899 222.631C341.964 222.869 341.939 223.122 341.829 223.342L341.605 223.789C341.536 223.928 341.5 224.081 341.5 224.236V233.219C341.5 233.678 341.812 234.078 342.257 234.189L342.886 234.346C343.261 234.44 343.548 234.742 343.624 235.121L343.895 236.475C343.96 236.803 343.858 237.142 343.621 237.378L342.364 238.636C342.135 238.864 342.031 239.189 342.084 239.508Z" fill="#C7E4FF"/>
<path d="M419.624 293.067L424.517 288.75C425.208 288.14 424.776 287 423.855 287H422.64C422.547 287 422.455 286.987 422.365 286.961L421.019 286.577C420.209 286.346 420.03 285.279 420.72 284.796L423.023 283.184C423.533 282.827 423.597 282.097 423.157 281.657L422.266 280.766C422.094 280.594 421.991 280.367 421.975 280.125L421.511 273.168C421.504 273.057 421.515 272.945 421.544 272.838L422.946 267.697C422.982 267.567 423.043 267.446 423.126 267.34L430.5 258L434.407 252.628C434.469 252.543 434.543 252.469 434.628 252.407L439.857 248.604C439.951 248.535 440.057 248.484 440.17 248.451L449.702 245.728C450.165 245.596 450.656 245.812 450.871 246.242L451.605 247.71C451.831 248.161 451.685 248.71 451.265 248.99L450.621 249.419C450.541 249.473 450.453 249.514 450.361 249.543L444.259 251.42C444.089 251.472 443.937 251.569 443.816 251.7L438.5 257.5L433.559 263.924C433.52 263.974 433.485 264.029 433.457 264.086L429.583 271.833C429.528 271.943 429.494 272.063 429.482 272.186L428.5 282.5L428.03 288.135C428.011 288.371 427.908 288.592 427.741 288.759L421.853 294.646C421.631 294.869 421.316 294.974 421.005 294.929L420.145 294.806C419.3 294.686 418.985 293.631 419.624 293.067Z" fill="#C7E4FF"/>
<path d="M110.696 362.794L109.875 361.563C109.649 361.223 109.652 360.779 109.883 360.442L115 353L120.5 346L124.882 341.131C124.96 341.044 125.052 340.972 125.155 340.917L132.178 337.172C132.386 337.061 132.548 336.88 132.636 336.661L133.328 334.931C133.437 334.657 133.661 334.446 133.94 334.353L138 333L141.493 331.447C142.033 331.208 142.661 331.485 142.848 332.045L143.726 334.677C143.883 335.149 143.669 335.665 143.224 335.888L142.237 336.381C142.082 336.459 141.949 336.576 141.853 336.721L141.055 337.918C141.018 337.972 140.976 338.023 140.93 338.07L139.104 339.896C139.035 339.965 138.956 340.023 138.871 340.07L132.61 343.441C132.537 343.48 132.469 343.528 132.408 343.585L114.076 360.43C114.026 360.476 113.98 360.528 113.939 360.585L112.342 362.821C111.935 363.39 111.084 363.377 110.696 362.794Z" fill="#C7E4FF"/>
<path d="M73.7291 266.602L77.9303 268.469C77.9766 268.49 78.0244 268.507 78.0733 268.52L83.4999 270L92.0183 272.981C92.7087 273.223 93.4165 272.666 93.3437 271.938L93.0577 269.078C93.022 268.721 92.7971 268.41 92.4688 268.264L88.6114 266.55C88.5373 266.517 88.4675 266.475 88.4036 266.425L84.0888 263.069C84.0297 263.023 83.9656 262.984 83.8978 262.952L76.7268 259.606C76.5778 259.536 76.4483 259.431 76.3497 259.3L73.4999 255.5L70.7992 252.349C70.6092 252.128 70.3319 252 70.0399 252H65.8568C65.626 252 65.4023 252.08 65.2236 252.226L60.3666 256.2C60.1345 256.39 59.9999 256.674 59.9999 256.974V261.449C59.9999 262.021 60.4786 262.476 61.0498 262.448L69.4801 262.026C69.8059 262.01 70.1191 262.153 70.3194 262.411L73.3459 266.302C73.447 266.432 73.5786 266.535 73.7291 266.602Z" fill="#C7E4FF"/>
<path d="M139.5 250L136.304 247.204C135.869 246.823 135.847 246.153 136.256 245.744L136.333 245.667C136.443 245.557 136.577 245.474 136.724 245.425L139.206 244.598C139.398 244.534 139.604 244.53 139.797 244.585L142.751 245.429C142.914 245.475 143.063 245.563 143.183 245.683L145.405 247.905C145.468 247.968 145.522 248.039 145.566 248.116L147.288 251.129C147.423 251.366 147.649 251.537 147.914 251.603L149.393 251.973C149.464 251.991 149.533 252.016 149.598 252.049L151.947 253.224C152.286 253.393 152.5 253.739 152.5 254.118V255C152.5 255.315 152.352 255.611 152.1 255.8L150.689 256.858C150.565 256.951 150.464 257.072 150.394 257.211L150.053 257.894C149.768 258.463 149.031 258.625 148.534 258.227L147.171 257.137C147.058 257.047 146.966 256.933 146.902 256.804L145.63 254.26C145.545 254.09 145.413 253.948 145.25 253.85L143 252.5L139.5 250Z" fill="#C7E4FF"/>
<path d="M129.397 236.703L127.703 238.68C127.324 239.122 126.648 239.148 126.236 238.736L125.293 237.793C125.105 237.605 124.851 237.5 124.586 237.5H123.159C122.759 237.5 122.398 237.262 122.24 236.894L121 234L119.095 230.666C119.032 230.556 118.991 230.436 118.973 230.311L118.515 227.103C118.505 227.034 118.488 226.967 118.464 226.902L116.565 221.68C116.522 221.561 116.457 221.451 116.373 221.357L112.696 217.221C112.568 217.077 112.484 216.899 112.455 216.708L111.628 211.334C111.554 210.852 111.838 210.387 112.3 210.233L113.258 209.914C113.883 209.705 114.139 208.959 113.774 208.411L112.756 206.885C112.594 206.641 112.546 206.337 112.627 206.055L112.93 204.994C113.16 204.189 114.219 204.006 114.705 204.688L116 206.5L118.424 210.378C118.474 210.459 118.536 210.532 118.607 210.595L122.8 214.322C122.931 214.439 123.029 214.587 123.084 214.754L123.923 217.271C123.974 217.421 123.987 217.582 123.963 217.739L123.041 223.73C123.014 223.907 123.035 224.088 123.101 224.254L123.928 226.321C123.976 226.439 124 226.565 124 226.693V229C124 229.315 124.148 229.611 124.4 229.8L127.6 232.2C127.852 232.389 128 232.685 128 233V233.586C128 233.851 128.105 234.105 128.293 234.293L129.345 235.345C129.715 235.715 129.737 236.306 129.397 236.703Z" fill="#C7E4FF"/>
<path d="M210.5 204.198V202.5C210.5 202.223 210.276 202 210 202H209.5C208.948 202 208.5 201.552 208.5 201V199.599C208.5 199.533 208.493 199.467 208.48 199.403L208.138 197.691C208.055 197.277 208.242 196.855 208.604 196.637L210.211 195.673C210.398 195.561 210.544 195.39 210.625 195.187L211.5 193L212.449 190.154C212.483 190.052 212.5 189.945 212.5 189.838V186.583C212.5 186.528 212.495 186.473 212.486 186.418L212 183.5L211.645 181.014C211.568 180.479 211.984 180 212.524 180C212.821 180 213.099 179.852 213.264 179.604L213.703 178.945C213.888 178.667 214.201 178.5 214.535 178.5H215.5C215.815 178.5 216.111 178.648 216.3 178.9L216.835 179.613C217.19 180.087 217.058 180.765 216.549 181.07L215.794 181.524C215.346 181.792 215.18 182.361 215.414 182.828L215.723 183.447C215.893 183.786 216.239 184 216.618 184H217.401C217.467 184 217.532 183.993 217.597 183.981L218.804 183.739C219.423 183.615 220 184.089 220 184.72V187.197C220 187.395 220.058 187.588 220.168 187.752L220.703 188.555C220.888 188.833 221.201 189 221.535 189H222.586C222.851 189 223.105 189.105 223.293 189.293L223.99 189.99C224.295 190.295 224.37 190.76 224.178 191.145L223.674 192.152C223.562 192.376 223.538 192.633 223.607 192.874L224.293 195.276C224.406 195.671 224.825 195.892 225.214 195.762C225.629 195.624 226.071 195.884 226.15 196.315L226.451 197.945C226.483 198.118 226.469 198.297 226.409 198.464L225.67 200.526C225.563 200.824 225.603 201.155 225.779 201.419L226.27 202.155C226.417 202.376 226.471 202.646 226.419 202.906L225.581 207.094C225.529 207.354 225.376 207.583 225.155 207.73L224.322 208.286C224.115 208.424 223.966 208.634 223.906 208.875L223.62 210.02C223.544 210.322 223.614 210.643 223.809 210.887L225.007 212.384C225.296 212.745 225.3 213.258 225.016 213.623L222.571 216.766C222.249 217.18 221.662 217.275 221.226 216.984L221.121 216.914C220.753 216.669 220.266 216.694 219.926 216.978L217.718 218.818C217.576 218.937 217.469 219.093 217.41 219.27L216.728 221.316C216.592 221.725 216.21 222 215.779 222H215.617C215.021 222 214.557 221.482 214.623 220.89L214.887 218.518C214.936 218.079 214.479 217.761 214.084 217.958C213.658 218.171 213.178 217.786 213.294 217.324L213.315 217.241C213.409 216.865 213.124 216.5 212.736 216.5H212.031C211.507 216.5 211.123 216.008 211.25 215.5C211.377 214.992 210.993 214.5 210.469 214.5H210.377C209.892 214.5 209.5 214.107 209.5 213.623V208C209.5 207.685 209.648 207.389 209.9 207.2L210.743 206.568C211.168 206.249 211.27 205.654 210.975 205.213L210.668 204.752C210.558 204.588 210.5 204.395 210.5 204.198Z" fill="#C7E4FF"/>
<path d="M186.353 148.608L184.111 148.982C184.039 148.994 183.972 149.028 183.921 149.079C183.732 149.268 183.41 149.185 183.336 148.928L182.5 146L181.06 141.679C181.02 141.561 180.959 141.451 180.879 141.355L178.5 138.5L173.584 130.634C173.528 130.545 173.487 130.448 173.462 130.347L172.519 126.578C172.506 126.526 172.489 126.475 172.468 126.426L171.03 123.071C171.01 123.024 170.986 122.978 170.959 122.935L168.571 119.114C168.524 119.038 168.487 118.957 168.461 118.871L167 114L166.077 110.309C166.027 110.108 165.915 109.927 165.758 109.793L162.572 107.062C162.524 107.021 162.472 106.984 162.417 106.953L159.504 105.288C159.192 105.11 159 104.779 159 104.42V102.083C159 102.028 159.004 101.973 159.013 101.918L159.476 99.1438C159.492 99.0484 159.494 98.9513 159.482 98.8553L159.11 95.8792C159.047 95.3774 159.369 94.9077 159.86 94.7851L160.798 94.5504C160.931 94.5171 161.07 94.5116 161.205 94.5342L163.498 94.9163C163.813 94.9689 164.085 95.1693 164.228 95.4554L166.427 99.8548C166.475 99.951 166.539 100.039 166.615 100.115L169.207 102.707C169.395 102.895 169.5 103.149 169.5 103.414V105.586C169.5 105.851 169.605 106.105 169.793 106.293L170.654 107.154C170.872 107.372 170.977 107.679 170.939 107.985L170.623 110.515C170.57 110.936 171.008 111.246 171.388 111.056C171.461 111.019 171.543 111 171.625 111H173.779C174.21 111 174.592 111.275 174.728 111.684L175.334 113.503C175.438 113.814 175.382 114.157 175.186 114.419L174.394 115.474C174.155 115.793 174.128 116.224 174.326 116.57L176 119.5L176.597 120.695C176.826 121.152 177.364 121.364 177.843 121.184L179.899 120.413C180.476 120.196 181.11 120.549 181.23 121.153L181.383 121.917C181.455 122.276 181.324 122.646 181.043 122.881L179.19 124.425C178.798 124.752 178.715 125.322 178.998 125.748L179.203 126.055C179.388 126.333 179.701 126.5 180.035 126.5H181.34C181.741 126.5 182.102 126.738 182.26 127.106L183.5 130L185.948 135.386C185.983 135.462 186.026 135.533 186.078 135.597L189.227 139.534C189.625 140.031 189.463 140.768 188.893 141.053L188.187 141.406C188.064 141.468 187.954 141.555 187.866 141.661L186.702 143.058C186.224 143.631 186.632 144.5 187.377 144.5C188.16 144.5 188.553 145.447 187.999 146.001L187.696 146.304C187.568 146.432 187.477 146.593 187.433 146.769L187.159 147.864C187.062 148.25 186.746 148.542 186.353 148.608Z" fill="#C7E4FF"/>
<path d="M336.975 502.72L334.916 520.841C334.801 521.854 336.098 522.37 336.709 521.554L338.85 518.699C338.949 518.568 339.013 518.415 339.038 518.254L341.488 502.577C341.496 502.526 341.5 502.474 341.5 502.422V491.579C341.5 491.527 341.504 491.474 341.512 491.421L343.488 479.077C343.496 479.026 343.508 478.975 343.524 478.926L349.417 460.755C349.471 460.588 349.48 460.409 349.444 460.237L348.076 453.853C348.027 453.625 348.059 453.387 348.168 453.18L353.342 443.302C353.444 443.106 353.479 442.882 353.441 442.664L352.085 434.983C352.031 434.678 352.122 434.366 352.33 434.137L356.791 429.23C356.927 429.08 357.015 428.893 357.042 428.692L358.482 418.129C358.494 418.044 358.494 417.956 358.484 417.87L357.042 406.34C357.015 406.12 356.915 405.915 356.757 405.757L352 401L343.862 391.905C343.636 391.653 343.554 391.302 343.643 390.975L344.899 386.369C344.964 386.131 344.939 385.878 344.829 385.658L341.6 379.201C341.534 379.068 341.44 378.953 341.324 378.861L334.676 373.639C334.56 373.547 334.466 373.431 334.4 373.299L331.223 366.947C330.891 366.282 329.975 366.2 329.529 366.794L326.046 371.438C326.015 371.479 325.988 371.523 325.964 371.568L322.547 377.974C322.259 378.514 322.52 379.183 323.097 379.387L330.051 381.842C330.335 381.942 330.559 382.165 330.66 382.448L332.942 388.837C332.98 388.945 333 389.059 333 389.173V395.523C333 395.825 333.136 396.11 333.371 396.3L343.168 404.231C343.38 404.403 343.513 404.654 343.535 404.926L346.481 440.272C346.493 440.422 346.472 440.573 346.418 440.714L341.567 453.327C341.522 453.441 341.5 453.563 341.5 453.686V464.797C341.5 464.931 341.473 465.064 341.42 465.187L334.579 481.313C334.527 481.436 334.5 481.569 334.5 481.703V494.838C334.5 494.945 334.517 495.052 334.551 495.154L336.93 502.29C336.976 502.428 336.991 502.575 336.975 502.72Z" fill="#C7E4FF"/>
<path d="M253.5 495.382V493.803C253.5 493.605 253.441 493.412 253.332 493.248L253.184 493.025C252.831 492.497 253.054 491.778 253.644 491.542L254.556 491.178C254.837 491.065 255.052 490.832 255.14 490.543L256.944 484.681C256.981 484.562 256.995 484.436 256.985 484.311L256.528 478.362C256.51 478.128 256.575 477.895 256.711 477.704L258.814 474.761C258.935 474.591 259 474.388 259 474.18V471.176C259 471.06 259.02 470.944 259.06 470.834L262.962 460.103C262.987 460.034 263.02 459.969 263.059 459.908L266.43 454.609C266.477 454.537 266.513 454.459 266.539 454.377L270.459 442.127C270.486 442.043 270.502 441.955 270.506 441.867L270.988 431.269C270.996 431.093 271.05 430.922 271.145 430.774L275.251 424.387C275.409 424.141 275.452 423.839 275.368 423.559L274.511 420.704C274.287 419.957 273.332 419.742 272.81 420.322L269.889 423.567C269.649 423.835 269.57 424.211 269.684 424.552L270.061 425.684C270.277 426.331 269.795 427 269.112 427H268.118C267.739 427 267.393 427.214 267.223 427.553L264.786 432.428C264.612 432.777 264.656 433.195 264.9 433.5L266.177 435.097C266.38 435.35 266.447 435.685 266.358 435.996L264.555 442.307C264.519 442.434 264.457 442.553 264.374 442.657L262.629 444.838C262.544 444.945 262.481 445.068 262.445 445.2L261.02 450.428C261.006 450.476 260.99 450.523 260.97 450.568L253.566 467.351C253.522 467.45 253.495 467.555 253.485 467.662L251.533 488.641C251.512 488.873 251.41 489.09 251.245 489.255L249.888 490.612C249.646 490.854 249.545 491.202 249.619 491.536L250.397 495.035C250.462 495.329 250.656 495.578 250.926 495.713L252.053 496.276C252.718 496.609 253.5 496.125 253.5 495.382Z" fill="#C7E4FF"/>
</svg>
