<svg width="800" height="800" viewBox="0 0 800 800" fill="none" xmlns="http://www.w3.org/2000/svg">
<path d="M577 337.4C601.442 315.717 616.667 284.117 616.667 250C616.667 240.8 609.2 233.333 600 233.333C554.05 233.333 516.667 195.95 516.667 150C516.667 140.8 509.2 133.333 500 133.333C441.017 133.333 392.242 177.367 384.525 234.258C327.458 240.4 280.083 279.992 264.075 334.858C259.267 333.992 254.225 333.333 250 333.333C199.458 333.333 158.333 374.458 158.333 425C158.333 475.542 199.458 516.667 250 516.667C259.2 516.667 266.667 509.2 266.667 500C266.667 490.8 259.2 483.333 250 483.333C217.842 483.333 191.667 457.158 191.667 425C191.667 392.842 217.842 366.667 250 366.667C252.308 366.667 256.025 367.233 259.942 368.017V383.333C259.942 392.533 267.4 400 276.608 400C285.817 400 293.275 392.533 293.275 383.333V356.508C302.217 304.4 346.908 266.667 400 266.667C453.083 266.667 497.775 304.4 506.725 356.517V383.333C506.725 392.533 514.192 400 523.392 400C532.592 400 540.058 392.533 540.058 383.333V368.017C543.975 367.233 547.692 366.667 550 366.667C582.158 366.667 608.333 392.842 608.333 425C608.333 457.158 582.158 483.333 550 483.333C540.792 483.333 533.333 490.8 533.333 500C533.333 509.2 540.792 516.667 550 516.667C600.542 516.667 641.667 475.542 641.667 425C641.667 383.85 614.4 348.958 577 337.4ZM418.117 234.583C424.442 200.925 451.05 174.333 484.733 168.067C492.517 217.942 532.025 257.467 581.9 265.267C576.775 292.317 558.233 315.317 533.05 326.317C515.092 276.75 470.992 241.267 418.117 234.583Z" fill="black"/>
<path d="M381.1 520.533C376.483 512.567 366.325 509.817 358.333 514.425C350.367 519.033 347.633 529.217 352.233 537.192L360.567 551.625C363.658 556.975 369.258 559.958 375.017 559.958C377.842 559.958 380.708 559.242 383.333 557.725C391.3 553.117 394.033 542.933 389.433 534.958L381.1 520.533Z" fill="black"/>
<path d="M339.433 448.367C334.817 440.392 324.658 437.658 316.667 442.267C308.7 446.875 305.967 457.058 310.567 465.033L318.9 479.467C321.992 484.817 327.592 487.8 333.35 487.8C336.175 487.8 339.042 487.083 341.667 485.575C349.633 480.967 352.367 470.783 347.767 462.8L339.433 448.367Z" fill="black"/>
<path d="M358.333 485.575C360.958 487.092 363.825 487.8 366.65 487.8C372.408 487.8 378.008 484.817 381.1 479.467L389.433 465.033C394.033 457.058 391.3 446.867 383.333 442.267C375.342 437.658 365.167 440.392 360.567 448.367L352.233 462.8C347.633 470.775 350.367 480.967 358.333 485.575Z" fill="black"/>
<path d="M341.667 514.425C333.675 509.808 323.5 512.558 318.9 520.533L310.567 534.967C305.967 542.942 308.7 553.133 316.667 557.733C319.292 559.25 322.158 559.967 324.983 559.967C330.742 559.967 336.342 556.983 339.433 551.633L347.767 537.2C352.367 529.225 349.633 519.033 341.667 514.425Z" fill="black"/>
<path d="M333.333 500C333.333 490.8 325.867 483.333 316.667 483.333H300C290.792 483.333 283.333 490.8 283.333 500C283.333 509.2 290.792 516.667 300 516.667H316.667C325.867 516.667 333.333 509.2 333.333 500Z" fill="black"/>
<path d="M416.667 500C416.667 490.8 409.2 483.333 400 483.333H383.333C374.125 483.333 366.667 490.8 366.667 500C366.667 509.2 374.125 516.667 383.333 516.667H400C409.2 516.667 416.667 509.2 416.667 500Z" fill="black"/>
<path d="M551.004 500.5C551.004 491.3 551.004 490.5 551.004 483.333C521.504 483.333 481.504 483.333 452.004 483.333C443.749 483.333 437.004 491.745 437.004 500C437.004 508.254 443.749 516.667 452.004 516.667C475.004 516.667 528.004 516.667 551.004 516.667C551.004 510 551.004 509.7 551.004 500.5Z" fill="black"/>
</svg>
