<svg width="800" height="800" viewBox="0 0 800 800" fill="none" xmlns="http://www.w3.org/2000/svg" fill="currentColor">
<path d="M550 333.333C545.775 333.333 540.733 333.992 535.933 334.867C518.483 275.1 463.858 233.333 400 233.333C336.142 233.333 281.517 275.1 264.075 334.867C259.267 333.992 254.225 333.333 250 333.333C199.458 333.333 158.333 374.458 158.333 425C158.333 475.542 199.458 516.667 250 516.667C259.2 516.667 266.667 509.2 266.667 500C266.667 490.8 259.2 483.333 250 483.333C217.833 483.333 191.667 457.158 191.667 425C191.667 392.842 217.833 366.667 250 366.667C252.308 366.667 256.025 367.233 259.942 368.017V383.333C259.942 392.533 267.408 400 276.608 400C285.808 400 293.275 392.533 293.275 383.333V356.492C302.233 304.392 346.925 266.667 400 266.667C453.075 266.667 497.767 304.392 506.725 356.492V383.333C506.725 392.533 514.192 400 523.392 400C532.592 400 540.058 392.533 540.058 383.333V368.017C543.975 367.233 547.692 366.667 550 366.667C582.158 366.667 608.333 392.842 608.333 425C608.333 457.158 582.158 483.333 550 483.333C540.8 483.333 533.333 490.8 533.333 500C533.333 509.2 540.8 516.667 550 516.667C600.542 516.667 641.667 475.542 641.667 425C641.667 374.458 600.542 333.333 550 333.333Z" />
<path d="M506.1 593.9C501.508 585.933 491.3 583.2 483.333 587.8C475.358 592.408 472.633 602.592 477.233 610.567L485.567 625C488.65 630.35 494.25 633.333 500.017 633.333C502.842 633.333 505.708 632.617 508.333 631.1C516.308 626.492 519.033 616.308 514.433 608.333L506.1 593.9Z" />
<path d="M464.433 521.725C459.833 513.758 449.642 511.025 441.667 515.625C433.692 520.233 430.967 530.417 435.567 538.392L443.9 552.825C446.983 558.175 452.583 561.158 458.35 561.158C461.175 561.158 464.042 560.442 466.667 558.933C474.642 554.325 477.367 544.142 472.767 536.158L464.433 521.725Z" />
<path d="M483.333 558.933C485.958 560.45 488.825 561.158 491.65 561.158C497.408 561.158 503.017 558.175 506.1 552.825L514.433 538.392C519.033 530.417 516.308 520.225 508.333 515.625C500.358 511.025 490.167 513.758 485.567 521.725L477.233 536.158C472.633 544.142 475.358 554.333 483.333 558.933Z" />
<path d="M466.667 587.792C458.692 583.192 448.5 585.925 443.9 593.892L435.567 608.325C430.967 616.3 433.692 626.492 441.667 631.092C444.292 632.617 447.158 633.333 449.983 633.333C455.742 633.333 461.35 630.35 464.433 625L472.767 610.567C477.367 602.592 474.642 592.4 466.667 587.792Z" />
<path d="M458.333 573.367C458.333 564.167 450.867 556.7 441.667 556.7H425C415.8 556.7 408.333 564.167 408.333 573.367C408.333 582.567 415.8 590.033 425 590.033H441.667C450.867 590.033 458.333 582.567 458.333 573.367Z" />
<path d="M525 556.7H508.333C499.133 556.7 491.667 564.167 491.667 573.367C491.667 582.567 499.133 590.033 508.333 590.033H525C534.2 590.033 541.667 582.567 541.667 573.367C541.667 564.167 534.2 556.7 525 556.7Z" />
<path d="M285.168 540.075C287.393 531.149 296.437 525.707 305.371 527.935C314.298 530.161 319.736 539.213 317.511 548.139L309.447 580.483C307.221 589.41 298.17 594.848 289.243 592.622C280.308 590.395 274.878 581.345 277.103 572.419L285.168 540.075Z" />
<path d="M354.897 590.573C345.963 588.345 336.919 593.786 334.694 602.713L326.63 635.056C324.404 643.983 329.834 653.032 338.769 655.259C347.696 657.485 356.747 652.047 358.973 643.12L367.037 610.777C369.263 601.85 363.824 592.799 354.897 590.573Z" />
<path d="M379.089 493.544C370.155 491.316 361.112 496.756 358.886 505.683L350.822 538.026C348.596 546.953 354.027 556.002 362.961 558.23C371.888 560.456 380.939 555.017 383.165 546.09L391.229 513.747C393.455 504.82 388.016 495.769 379.089 493.544Z" />
</svg>
